<svg width="24" height="24" viewBox="0 0 24 24" fill="none" xmlns="http://www.w3.org/2000/svg">
<path fill-rule="evenodd" clip-rule="evenodd" d="M13.1281 2.26461C15.4413 3.7876 17.7926 5 20.5 5H21.2465C21.6626 5 22 5.33736 22 5.75352C22 9.56357 22 18.1819 12.2777 21.9114L12.266 21.9159C12.1473 21.9612 11.8548 21.9516 11.7343 21.9114C2 18.1819 2 9.475 2 5.75355V5.75352C2 5.33736 2.33736 5 2.75352 5H3.5C6.21506 5 8.50313 3.78072 10.8631 2.25167C11.5531 1.80464 12.4414 1.81253 13.1281 2.26461ZM12.2851 6.87143C12.1949 6.59581 11.8051 6.59581 11.7149 6.87143L10.8873 9.40075C10.8469 9.52406 10.7319 9.60746 10.6022 9.60746H7.92854C7.63741 9.60746 7.51692 9.98041 7.75301 10.1507L9.91241 11.7087C10.0183 11.7851 10.0626 11.9212 10.022 12.0453L9.19634 14.5688C9.10602 14.8448 9.42147 15.0753 9.65699 14.9054L11.8245 13.3416C11.9293 13.2659 12.0707 13.2659 12.1755 13.3416L14.343 14.9054C14.5785 15.0753 14.894 14.8448 14.8037 14.5688L13.978 12.0453C13.9374 11.9212 13.9817 11.7851 14.0876 11.7087L16.247 10.1507C16.4831 9.98041 16.3626 9.60746 16.0715 9.60746H13.3978C13.2681 9.60746 13.1531 9.52406 13.1127 9.40075L12.2851 6.87143Z" fill="#343434"/>
</svg>
