<svg width="24" height="24" viewBox="0 0 24 24" fill="none" xmlns="http://www.w3.org/2000/svg">
<path fill-rule="evenodd" clip-rule="evenodd" d="M18.6694 16.4196C19.5102 15.1534 20 13.6339 20 12C20 7.58172 16.4183 4 12 4C7.58172 4 4 7.58172 4 12C4 13.6339 4.48981 15.1534 5.33059 16.4196C6.43511 14.8099 10.0382 14 12 14C13.9618 14 17.5649 14.8099 18.6694 16.4196ZM12 22C17.5228 22 22 17.5228 22 12C22 6.47715 17.5228 2 12 2C6.47715 2 2 6.47715 2 12C2 17.5228 6.47715 22 12 22ZM12 13C12.5933 13 13.1734 12.8241 13.6667 12.4944C14.1601 12.1648 14.5446 11.6962 14.7716 11.1481C14.9987 10.5999 15.0581 9.99667 14.9424 9.41473C14.8266 8.83279 14.5409 8.29824 14.1213 7.87868C13.7018 7.45912 13.1672 7.1734 12.5853 7.05765C12.0033 6.94189 11.4001 7.0013 10.8519 7.22836C10.3038 7.45543 9.83524 7.83994 9.50559 8.33329C9.17595 8.82664 9 9.40666 9 10C9 10.7957 9.31607 11.5587 9.87868 12.1213C10.4413 12.6839 11.2043 13 12 13Z" fill="#161616"/>
</svg>
