<svg width="24" height="24" viewBox="0 0 24 24" fill="none" xmlns="http://www.w3.org/2000/svg">
<path d="M9.5 18C9.22386 18 9 18.2239 9 18.5V18.5814C9 19.5 8.21202 20 7 20C6 20 5.5 19.5 5.5 19C5.5 18.814 5.5 18 6.5 18C7.05491 18 7 17.4651 7 17V16.5C7 16.2239 7.22386 16 7.5 16H17.5C17.7761 16 18 15.7761 18 15.5V2.96906C18 2.56286 17.5413 2.32618 17.2102 2.56157L16.1215 3.33575C15.9222 3.47747 15.6496 3.45422 15.4772 3.28079L14.5754 2.37381C14.3734 2.17063 14.0423 2.17842 13.8501 2.39086L13.1135 3.20496C12.9262 3.41193 12.6057 3.42549 12.4016 3.23509L11.4482 2.34565C11.2444 2.1555 10.9245 2.16874 10.7371 2.37507L9.97143 3.21797C9.78815 3.41975 9.47702 3.43753 9.27194 3.25796L8.17836 2.30042C7.98398 2.13022 7.69194 2.13614 7.50462 2.31409L6.47258 3.29446C6.2976 3.46068 6.02886 3.47818 5.83379 3.33606L4.79443 2.57881C4.46399 2.33806 4 2.57408 4 2.98292V19.5814C4 20.9767 5.10983 22 6.49711 22H17.6879C18.9827 22 20 19.8837 20 18.5814V18.5C20 18.2239 19.7761 18 19.5 18H9.5ZM7 6C7 5.72386 7.22386 5.5 7.5 5.5H14.5C14.7761 5.5 15 5.72386 15 6V7C15 7.27614 14.7761 7.5 14.5 7.5H7.5C7.22386 7.5 7 7.27614 7 7V6ZM7 9.5C7 9.22386 7.22386 9 7.5 9H14.5C14.7761 9 15 9.22386 15 9.5V10.5C15 10.7761 14.7761 11 14.5 11H7.5C7.22386 11 7 10.7761 7 10.5V9.5ZM7 13C7 12.7239 7.22386 12.5 7.5 12.5H14.5C14.7761 12.5 15 12.7239 15 13V14C15 14.2761 14.7761 14.5 14.5 14.5H7.5C7.22386 14.5 7 14.2761 7 14V13Z" fill="#343434"/>
</svg>
