<svg width="24" height="24" viewBox="0 0 24 24" fill="none" xmlns="http://www.w3.org/2000/svg">
<path d="M22.5 0.5H14.5C13.95 0.5 13.5 0.95 13.5 1.5V2.5H10.17C9.62 2.5 9.17 2.95 9.17 3.5V4.5H5.83C5.28 4.5 4.83 4.95 4.83 5.5V6.5H1.5C0.95 6.5 0.5 6.95 0.5 7.5V22.5C0.5 23.05 0.95 23.5 1.5 23.5H9.5C10.05 23.5 10.5 23.05 10.5 22.5V21.5H13.83C14.38 21.5 14.83 21.05 14.83 20.5V19.5H18.16C18.71 19.5 19.16 19.05 19.16 18.5V17.5H22.49C23.04 17.5 23.49 17.05 23.49 16.5V1.5C23.5 0.95 23.05 0.5 22.5 0.5ZM1.5 7.5H9.5V22.5H1.5V7.5ZM10.5 9.05H11.33V12.05H10.5V9.05ZM10.5 18H11.83C12.11 18 12.33 17.78 12.33 17.5C12.33 17.22 12.11 17 11.83 17H10.5V15.94H12.33C12.61 15.94 12.83 15.72 12.83 15.44C12.83 15.16 12.61 14.94 12.33 14.94H10.5V13.05H11.83C12.11 13.05 12.33 12.83 12.33 12.55V8.55C12.33 8.27 12.11 8.05 11.83 8.05H10.5V7.5C10.5 6.95 10.05 6.5 9.5 6.5H5.83V5.5H13.83V20.5H10.5V18ZM14.83 8.82L15.46 9.89H14.83V8.82ZM14.83 16H16.16C16.44 16 16.66 15.78 16.66 15.5C16.66 15.22 16.44 15 16.16 15H14.83V13.94H16.66C16.94 13.94 17.16 13.72 17.16 13.44C17.16 13.16 16.94 12.94 16.66 12.94H14.83V10.89H16.34C16.52 10.89 16.69 10.79 16.77 10.64C16.86 10.48 16.86 10.29 16.77 10.14L14.83 6.86V5.5C14.83 4.95 14.38 4.5 13.83 4.5H10.16V3.5H18.16V18.5H14.83V16ZM19.17 5.33C19.6 5.57 19.9 6.02 19.9 6.55C19.9 7.08 19.6 7.53 19.17 7.77V5.33ZM19.17 14H20.5C20.78 14 21 13.78 21 13.5C21 13.22 20.78 13 20.5 13H19.17V11.94H21C21.28 11.94 21.5 11.72 21.5 11.44C21.5 11.16 21.28 10.94 21 10.94H19.17V8.84C20.17 8.55 20.9 7.64 20.9 6.55C20.9 5.46 20.16 4.55 19.17 4.26V3.5C19.17 2.95 18.72 2.5 18.17 2.5H14.5V1.5H22.5V16.5H19.17V14Z" fill="#161616"/>
<path d="M8 17.94C8.28 17.94 8.5 17.72 8.5 17.44C8.5 17.16 8.28 16.94 8 16.94H3C2.72 16.94 2.5 17.16 2.5 17.44C2.5 17.72 2.72 17.94 3 17.94H8Z" fill="#161616"/>
<path d="M7.5 20C7.78 20 8 19.78 8 19.5C8 19.22 7.78 19 7.5 19H3.5C3.22 19 3 19.22 3 19.5C3 19.78 3.22 20 3.5 20H7.5Z" fill="#161616"/>
<path d="M4.25 13.62L5.06 15.23C5.14 15.4 5.32 15.51 5.51 15.51C5.7 15.51 5.87 15.4 5.96 15.23L6.77 13.62L8.38 12.81C8.55 12.73 8.66 12.55 8.66 12.36C8.66 12.17 8.53 12 8.36 11.92L6.75 11.12L5.95 9.5C5.78 9.16 5.23 9.16 5.06 9.5L4.25 11.11L2.64 11.91C2.47 12 2.36 12.17 2.36 12.36C2.36 12.55 2.47 12.72 2.64 12.81L4.25 13.62ZM5.07 11.71L5.5 10.85L5.93 11.71C5.98 11.81 6.06 11.88 6.15 11.93L7.01 12.36L6.16 12.8C6.06 12.85 5.99 12.93 5.94 13.02L5.5 13.88L5.07 13.02C5.02 12.92 4.94 12.85 4.85 12.8L3.99 12.37L4.85 11.94C4.94 11.88 5.02 11.8 5.07 11.71Z" fill="#161616"/>
</svg>
