<svg width="24" height="24" viewBox="0 0 24 24" fill="none" xmlns="http://www.w3.org/2000/svg">
<path fill-rule="evenodd" clip-rule="evenodd" d="M2.02336 9.51038C3.14073 5.19629 7.11256 2.00461 11.8497 2.00461C17.4459 2.00461 21.9905 6.47112 21.9905 11.9815C21.9905 17.4919 17.4506 21.9584 11.8497 21.9584C7.11256 21.9584 3.14073 18.7667 2.02336 14.4526C2.01397 14.4203 2.00928 14.388 2.00928 14.3556C2.00928 14.0924 2.22524 13.8799 2.49285 13.8799H6.58205C6.77454 13.8799 6.94355 13.9954 7.01867 14.157C7.85435 15.9538 9.69942 17.2055 11.845 17.2055C14.7745 17.2055 17.1548 14.8683 17.1548 11.9815C17.1548 9.0993 14.7792 6.75749 11.845 6.75749C9.70411 6.75749 7.85904 8.00923 7.01867 9.80599C6.94355 9.96766 6.77454 10.0831 6.58205 10.0831H2.49285C2.22524 10.0831 2.00928 9.87066 2.00928 9.60738C2.00928 9.57505 2.01397 9.54271 2.02336 9.51038ZM11.845 9.60738C10.5116 9.60738 9.43181 10.6697 9.43181 11.9815C9.43181 13.2933 10.5116 14.3556 11.845 14.3556C13.1783 14.3556 14.2581 13.2933 14.2581 11.9815C14.2581 10.6697 13.1783 9.60738 11.845 9.60738Z" fill="#161616"/>
</svg>
