<svg width="24" height="24" viewBox="0 0 24 24" fill="none" xmlns="http://www.w3.org/2000/svg">
<path fill-rule="evenodd" clip-rule="evenodd" d="M4 5C4 4.44428 4.44428 4 5 4H19C19.5557 4 20 4.44428 20 5V19C20 19.5557 19.5557 20 19 20H5C4.44428 20 4 19.5557 4 19V5ZM5 2C3.33972 2 2 3.33972 2 5V19C2 20.6603 3.33972 22 5 22H19C20.6603 22 22 20.6603 22 19V5C22 3.33972 20.6603 2 19 2H5ZM6.29215 7.33591C6.65892 6.92299 7.29098 6.88557 7.7039 7.25234L11.6641 10.7698C11.879 10.9608 12.0014 11.235 12 11.5225C11.9986 11.8099 11.8735 12.0829 11.6566 12.2717L7.65665 15.7542C7.24011 16.1169 6.60845 16.0732 6.24581 15.6566C5.88316 15.2401 5.92684 14.6084 6.34338 14.2458L9.48572 11.51L6.37573 8.74766C5.96281 8.38089 5.92539 7.74884 6.29215 7.33591ZM13 15C13 14.4477 13.4477 14 14 14H17C17.5523 14 18 14.4477 18 15C18 15.5523 17.5523 16 17 16H14C13.4477 16 13 15.5523 13 15Z" fill="#343434"/>
</svg>
