<svg width="20" height="19" viewBox="0 0 20 19" fill="none" xmlns="http://www.w3.org/2000/svg">
<path d="M16 13.1662C15.2711 13.1662 14.6667 13.7707 14.6667 14.4996C14.6667 15.2391 15.2711 15.8329 16 15.8329C16.7396 15.8329 17.3333 15.2284 17.3333 14.4996C17.3333 13.7707 16.7289 13.1662 16 13.1662ZM16 2.49956C15.2711 2.49956 14.6667 3.104 14.6667 3.83289C14.6667 4.57244 15.2711 5.16622 16 5.16622C16.7396 5.16622 17.3333 4.56178 17.3333 3.83289C17.3333 3.104 16.7289 2.49956 16 2.49956ZM20 15.2284C20 15.3849 18.656 15.5307 18.448 15.552C18.3644 15.7493 18.2596 15.9271 18.1351 16.0924C18.2293 16.3022 18.6667 17.344 18.6667 17.5307C18.6667 17.5627 18.656 17.5822 18.6258 17.6036C18.4996 17.6764 17.3849 18.3431 17.3333 18.3431C17.1982 18.3431 16.416 17.3013 16.3129 17.1449C16.208 17.1556 16.1049 17.1662 16 17.1662C15.8951 17.1662 15.792 17.1556 15.6871 17.1449C15.584 17.3013 14.8018 18.3431 14.6667 18.3431C14.6151 18.3431 13.5004 17.6764 13.3742 17.6036C13.344 17.5822 13.3333 17.552 13.3333 17.5307C13.3333 17.3529 13.7707 16.3022 13.8649 16.0924C13.7404 15.9271 13.6356 15.7493 13.552 15.552C13.344 15.5307 12 15.3849 12 15.2284V13.7707C12 13.6142 13.344 13.4684 13.552 13.4471C13.6356 13.2604 13.7404 13.072 13.8649 12.9067C13.7707 12.6969 13.3333 11.6462 13.3333 11.4684C13.3333 11.4471 13.344 11.4169 13.3742 11.3956C13.5004 11.3333 14.6151 10.6667 14.6667 10.6667C14.8018 10.6667 15.584 11.6978 15.6871 11.8542C15.792 11.8436 15.8951 11.8329 16 11.8329C16.1049 11.8329 16.208 11.8436 16.3129 11.8542C16.6044 11.4471 16.9173 11.0418 17.2711 10.6862L17.3333 10.6667C17.3849 10.6667 18.4996 11.3227 18.6258 11.3956C18.656 11.4169 18.6667 11.4471 18.6667 11.4684C18.6667 11.6551 18.2293 12.6969 18.1351 12.9067C18.2596 13.072 18.3644 13.2604 18.448 13.4471C18.656 13.4684 20 13.6142 20 13.7707V15.2284ZM20 4.56178C20 4.71822 18.656 4.864 18.448 4.88533C18.3644 5.08267 18.2596 5.26044 18.1351 5.42578C18.2293 5.63556 18.6667 6.67733 18.6667 6.864C18.6667 6.896 18.656 6.91556 18.6258 6.93689C18.4996 7.00978 17.3849 7.67644 17.3333 7.67644C17.1982 7.67644 16.416 6.63467 16.3129 6.47822C16.208 6.48889 16.1049 6.49956 16 6.49956C15.8951 6.49956 15.792 6.48889 15.6871 6.47822C15.584 6.63467 14.8018 7.67644 14.6667 7.67644C14.6151 7.67644 13.5004 7.00978 13.3742 6.93689C13.344 6.91556 13.3333 6.88533 13.3333 6.864C13.3333 6.68622 13.7707 5.63556 13.8649 5.42578C13.7404 5.26044 13.6356 5.08267 13.552 4.88533C13.344 4.864 12 4.71822 12 4.56178V3.104C12 2.94756 13.344 2.80178 13.552 2.78044C13.6356 2.59378 13.7404 2.40533 13.8649 2.24C13.7707 2.03022 13.3333 0.979556 13.3333 0.801778C13.3333 0.780445 13.344 0.750222 13.3742 0.728889C13.5004 0.666667 14.6151 0 14.6667 0C14.8018 0 15.584 1.03111 15.6871 1.18756C15.792 1.17689 15.8951 1.16622 16 1.16622C16.1049 1.16622 16.208 1.17689 16.3129 1.18756C16.6044 0.780444 16.9173 0.375111 17.2711 0.0195556L17.3333 0C17.3849 0 18.4996 0.656 18.6258 0.728889C18.656 0.750222 18.6667 0.780445 18.6667 0.801778C18.6667 0.988445 18.2293 2.03022 18.1351 2.24C18.2596 2.40533 18.3644 2.59378 18.448 2.78044C18.656 2.80178 20 2.94756 20 3.104V4.56178ZM6.66667 6.49956C5.19822 6.49956 4 7.69778 4 9.16622C4 10.6347 5.19822 11.8329 6.66667 11.8329C8.13511 11.8329 9.33333 10.6347 9.33333 9.16622C9.33333 7.69778 8.13511 6.49956 6.66667 6.49956ZM13.3333 10.1458C13.3333 10.2809 13.2284 10.4373 13.0933 10.4587L11.4791 10.7076C11.3956 10.9796 11.2818 11.2391 11.1467 11.5004C11.4382 11.9164 11.7493 12.3022 12.0836 12.6969C12.1244 12.7591 12.1564 12.8231 12.1564 12.9067C12.1564 12.9796 12.1351 13.0524 12.0836 13.104C11.8756 13.3849 10.7076 14.656 10.4071 14.656C10.3236 14.656 10.2507 14.624 10.1867 14.5831L8.99022 13.6462C8.72889 13.7813 8.46933 13.8844 8.18667 13.968C8.13511 14.4996 8.08356 15.072 7.94844 15.5822C7.90578 15.728 7.78133 15.8329 7.63556 15.8329H5.69778C5.552 15.8329 5.40622 15.7191 5.38489 15.5733L5.14667 13.9787C4.87467 13.8951 4.61511 13.7813 4.36444 13.6551L3.136 14.5831C3.08267 14.6347 3.00089 14.656 2.92622 14.656C2.84444 14.656 2.77156 14.624 2.70756 14.5724C2.43733 14.3218 1.20889 13.2071 1.20889 12.9067C1.20889 12.8338 1.23911 12.7698 1.28178 12.7076C1.584 12.3129 1.89511 11.9271 2.19733 11.52C2.05156 11.2391 1.92711 10.9582 1.83289 10.6667L0.250667 10.416C0.104889 10.3947 0 10.2596 0 10.1138V8.18667C0 8.05156 0.104889 7.89511 0.24 7.87378L1.85422 7.62489C1.93778 7.35289 2.05156 7.09333 2.18667 6.832C1.89511 6.416 1.584 6.03022 1.24978 5.63556C1.20889 5.57333 1.17689 5.50044 1.17689 5.42578C1.17689 5.35289 1.19822 5.28 1.24978 5.21778C1.45778 4.93689 2.62578 3.67644 2.92622 3.67644C3.00978 3.67644 3.08267 3.70844 3.14667 3.74933L4.34311 4.68622C4.60444 4.55111 4.864 4.448 5.14667 4.35378C5.19822 3.83289 5.24978 3.26044 5.38489 2.75022C5.42756 2.60444 5.552 2.49956 5.69778 2.49956H7.63556C7.78133 2.49956 7.92711 2.61333 7.94844 2.75911L8.18667 4.35378C8.45867 4.43733 8.71822 4.55111 8.96889 4.67733L10.1973 3.74933C10.2596 3.69778 10.3324 3.67644 10.4071 3.67644C10.4889 3.67644 10.5618 3.70844 10.6258 3.76C10.896 4.01067 12.1244 5.13422 12.1244 5.42578C12.1244 5.50044 12.0942 5.56267 12.0516 5.62489C11.7493 6.03022 11.4382 6.40533 11.1467 6.81244C11.2818 7.09333 11.4062 7.37422 11.5004 7.66578L13.0827 7.90578C13.2284 7.93778 13.3333 8.07289 13.3333 8.21867V10.1458Z" fill="#343434"/>
</svg>
