<svg width="24" height="24" viewBox="0 0 24 24" fill="none" xmlns="http://www.w3.org/2000/svg">
<path fill-rule="evenodd" clip-rule="evenodd" d="M6.75043 2C5.20317 2 4.00907 3.29028 4.00875 4.79917L4 19.198C4 20.7071 5.19421 21.9977 6.74168 21.9977H14.2553C13.7775 21.4186 13.416 20.7401 13.2064 19.9977H6.74168C6.36374 19.9977 6.00013 19.6684 6 19.198L6.00875 4.79977C6.00875 4.32917 6.37242 4 6.75043 4H12.877V8.79905C12.877 9.07519 13.1008 9.29905 13.377 9.29905H18.0034V13.0221C18.167 13.0075 18.3326 13 18.5 13C19.0213 13 19.5256 13.0725 20.0034 13.208V9.21152C20.0034 8.43031 19.6987 7.67991 19.154 7.11988L15.058 2.90837C14.4932 2.32763 13.7175 2 12.9074 2H6.75043ZM21.1889 18.262C21.1961 18.3425 21.1997 18.4195 21.1997 18.5C21.1997 18.5805 21.1961 18.6575 21.1853 18.738L21.8548 19.2315C21.9988 19.34 22.0384 19.5325 21.9484 19.6865L21.2753 20.817C21.1853 20.971 20.9909 21.034 20.8253 20.964L20.0514 20.6455C19.9182 20.7365 19.7779 20.817 19.6303 20.8835L19.5259 21.692C19.5043 21.867 19.3495 22 19.1695 22H17.8269C17.6469 22 17.4921 21.867 17.4705 21.692L17.3661 20.8835C17.2185 20.817 17.0782 20.7365 16.945 20.6455L16.1711 20.964C16.0055 21.034 15.8111 20.971 15.7211 20.817L15.048 19.6865C14.958 19.5325 14.9976 19.3365 15.1416 19.2315L15.8111 18.738C15.8039 18.6575 15.8003 18.5805 15.8003 18.5C15.8003 18.4195 15.8039 18.3425 15.8111 18.2655L15.1416 17.772C14.9976 17.6635 14.958 17.471 15.048 17.317L15.7211 16.183C15.8111 16.029 16.0055 15.966 16.1711 16.036L16.945 16.3545C17.0782 16.2635 17.2185 16.183 17.3661 16.1165L17.4705 15.308C17.4921 15.133 17.6469 15 17.8305 15H19.1731C19.3531 15 19.5079 15.133 19.5295 15.308L19.6339 16.1165C19.7815 16.183 19.9218 16.2635 20.055 16.3545L20.8289 16.036C20.9945 15.966 21.1889 16.029 21.2789 16.183L21.952 17.3135C22.042 17.4675 22.0024 17.6635 21.8584 17.7685L21.1889 18.262ZM17.2545 18.5C17.2545 19.1755 17.8197 19.725 18.5144 19.725C19.2091 19.725 19.7743 19.1755 19.7743 18.5C19.7743 17.8245 19.2091 17.275 18.5144 17.275C17.8197 17.275 17.2545 17.8245 17.2545 18.5Z" fill="#343434"/>
</svg>
