<svg width="24" height="24" viewBox="0 0 24 24" fill="none" xmlns="http://www.w3.org/2000/svg">
<path fill-rule="evenodd" clip-rule="evenodd" d="M4.12124 11.516C4.34384 10.6257 5.14379 10.0011 6.06151 10.0011H19.75C19.8881 10.0011 20 9.88918 20 9.75111V9C20 7.89543 19.1046 7 18 7H11.0704C10.4017 7 9.7772 6.6658 9.40627 6.1094L8.59373 4.8906C8.2228 4.3342 7.59834 4 6.92963 4H4C2.89543 4 2 4.89543 2 6V17.9694C2 18.2643 2.42102 18.3161 2.49253 18.0301L4.12124 11.516ZM4.54109 18.5603C4.26338 19.809 5.21329 20.9939 6.49258 20.9944L18.3953 20.9993C19.3328 20.9997 20.1448 20.3487 20.3484 19.4335L21.459 14.4401C21.7367 13.1916 20.7903 12.0068 19.5112 12.006C16.5112 12.0041 11.3999 12.0011 7.60314 12.0002C6.66581 12 5.85524 12.651 5.65176 13.5659L4.54109 18.5603Z" fill="#343434"/>
</svg>
