<svg width="24" height="24" viewBox="0 0 24 24" fill="none" xmlns="http://www.w3.org/2000/svg">
<path fill-rule="evenodd" clip-rule="evenodd" d="M13.8562 3.61019C16.4883 2.26037 19.1648 2 21 2C21.5523 2 22 2.44772 22 3L22 3.00759C21.9993 4.84255 21.7377 7.51531 20.3898 10.1438C19.8329 11.2298 19.0961 12.2969 18.1309 13.2875C19.1231 16.9576 17.7404 19.6738 16.7071 20.7071C16.3166 21.0976 15.6834 21.0976 15.2929 20.7071L11.3086 16.7229C11.2976 16.7124 11.2869 16.7016 11.2763 16.6905L7.30879 12.723C7.29844 12.7131 7.28832 12.703 7.27843 12.6927L3.29284 8.70711C2.90232 8.31658 2.90232 7.68342 3.29284 7.29289C4.32617 6.25957 7.04235 4.87687 10.7124 5.86906C11.7031 4.90386 12.7702 4.16708 13.8562 3.61019ZM9.21376 7.59869C7.60048 7.37186 6.34602 7.72747 5.54706 8.1329L7.65592 10.2418C8.12231 9.25011 8.6465 8.37322 9.21376 7.59869ZM13.7583 16.3441C14.7499 15.8777 15.6268 15.3535 16.4013 14.7862C16.6281 16.3995 16.2725 17.6539 15.8671 18.4529L13.7583 16.3441ZM9.17137 11.7572L12.2428 14.8286C15.6349 13.4136 17.535 11.3278 18.6102 9.23119C19.5385 7.42093 19.8737 5.55815 19.9684 4.03156C18.4418 4.12632 16.5791 4.46149 14.7688 5.38982C12.6722 6.46502 10.5864 8.36512 9.17137 11.7572ZM10.4472 18.1056C10.9411 18.3526 11.1414 18.9532 10.8944 19.4472L9.89438 21.4472C9.64739 21.9412 9.04671 22.1414 8.55274 21.8944C8.05876 21.6474 7.85853 21.0468 8.10552 20.5528L9.10552 18.5528C9.35251 18.0588 9.95319 17.8586 10.4472 18.1056ZM5.44719 14.8944C5.94117 14.6474 6.14139 14.0468 5.8944 13.5528C5.64741 13.0588 5.04674 12.8586 4.55276 13.1056L2.55276 14.1056C2.05878 14.3526 1.85856 14.9532 2.10555 15.4472C2.35254 15.9412 2.95321 16.1414 3.44719 15.8944L5.44719 14.8944ZM7.70708 16.2929C8.09761 16.6834 8.09761 17.3166 7.70708 17.7071L3.70708 21.7071C3.31656 22.0976 2.68339 22.0976 2.29287 21.7071C1.90234 21.3166 1.90234 20.6834 2.29287 20.2929L6.29287 16.2929C6.68339 15.9024 7.31656 15.9024 7.70708 16.2929ZM15.5 10C16.3284 10 17 9.32843 17 8.5C17 7.67157 16.3284 7 15.5 7C14.6715 7 14 7.67157 14 8.5C14 9.32843 14.6715 10 15.5 10Z" fill="#343434"/>
</svg>
