<svg width="24" height="24" viewBox="0 0 24 24" fill="none" xmlns="http://www.w3.org/2000/svg">
<path fill-rule="evenodd" clip-rule="evenodd" d="M19.7778 2H4.22222C3 2 2 3 2 4.22222V19.7778C2 21 3 22 4.22222 22H19.7778C21 22 22 21 22 19.7778V4.22222C22 3 21 2 19.7778 2ZM9 16.5C9 16.7761 8.77614 17 8.5 17H7.5C7.22386 17 7 16.7761 7 16.5V10.5C7 10.2239 7.22386 10 7.5 10H8.5C8.77614 10 9 10.2239 9 10.5V16.5ZM13 16.5C13 16.7761 12.7761 17 12.5 17H11.5C11.2239 17 11 16.7761 11 16.5V7.5C11 7.22386 11.2239 7 11.5 7H12.5C12.7761 7 13 7.22386 13 7.5V16.5ZM17 16.5C17 16.7761 16.7761 17 16.5 17H15.5C15.2239 17 15 16.7761 15 16.5V13.5C15 13.2239 15.2239 13 15.5 13H16.5C16.7761 13 17 13.2239 17 13.5V16.5Z" fill="#343434"/>
</svg>
