<svg width="24" height="24" viewBox="0 0 24 24" fill="none" xmlns="http://www.w3.org/2000/svg">
<path d="M19.4957 5.53C18.5314 4.54923 17.3229 4.03923 15.8571 4C14.4043 4.03923 13.1829 4.54923 12.2186 5.53C11.2543 6.51077 10.7657 7.74 10.7271 9.23077C10.7271 9.62308 10.7657 10.0023 10.8429 10.3946L3 18.3846V19.6923L4.28571 21H6.85714L8.14286 19.6923V18.3846H9.42857V17.0769H10.7143V15.7692H13.2857L14.6871 14.3177C15.0729 14.4223 15.4457 14.4615 15.8571 14.4615C17.3229 14.4223 18.5314 13.9123 19.4957 12.9315C20.46 11.9508 20.9614 10.7215 21 9.23077C20.9614 7.74 20.46 6.51077 19.4957 5.53ZM17.1429 9.72769C16.1529 9.72769 15.3686 8.93 15.3686 7.92308C15.3686 6.91615 16.1529 6.11846 17.1429 6.11846C18.1329 6.11846 18.9171 6.91615 18.9171 7.92308C18.9171 8.93 18.1329 9.72769 17.1429 9.72769Z" fill="#343434"/>
</svg>
