<svg width="24" height="24" viewBox="0 0 24 24" fill="none" xmlns="http://www.w3.org/2000/svg">
<path fill-rule="evenodd" clip-rule="evenodd" d="M14.1313 4.87868C13.5699 4.31726 12.8088 4.00133 12.015 4.00001L12.02 2H12.0193H12.0107H12.01L12.0115 2.00001L12.015 4.00001C11.2212 4.00133 10.4601 4.31726 9.8987 4.87868C9.33609 5.44129 9.02002 6.20436 9.02002 7V9H15.01V7C15.01 6.20436 14.6939 5.44129 14.1313 4.87868ZM17.01 9V7C17.01 6.41448 16.9073 5.83955 16.7119 5.29929C16.6996 5.2365 16.6811 5.17398 16.656 5.11251C16.2804 4.19117 15.6385 3.40284 14.8124 2.84838C13.9865 2.29405 13.014 1.99867 12.0193 2L12.015 2.00001L12.0115 2.00001C12.0112 2.00001 12.011 2 12.0107 2C11.016 1.99867 10.0435 2.29405 9.21763 2.84838C8.39149 3.40284 7.74957 4.19117 7.37398 5.11251C7.34892 5.17398 7.33041 5.2365 7.31815 5.29929C7.12272 5.83955 7.02002 6.41448 7.02002 7V9H6.92C5.30733 9 4 10.3073 4 11.92V19.11C4 20.7227 5.30733 22.03 6.92 22.03H17.1C18.7127 22.03 20.02 20.7227 20.02 19.11V11.92C20.02 10.3073 18.7127 9 17.1 9H17.01Z" fill="#343434"/>
</svg>
