<svg width="64" height="65" viewBox="0 0 64 65" xmlns="http://www.w3.org/2000/svg" xmlns:xlink="http://www.w3.org/1999/xlink">
    <path id="Path" fill="#161616" stroke="none" d="M 38.910999 32.49699 C 38.912796 36.623108 35.569374 39.969444 31.443256 39.971245 C 27.317137 39.973042 23.970798 36.629616 23.969 32.503498 C 23.967203 28.37738 27.310625 25.03104 31.436745 25.029243 C 35.562866 25.027447 38.909203 28.370872 38.910999 32.49699 Z"/>
    <path id="path1" fill="#161616" stroke="none" d="M 31.426329 1.124249 C 16.807329 1.130619 4.527688 11.135971 1.048585 24.669483 C 1.018637 24.788502 0.996691 24.913509 0.996747 25.042507 C 0.997107 25.867508 1.666398 26.536217 2.491398 26.535858 L 15.142398 26.530342 C 15.745398 26.530083 16.260241 26.17186 16.496016 25.656757 C 16.496016 25.656757 16.515001 25.62175 16.520994 25.604744 C 19.126541 19.975609 24.820839 16.068127 31.430838 16.065247 C 40.507835 16.061291 47.870045 23.415085 47.874001 32.493084 C 47.877956 41.571083 40.524158 48.931282 31.447163 48.935242 C 24.837162 48.938118 19.140461 45.035603 16.529009 39.409744 C 16.522001 39.391743 16.502987 39.35675 16.502987 39.35675 C 16.26141 38.825741 15.731987 38.484718 15.148606 38.484344 L 2.497607 38.489857 C 1.671607 38.490219 1.002899 39.159508 1.003258 39.984509 C 1.003315 40.113506 1.024369 40.238495 1.055421 40.357487 C 4.546317 53.887962 16.834673 63.88261 31.453672 63.87624 C 48.782673 63.86869 62.823551 49.814575 62.815998 32.486572 C 62.808449 15.158569 48.755329 1.116695 31.426329 1.124249 Z M 113.485199 39.819492 L 109.217194 39.82135 C 108.931267 39.821854 108.661865 39.955406 108.488358 40.182671 C 106.010948 43.847752 101.820007 46.259579 97.063004 46.26165 C 89.446007 46.264969 83.26931 40.092659 83.265991 32.476662 C 83.262672 24.859661 89.43399 18.681973 97.05098 18.678654 C 101.808983 18.676579 106.00103 21.086754 108.482628 24.748672 C 108.655823 24.975868 108.925102 25.109257 109.210785 25.109356 L 113.47879 25.107498 C 113.722786 25.107655 113.956856 25.01088 114.129494 24.838455 C 114.302147 24.666035 114.399223 24.432091 114.399384 24.188091 C 114.398743 24.04438 114.364067 23.902866 114.29821 23.775139 C 111.115463 17.477524 104.587578 13.158371 97.049576 13.161655 C 86.386574 13.166302 77.744347 21.815063 77.748993 32.479065 C 77.753639 43.142063 86.403404 51.784294 97.066406 51.779648 C 104.604408 51.776363 111.128525 47.451523 114.304779 41.151138 C 114.370735 41.02338 114.405617 40.881866 114.406601 40.738091 C 114.406227 40.494095 114.308937 40.260235 114.136139 40.087963 C 113.963356 39.915695 113.729195 39.819122 113.485199 39.819492 Z M 126.343773 6.714886 C 126.344666 8.746468 124.698456 10.394108 122.666878 10.394993 C 120.6353 10.395878 118.987663 8.749676 118.986778 6.71809 C 118.985893 4.686512 120.632088 3.038876 122.663666 3.037991 C 124.695244 3.037106 126.342888 4.683308 126.343773 6.714886 Z M 125.443604 49.928284 L 125.427979 14.069286 L 119.91098 14.071693 L 119.926605 49.929691 C 119.927376 50.437004 120.338684 50.847961 120.846001 50.848289 L 124.525002 50.846687 C 124.768646 50.846848 125.002357 50.750141 125.17466 50.577877 C 125.346954 50.405617 125.443703 50.171921 125.443604 49.928284 Z M 149.346588 13.162868 C 143.7827 13.427288 139.339859 16.088223 136.462631 20.149479 L 136.460373 14.983479 C 136.45961 14.476162 136.048294 14.065208 135.54097 14.06488 L 131.862976 14.066483 C 131.355652 14.067253 130.944702 14.478565 130.944366 14.985882 L 130.959595 49.924881 C 130.959824 50.432877 131.369995 50.843704 131.878998 50.843479 L 135.556992 50.841877 C 135.800812 50.842037 136.034683 50.745197 136.207016 50.57272 C 136.379333 50.400242 136.475967 50.16629 136.475601 49.922478 L 136.467987 32.454479 C 136.464813 25.146481 142.148209 19.166004 149.332993 18.688873 C 149.577423 18.688766 149.811813 18.591492 149.984482 18.418476 C 150.15715 18.245468 150.253967 18.01091 150.253586 17.766472 L 150.251984 14.080475 C 150.250732 13.578949 149.848053 13.170822 149.346588 13.162868 Z M 185.995193 39.787895 L 181.727188 39.789757 C 181.441147 39.789795 181.171555 39.923447 180.998337 40.151073 C 178.52095 43.816154 174.330002 46.227982 169.57399 46.230057 C 161.955994 46.233376 155.779312 40.061066 155.775986 32.445065 C 155.772675 24.828064 161.94397 18.650375 169.561966 18.647057 C 174.317978 18.644985 178.511032 21.055157 180.991623 24.717079 C 181.165131 24.944431 181.434784 25.077816 181.720779 25.077759 L 185.988785 25.075901 C 186.232773 25.076057 186.466843 24.979282 186.639496 24.806858 C 186.812134 24.634441 186.909225 24.400497 186.909378 24.156498 C 186.90889 24.01265 186.873856 23.871025 186.807205 23.743542 C 183.625458 17.44593 177.09758 13.126774 169.560577 13.130058 C 158.896576 13.134705 150.255341 21.78347 150.259979 32.447468 C 150.264633 43.110466 158.913406 51.752697 169.577408 51.748051 C 177.114395 51.744766 183.638519 47.419926 186.814774 41.119541 C 186.880722 40.991783 186.915604 40.850273 186.91658 40.706493 C 186.916214 40.462498 186.818939 40.228638 186.646149 40.056366 C 186.473343 39.884098 186.239182 39.787529 185.995193 39.787895 Z M 197.011749 2.086098 L 193.333771 2.0877 C 192.826447 2.08847 192.415497 2.499775 192.415161 3.007092 L 192.435593 49.899094 C 192.435806 50.407089 192.847 50.817913 193.354996 50.817692 L 197.03299 50.81609 C 197.54071 50.815868 197.952255 50.404404 197.952606 49.89669 L 197.932175 3.004688 C 197.931381 2.496983 197.51947 2.085869 197.011749 2.086098 Z M 222.762558 13.107876 C 212.098557 13.112522 203.457336 21.761284 203.46199 32.425285 C 203.466629 43.088284 212.115387 51.730515 222.779388 51.725868 C 230.317398 51.722584 236.839508 47.397743 240.016769 41.097359 C 240.163498 40.813019 240.150665 40.472618 239.982956 40.200134 C 239.815247 39.927643 239.517136 39.762825 239.197189 39.765713 L 234.930191 39.76757 C 234.636627 39.767555 234.360947 39.908707 234.189362 40.146896 C 231.710938 43.80098 227.526001 46.206802 222.776993 46.20887 C 215.783997 46.211918 210.007721 41.00843 209.104782 34.262825 L 241.135773 34.248871 C 241.624924 34.2477 242.027618 33.863983 242.052399 33.375469 C 242.068253 33.055462 242.078125 32.73246 242.077988 32.409458 C 242.073334 21.744457 233.425568 13.10323 222.762558 13.107876 Z M 209.477386 28.744663 C 211.084839 22.913963 216.421967 18.627636 222.764969 18.624874 C 229.107971 18.622108 234.44783 22.903782 236.061386 28.733078 L 209.477386 28.744663 Z M 295.46936 1.124187 C 292.422394 1.125515 289.95343 3.596638 289.954773 6.643589 C 289.956085 9.690548 292.427185 12.159512 295.474152 12.158184 C 298.521118 12.156857 300.990082 9.685741 300.98877 6.638783 C 300.987427 3.591831 298.516327 1.12286 295.46936 1.124187 Z M 300.072968 13.993187 L 300.088593 49.851185 C 300.088257 50.358501 299.677307 50.769814 299.169983 50.770584 L 291.813995 50.773788 C 291.57019 50.774162 291.336212 50.677525 291.163757 50.505196 C 290.991241 50.33287 290.89444 50.099003 290.894592 49.85519 L 290.878967 13.997192 L 300.072968 13.993187 Z M 266.9104 51.706638 C 275.924377 51.702709 283.483704 45.523422 285.610077 37.174492 C 285.624756 37.113224 285.632446 37.050484 285.632996 36.98748 C 285.632782 36.479771 285.221313 36.068211 284.713593 36.067883 L 276.93158 36.071274 C 276.572571 36.072151 276.246918 36.282024 276.097809 36.608635 L 276.095795 36.607635 C 274.498322 40.088333 270.988403 42.508862 266.906403 42.510639 C 261.322388 42.513073 256.791412 37.988045 256.788971 32.40205 C 256.78656 26.816051 261.313568 22.287075 266.897583 22.284645 C 270.851471 22.282639 274.443695 24.585751 276.092133 28.179634 L 276.094147 28.177635 C 276.243439 28.504333 276.569183 28.714279 276.928375 28.715271 L 284.710388 28.71188 C 285.218109 28.711109 285.629211 28.299191 285.628998 27.791481 C 285.627686 27.729572 285.62027 27.66795 285.606903 27.607491 C 283.47525 19.258419 275.907562 13.084717 266.893585 13.088646 C 256.232574 13.093292 247.589325 21.743057 247.593979 32.406055 C 247.599625 43.070053 256.24939 51.711285 266.9104 51.706638 Z"/>
</svg>
