<svg width="24" height="24" viewBox="0 0 24 24" fill="none" xmlns="http://www.w3.org/2000/svg">
<path fill-rule="evenodd" clip-rule="evenodd" d="M9.5 8C8.39543 8 7.5 7.10457 7.5 6C7.5 4.89543 8.39543 4 9.5 4C10.6046 4 11.5 4.89543 11.5 6C11.5 7.10457 10.6046 8 9.5 8ZM14.5 8C15.6046 8 16.5 7.10457 16.5 6C16.5 4.89543 15.6046 4 14.5 4C13.3954 4 12.5 4.89543 12.5 6C12.5 7.10457 13.3954 8 14.5 8ZM12 16C13.933 16 15.5 14.433 15.5 12.5C15.5 10.567 13.933 9 12 9C10.067 9 8.5 10.567 8.5 12.5C8.5 14.433 10.067 16 12 16ZM16.5 18.5C16.5 19.6046 15.6046 20.5 14.5 20.5C13.3954 20.5 12.5 19.6046 12.5 18.5C12.5 17.3954 13.3954 16.5 14.5 16.5C15.6046 16.5 16.5 17.3954 16.5 18.5ZM18.5 12C19.6046 12 20.5 11.1046 20.5 10C20.5 8.89543 19.6046 8 18.5 8C17.3954 8 16.5 8.89543 16.5 10C16.5 11.1046 17.3954 12 18.5 12ZM20.5 15C20.5 16.1046 19.6046 17 18.5 17C17.3954 17 16.5 16.1046 16.5 15C16.5 13.8954 17.3954 13 18.5 13C19.6046 13 20.5 13.8954 20.5 15ZM7.5 18.5C7.5 19.6046 8.39543 20.5 9.5 20.5C10.6046 20.5 11.5 19.6046 11.5 18.5C11.5 17.3954 10.6046 16.5 9.5 16.5C8.39543 16.5 7.5 17.3954 7.5 18.5ZM5.5 12C4.39543 12 3.5 11.1046 3.5 10C3.5 8.89543 4.39543 8 5.5 8C6.60457 8 7.5 8.89543 7.5 10C7.5 11.1046 6.60457 12 5.5 12ZM3.5 15C3.5 16.1046 4.39543 17 5.5 17C6.60457 17 7.5 16.1046 7.5 15C7.5 13.8954 6.60457 13 5.5 13C4.39543 13 3.5 13.8954 3.5 15Z" fill="#343434"/>
</svg>
