<svg width="24" height="24" viewBox="0 0 24 24" fill="none" xmlns="http://www.w3.org/2000/svg">
<path fill-rule="evenodd" clip-rule="evenodd" d="M4.00003 5.5C4.00003 4.67157 4.6716 4 5.50003 4C6.32846 4 7.00003 4.67157 7.00003 5.5C7.00003 6.32843 6.32846 7 5.50003 7C4.6716 7 4.00003 6.32843 4.00003 5.5ZM5.50003 2C3.56703 2 2.00003 3.567 2.00003 5.5C2.00003 7.433 3.56703 9 5.50003 9C7.08839 9 8.42964 7.94195 8.8574 6.49219H17.7501C18.9927 6.49219 20.0001 7.49955 20.0001 8.74219C20.0001 9.98483 18.9927 10.9922 17.7501 10.9922H15.0001C14.9511 10.9922 14.9029 10.9957 14.8558 11.0025C14.4264 9.55547 13.0865 8.5 11.5 8.5C9.91738 8.5 8.58007 9.55046 8.1473 10.9922H6.25098C3.90323 10.9922 2 12.8954 2 15.2432C2 17.5899 3.90167 19.4927 6.24842 19.4941L15.1447 19.4995C15.5746 20.9458 16.9141 22.0006 18.5 22.0006C20.433 22.0006 22 20.4336 22 18.5006C22 16.5676 20.433 15.0006 18.5 15.0006C16.9149 15.0006 15.5759 16.0543 15.1453 17.4995L6.24962 17.4941C5.00697 17.4934 4 16.4858 4 15.2432C4 14 5.0078 12.9922 6.25098 12.9922H8.14265C8.57042 14.4419 9.91166 15.5 11.5 15.5C13.0919 15.5 14.4356 14.4372 14.8602 12.9825C14.9059 12.9889 14.9526 12.9922 15.0001 12.9922H17.7501C20.0973 12.9922 22.0001 11.0894 22.0001 8.74219C22.0001 6.39498 20.0973 4.49219 17.7501 4.49219H8.85275C8.41999 3.05046 7.08268 2 5.50003 2ZM17 18.5006C17 19.329 17.6716 20.0006 18.5 20.0006C19.3285 20.0006 20 19.329 20 18.5006C20 17.6721 19.3285 17.0006 18.5 17.0006C17.6716 17.0006 17 17.6721 17 18.5006ZM11.5 10.5C10.6716 10.5 10 11.1716 10 12C10 12.8284 10.6716 13.5 11.5 13.5C12.3285 13.5 13 12.8284 13 12C13 11.1716 12.3285 10.5 11.5 10.5Z" fill="#343434"/>
</svg>
