<svg width="24" height="24" viewBox="0 0 24 24" fill="none" xmlns="http://www.w3.org/2000/svg">
<path fill-rule="evenodd" clip-rule="evenodd" d="M2 5C2 3.34315 3.34315 2 5 2H19C20.6569 2 22 3.34315 22 5V19C22 20.6569 20.6569 22 19 22H5C3.34315 22 2 20.6569 2 19V5ZM5 4C4.44772 4 4 4.44772 4 5V19C4 19.5523 4.44772 20 5 20H19C19.5523 20 20 19.5523 20 19V5C20 4.44772 19.5523 4 19 4H5ZM12.2917 10.992C10.7361 10.608 10.5417 10.224 10.5417 9.84C10.5417 9.264 11.125 8.88 12 8.88C12.875 8.88 13.3611 9.264 13.3611 10.032V10.224H15.3056V9.936C15.3056 8.688 14.4306 7.728 13.2639 7.344V6H10.8333V7.44C9.47222 7.728 8.59722 8.688 8.59722 9.936C8.59722 11.856 10.4444 12.528 11.8056 12.816C13.5556 13.2 13.5556 13.872 13.5556 14.16C13.5556 14.352 13.4583 15.024 12.0972 15.024C11.0278 15.024 10.4444 14.64 10.4444 13.872V13.68H8.5V13.968C8.59722 15.312 9.47222 16.272 10.8333 16.56V18H13.2639V16.56C14.7222 16.272 15.5 15.312 15.5 14.064C15.5 12.144 13.9444 11.472 12.2917 10.992Z" fill="#343434"/>
</svg>
