<svg width="16" height="20" viewBox="0 0 16 20" fill="none" xmlns="http://www.w3.org/2000/svg">
<path fill-rule="evenodd" clip-rule="evenodd" d="M13 20C15 20 16 18.5 16 17V3C16 1.5 15 0 13 0H7.05761H3C1 0 0 1.5 0 3V17C0 18.5 1 20 3 20H13ZM13 2H3C2.5 2 2 2.5 2 3V17C2 17.5 2.5 18 3 18H13C13.5 18 14 17.5 14 17V3C14 2.5 13.5 2 13 2ZM9 5C9 4.44772 8.55228 4 8 4H5C4.44772 4 4 4.44772 4 5V10.9597C4 11.3789 4.48497 11.612 4.81235 11.3501L6.5 10L8.18765 11.3501C8.51503 11.612 9 11.3789 9 10.9597V5Z" fill="#343434"/>
</svg>
