<svg width="24" height="24" viewBox="0 0 24 24" fill="none" xmlns="http://www.w3.org/2000/svg">
<path fill-rule="evenodd" clip-rule="evenodd" d="M3.5 2C2.67157 2 2 2.67157 2 3.5V5.5C2 6.32843 2.67157 7 3.5 7H20.5C21.3284 7 22 6.32843 22 5.5V3.5C22 2.67157 21.3284 2 20.5 2H3.5ZM4 5V4H7V5H4ZM9 5H20V4H9V5Z" fill="#343434"/>
<path fill-rule="evenodd" clip-rule="evenodd" d="M20.5 21C21.3284 21 22 20.3284 22 19.5V17.5C22 16.6716 21.3284 16 20.5 16L3.5 16C2.67157 16 2 16.6716 2 17.5V19.5C2 20.3284 2.67157 21 3.5 21L20.5 21ZM20 18V19L9 19V18L20 18ZM7 18V19H4V18H7Z" fill="#343434"/>
<path fill-rule="evenodd" clip-rule="evenodd" d="M2 10.5C2 9.67157 2.67157 9 3.5 9H20.5C21.3284 9 22 9.67157 22 10.5V12.5C22 13.3284 21.3284 14 20.5 14H3.5C2.67157 14 2 13.3284 2 12.5V10.5ZM4 11V12H7V11H4ZM20 12H9V11H20V12Z" fill="#343434"/>
</svg>
