<svg width="24" height="24" viewBox="0 0 24 24" fill="none" xmlns="http://www.w3.org/2000/svg">
<path fill-rule="evenodd" clip-rule="evenodd" d="M17.1367 3.89655C17.0961 3.8073 17.0071 3.75 16.9091 3.75C16.8111 3.75 16.7221 3.8073 16.6815 3.89655L15.7544 5.9362L13.7147 6.86332C13.6255 6.90389 13.5682 6.99287 13.5682 7.09091C13.5682 7.18895 13.6255 7.27793 13.7147 7.3185L15.7544 8.24562L16.6815 10.2853C16.7221 10.3745 16.8111 10.4318 16.9091 10.4318C17.0071 10.4318 17.0961 10.3745 17.1367 10.2853L18.0638 8.24562L20.1035 7.3185C20.1927 7.27793 20.25 7.18895 20.25 7.09091C20.25 6.99287 20.1927 6.90389 20.1035 6.86332L18.0638 5.9362L17.1367 3.89655ZM9.40941 6.21473C9.36884 6.12548 9.27985 6.06818 9.18182 6.06818C9.08378 6.06818 8.99479 6.12548 8.95423 6.21473L7.0612 10.3794L2.89655 12.2724C2.8073 12.313 2.75 12.402 2.75 12.5C2.75 12.598 2.8073 12.687 2.89655 12.7276L7.0612 14.6206L8.95423 18.7853C8.99479 18.8745 9.08378 18.9318 9.18182 18.9318C9.27985 18.9318 9.36884 18.8745 9.40941 18.7853L11.3024 14.6206L15.4671 12.7276C15.5563 12.687 15.6136 12.598 15.6136 12.5C15.6136 12.402 15.5563 12.313 15.4671 12.2724L11.3024 10.3794L9.40941 6.21473ZM17.1367 14.7147C17.0961 14.6255 17.0071 14.5682 16.9091 14.5682C16.8111 14.5682 16.7221 14.6255 16.6815 14.7147L15.7544 16.7544L13.7147 17.6815C13.6255 17.7221 13.5682 17.8111 13.5682 17.9091C13.5682 18.0071 13.6255 18.0961 13.7147 18.1367L15.7544 19.0638L16.6815 21.1035C16.7221 21.1927 16.8111 21.25 16.9091 21.25C17.0071 21.25 17.0961 21.1927 17.1367 21.1035L18.0638 19.0638L20.1035 18.1367C20.1927 18.0961 20.25 18.0071 20.25 17.9091C20.25 17.8111 20.1927 17.7221 20.1035 17.6815L18.0638 16.7544L17.1367 14.7147Z" fill="#343434"/>
</svg>
