<svg width="24" height="24" viewBox="0 0 24 24" fill="none" xmlns="http://www.w3.org/2000/svg">
<path d="M2 17C1.99974 16.126 2.22859 15.2672 2.66373 14.5092C3.09888 13.7512 3.72511 13.1205 4.48 12.68C4.63204 12.5874 4.80604 12.5371 4.98402 12.5343C5.16201 12.5314 5.33752 12.5761 5.49245 12.6638C5.64738 12.7514 5.7761 12.8789 5.86532 13.0329C5.95455 13.1869 6.00104 13.362 6 13.54C5.99895 13.7145 5.95224 13.8857 5.86453 14.0366C5.77681 14.1874 5.65114 14.3127 5.5 14.4C4.88115 14.7551 4.40913 15.3192 4.16866 15.9909C3.92819 16.6627 3.93502 17.3982 4.18793 18.0654C4.44083 18.7325 4.92324 19.2877 5.54858 19.6313C6.17392 19.9749 6.90124 20.0843 7.6 19.94C8.29003 19.782 8.90489 19.3919 9.34175 18.8349C9.77861 18.2779 10.011 17.5878 10 16.88C9.99866 16.764 10.0205 16.649 10.0643 16.5416C10.108 16.4343 10.1728 16.3367 10.2548 16.2547C10.3367 16.1728 10.4343 16.108 10.5417 16.0642C10.649 16.0205 10.7641 15.9986 10.88 16H15.88C16.0197 15.8409 16.1921 15.7139 16.3854 15.6276C16.5787 15.5413 16.7883 15.4978 17 15.5C17.2501 15.5003 17.4962 15.5632 17.7158 15.6829C17.9355 15.8026 18.1217 15.9753 18.2575 16.1853C18.3934 16.3953 18.4745 16.636 18.4936 16.8854C18.5128 17.1348 18.4692 17.385 18.3669 17.6133C18.2647 17.8415 18.107 18.0406 17.9081 18.1923C17.7093 18.3441 17.4757 18.4437 17.2285 18.4822C16.9814 18.5206 16.7285 18.4966 16.493 18.4124C16.2575 18.3282 16.0468 18.1864 15.88 18H11.88C11.6142 19.1949 10.9193 20.2509 9.92692 20.9677C8.93455 21.6845 7.71371 22.0123 6.49577 21.889C5.27783 21.7657 4.14743 21.1999 3.31881 20.2988C2.4902 19.3977 2.02095 18.224 2 17ZM16.37 7.99998C16.5253 8.00494 16.6796 7.97365 16.8206 7.90859C16.9617 7.84353 17.0857 7.7465 17.1828 7.62519C17.2798 7.50388 17.3473 7.36162 17.3798 7.2097C17.4123 7.05779 17.4089 6.90039 17.37 6.74998C17.1765 6.00055 16.8117 5.30626 16.3043 4.7218C15.7969 4.13733 15.1607 3.67864 14.4459 3.38186C13.731 3.08508 12.9571 2.95831 12.1849 3.01153C11.4127 3.06475 10.6635 3.29651 9.9961 3.68855C9.32873 4.0806 8.7615 4.62223 8.33906 5.27078C7.91663 5.91934 7.65053 6.65711 7.56172 7.426C7.47291 8.19489 7.56382 8.9739 7.82728 9.70167C8.09075 10.4295 8.51958 11.0861 9.08 11.62L6.7 15.52C6.36037 15.5912 6.05565 15.7773 5.8371 16.0468C5.61855 16.3164 5.4995 16.653 5.5 17C5.5 17.3978 5.65804 17.7793 5.93934 18.0606C6.22064 18.3419 6.60218 18.5 7 18.5C7.39782 18.5 7.77936 18.3419 8.06066 18.0606C8.34196 17.7793 8.5 17.3978 8.5 17C8.50271 16.8471 8.47903 16.6948 8.43 16.55L11.29 11.8C11.3499 11.703 11.3899 11.5951 11.4078 11.4826C11.4256 11.37 11.4209 11.255 11.3939 11.1443C11.367 11.0336 11.3182 10.9293 11.2506 10.8376C11.183 10.7459 11.0978 10.6685 11 10.61C10.4221 10.2825 9.96918 9.77246 9.71234 9.15985C9.4555 8.54724 9.40925 7.86672 9.58084 7.22499C9.75242 6.58327 10.1321 6.01664 10.6604 5.61397C11.1887 5.21129 11.8357 4.99534 12.5 4.99998C13.156 5.00028 13.7938 5.21559 14.3158 5.61293C14.8377 6.01027 15.2151 6.56775 15.39 7.19998C15.4361 7.42586 15.5588 7.62886 15.7374 7.77465C15.916 7.92043 16.1395 8.00003 16.37 7.99998ZM17 14C16.6275 13.9998 16.2581 14.0675 15.91 14.2C15.7105 14.2692 15.493 14.2661 15.2955 14.1911C15.0981 14.1162 14.9333 13.9742 14.83 13.79L12.23 9.46999C11.9493 9.41862 11.6891 9.28825 11.4799 9.09419C11.2707 8.90013 11.1212 8.65041 11.0489 8.37436C10.9766 8.09831 10.9846 7.80737 11.0719 7.53569C11.1592 7.26401 11.3221 7.02287 11.5417 6.84055C11.7612 6.65824 12.0281 6.54233 12.3112 6.50641C12.5943 6.4705 12.8818 6.51608 13.1399 6.6378C13.398 6.75953 13.616 6.95234 13.7683 7.19362C13.9207 7.4349 14.001 7.71463 14 7.99998C14.0004 8.14543 13.9802 8.2902 13.94 8.42998L16.13 12.08C16.4171 12.0277 16.7082 12.0009 17 12C17.7619 11.9995 18.5139 12.1731 19.1984 12.5076C19.883 12.8421 20.482 13.3286 20.9499 13.93C21.4177 14.5314 21.7418 15.2317 21.8976 15.9776C22.0534 16.7234 22.0367 17.4949 21.8488 18.2333C21.6609 18.9717 21.3067 19.6573 20.8133 20.2379C20.3199 20.8185 19.7003 21.2786 19.0019 21.5832C18.3035 21.8877 17.5448 22.0286 16.7836 21.9952C16.0224 21.9617 15.279 21.7547 14.61 21.39C14.4091 21.2871 14.249 21.1194 14.1555 20.9139C14.0621 20.7085 14.0409 20.4776 14.0953 20.2586C14.1498 20.0396 14.2767 19.8454 14.4555 19.7077C14.6343 19.57 14.8544 19.4968 15.08 19.5C15.2527 19.5036 15.4215 19.5518 15.57 19.64C16.0093 19.8771 16.5008 20.0008 17 20C17.7956 20 18.5587 19.6839 19.1213 19.1213C19.6839 18.5587 20 17.7956 20 17C20 16.2043 19.6839 15.4413 19.1213 14.8787C18.5587 14.3161 17.7956 14 17 14Z" fill="#343434"/>
</svg>
