<svg width="24" height="24" viewBox="0 0 24 24" fill="none" xmlns="http://www.w3.org/2000/svg">
<path fill-rule="evenodd" clip-rule="evenodd" d="M3 5H17C18.1046 5 19 5.89543 19 7V10.5V13.5V17C19 18.1046 18.1046 19 17 19H3C1.89543 19 1 18.1046 1 17V7C1 5.89543 1.89543 5 3 5ZM20 14V17C20 18.6569 18.6569 20 17 20H3C1.34315 20 0 18.6569 0 17V7C0 5.34315 1.34315 4 3 4H17C18.6569 4 20 5.34315 20 7V10L22.5528 8.72361C23.2177 8.39116 24 8.87465 24 9.61803V14.382C24 15.1253 23.2177 15.6088 22.5528 15.2764L20 14ZM20 12.882L23 14.382V9.61803L20 11.118V12.882ZM4 10.5C4 10.2239 4.22386 10 4.5 10H15.5C15.7761 10 16 10.2239 16 10.5C16 10.7761 15.7761 11 15.5 11H4.5C4.22386 11 4 10.7761 4 10.5ZM4.5 13C4.22386 13 4 13.2239 4 13.5C4 13.7761 4.22386 14 4.5 14H15.5C15.7761 14 16 13.7761 16 13.5C16 13.2239 15.7761 13 15.5 13H4.5Z" fill="black"/>
</svg>
