<svg fill="none" height="25" viewBox="0 0 116 25" width="116" xmlns="http://www.w3.org/2000/svg"><path d="m8.87876 12.6691c0-1.5781 1.30334-2.87304 2.89174-2.87304s2.8917 1.29494 2.8917 2.87304c0 1.5782-1.3033 2.8731-2.8917 2.8731-1.6292 0-2.89174-1.2544-2.89174-2.8731zm2.89174-12.018362c-5.66126 0-10.42647 3.844272-11.7705 9.064382v.1214c0 .32368.24437.56648.570196.56648h4.887394c.24437 0 .44801-.1214.52947-.3237 1.0182-2.18515 3.21753-3.68239 5.78344-3.68239 3.5026 0 6.3536 2.83262 6.3536 6.31269 0 3.4801-2.851 6.3127-6.3536 6.3127-2.56591 0-4.76524-1.4972-5.78344-3.6824-.08146-.2023-.2851-.3237-.52947-.3237h-4.887394c-.325826-.0405-.570196.2023-.570196.526v.1214c1.34403 5.2201 6.10924 9.0644 11.7705 9.0644 6.6794 0 12.0963-5.382 12.0963-12.0184 0-6.67688-5.4169-12.058862-12.0963-12.058862zm31.6458 14.851062h-1.6291c-.1222 0-.2036.0404-.2851.1214-.9367 1.4163-2.5659 2.347-4.3986 2.347-2.9732 0-5.3354-2.347-5.3354-5.3011 0-2.95398 2.4029-5.301 5.3354-5.301 1.8327 0 3.4619.93071 4.3986 2.34702.0815.08094.1629.1214.2851.1214h1.6291c.2037 0 .3666-.16186.3666-.36419 0-.04047 0-.1214-.0407-.16187-1.2219-2.42796-3.747-4.08706-6.6387-4.08706-4.1136 0-7.4533 3.31821-7.4533 7.4053 0 4.168 3.3397 7.4457 7.4533 7.4457 2.8917 0 5.4168-1.6591 6.6387-4.087.0407-.0405.0407-.081.0407-.1619 0-.1619-.1629-.3237-.3666-.3237zm4.9689-12.70636c0 .76885-.6517 1.41631-1.4255 1.41631s-1.4255-.64746-1.4255-1.41631c0-.76886.6517-1.41631 1.4255-1.41631.8146.04046 1.4255.64745 1.4255 1.41631zm-.3258 16.59106v-13.75844h-2.1179v13.75844c0 .2023.1629.3642.3665.3642h1.4255c.163 0 .3259-.1619.3259-.3642zm9.2046-14.08217c-2.1586.08093-3.8692 1.13305-4.9689 2.67076v-1.98284c0-.20233-.1629-.36419-.3665-.36419h-1.4255c-.2037 0-.3666.16186-.3666.36419v13.39425c0 .2023.1629.3642.3666.3642h1.4255c.2036 0 .3665-.1619.3665-.3642v-6.7174c0-2.79211 2.1993-5.09867 4.9689-5.26054.2036 0 .3665-.16186.3665-.36419v-1.41631c0-.16187-.1629-.32373-.3665-.32373zm14.1734 10.19747h-1.6291c-.1222 0-.2037.0404-.2851.1214-.9368 1.4163-2.5659 2.347-4.3987 2.347-2.9324 0-5.3354-2.3875-5.3354-5.3011 0-2.91351 2.403-5.301 5.3354-5.301 1.8328 0 3.4619.93071 4.3987 2.34702.0814.08094.1629.1214.2851.1214h1.6291c.2036 0 .3666-.16186.3666-.36419 0-.04047-.0001-.1214-.0408-.16187-1.2218-2.42796-3.747-4.08706-6.6387-4.08706-4.1135 0-7.4533 3.31821-7.4533 7.4053 0 4.087 3.3398 7.4053 7.4533 7.4053 2.8917 0 5.4169-1.6592 6.6387-4.0871.0407-.0405.0408-.0809.0408-.1619-.0408-.1214-.163-.2832-.3666-.2832zm4.2357-14.4464h-1.4254c-.2037 0-.3666.16186-.3666.36419v18.00741c0 .2023.1629.3642.3666.3642h1.4254c.2037 0 .3666-.1619.3666-.3642v-18.00741c0-.20233-.1629-.36419-.3666-.36419zm9.9377 4.20846c-4.1135 0-7.4532 3.31822-7.4532 7.40524 0 4.0871 3.3397 7.4053 7.4532 7.4053 2.8917 0 5.4169-1.6591 6.6387-4.087.0408-.0405.0408-.081.0408-.1619 0-.2023-.1629-.3642-.3666-.3642h-1.6291c-.1222 0-.2036.0405-.2851.1619-.9775 1.4163-2.5659 2.3065-4.3987 2.3065-2.688 0-4.9281-1.9828-5.2946-4.5726h12.3814c.2036 0 .3258-.1619.3665-.3238 0-.1214 0-.2428 0-.3642 0-4.08702-3.3397-7.40524-7.4533-7.40524zm-5.1317 6.02944c.6109-2.22563 2.688-3.88474 5.1317-3.88474s4.5209 1.65911 5.1318 3.88474zm33.2339-10.602096c-1.181 0-2.118.930716-2.118 2.104236 0 1.17351.937 2.10423 2.118 2.10423s2.118-.93072 2.118-2.10423c0-1.13305-.937-2.104236-2.118-2.104236zm1.752 4.936856v13.75844c0 .2023-.163.3642-.367.3642h-2.851c-.204 0-.366-.1619-.366-.3642v-13.75844zm-12.789 14.44634c3.462 0 6.394-2.3875 7.209-5.5843 0-.0405 0-.0405 0-.0809 0-.2023-.163-.3642-.367-.3642h-3.014c-.162 0-.285.0809-.325.2023-.611 1.3354-1.955 2.2661-3.544 2.2661-2.158 0-3.9097-1.74-3.9097-3.8847s1.7517-3.88476 3.9097-3.88476c1.589 0 2.933.93072 3.544 2.26606.04.1214.163.2024.325.2024h3.014c.204 0 .367-.1619.367-.3642 0-.0405 0-.0405 0-.081-.815-3.19677-3.747-5.58427-7.209-5.58427-4.1136 0-7.4533 3.31821-7.4533 7.40527 0 4.2085 3.3397 7.4862 7.4533 7.4862z" fill="currentColor"/></svg>