{% if include.size %}
  {% assign size = include.size %}
{% else %}
  {% assign size = 12 %}
{% endif %}

<svg viewBox="0 0 {{size}} {{size}}" fill="currentColor" xmlns="http://www.w3.org/2000/svg" class="css-bleycz"><path viewBox="0 0 {{size}} {{size}}" fill-rule="evenodd" d="M17,19 L5,19 L5,7 L10,7 L10,5.00083798 L4.44085883,5.00083798 C4.05495161,4.9876138 3.68075435,5.13139282 3.4077085,5.39780868 C3.13466265,5.66422454 2.98730555,6.02933568 3.00085883,6.40587245 L3.00085883,19.5941275 C2.98730555,19.9706643 3.13466265,20.3357755 3.4077085,20.6021913 C3.68075435,20.8686072 4.05495161,21.0123862 4.44085883,20.999162 L17.56,20.999162 C18.35529,20.999162 19,20.3701067 19,19.5941275 L19,14 L17,14 L17,19 Z M17.5857864,5 L14,5 C13.4477153,5 13,4.55228475 13,4 C13,3.44771525 13.4477153,3 14,3 L20,3 C20.5522847,3 21,3.44771525 21,4 L21,10 C21,10.5522847 20.5522847,11 20,11 C19.4477153,11 19,10.5522847 19,10 L19,6.41421356 L14.8786797,10.5355339 C14.4881554,10.9260582 13.8549904,10.9260582 13.4644661,10.5355339 C13.0739418,10.1450096 13.0739418,9.51184464 13.4644661,9.12132034 L17.5857864,5 Z"></path></svg>
