<svg xmlns="http://www.w3.org/2000/svg" xmlns:xlink="http://www.w3.org/1999/xlink" id="Layer_1" x="0" y="0" version="1.1" viewBox="0 0 1405.3 240" xml:space="preserve" style="enable-background:new 0 0 1405.3 240"><style type="text/css">.st0{font-family:&quot;Roboto&quot;}.st1{font-size:220px}</style><path d="M93.5,120c0-13.2,10.7-23.9,23.9-23.9s23.9,10.7,23.9,23.9s-10.7,23.9-23.9,23.9S93.5,133.2,93.5,120z M117.4,19.6	c-46.9,0-86.2,32.1-97.3,75.5c-0.1,0.3-0.1,0.6-0.1,1c0,2.6,2.1,4.8,4.8,4.8h40.5c1.9,0,3.6-1.2,4.3-2.8l0,0	c8.3-18.1,26.6-30.7,47.8-30.7c29,0,52.6,23.6,52.6,52.6s-23.6,52.6-52.6,52.6c-21.2,0-39.5-12.6-47.8-30.7l0,0	c-0.8-1.6-2.4-2.8-4.3-2.8H24.8c-2.6,0-4.8,2.1-4.8,4.8c0,0.3,0.1,0.6,0.1,1c11.1,43.4,50.4,75.5,97.3,75.5	c55.4,0,100.4-45,100.4-100.4S172.8,19.6,117.4,19.6z M379.9,143.5h-13.7c-1,0-1.8,0.5-2.3,1.2c-7.9,11.7-21.3,19.4-36.6,19.4	c-24.4,0-44.1-19.8-44.1-44.1s19.8-44.1,44.1-44.1c15.2,0,28.6,7.7,36.6,19.4c0.5,0.7,1.4,1.2,2.3,1.2h13.7c1.6,0,3-1.3,3-2.9	c0-0.5-0.1-0.9-0.3-1.3c-10.2-20.2-31.1-34-55.2-34c-34.1,0-61.8,27.7-61.8,61.8s27.7,61.8,61.8,61.8c24.1,0,45-13.8,55.2-34	c0.2-0.4,0.3-0.8,0.3-1.3C382.9,144.9,381.6,143.5,379.9,143.5z M421.1,37.6c0,6.5-5.3,11.8-11.8,11.8s-11.8-5.3-11.8-11.8	s5.3-11.8,11.8-11.8C415.9,25.8,421.1,31.1,421.1,37.6z M418.2,175.9V61.2h-17.7v114.7c0,1.6,1.3,2.9,2.9,2.9h11.8	C416.9,178.8,418.2,177.5,418.2,175.9z M494.7,58.3c-17.8,0.8-32,9.3-41.2,22.3V64.1c0-1.6-1.3-2.9-2.9-2.9h-11.8	c-1.6,0-2.9,1.3-2.9,2.9l0,0v111.8c0,1.6,1.3,2.9,2.9,2.9h11.8c1.6,0,2.9-1.3,2.9-2.9V120c0-23.4,18.2-42.5,41.2-44	c1.6,0,3-1.3,3-2.9V61.2C497.6,59.6,496.3,58.3,494.7,58.3z M612,143.5h-13.7c-1,0-1.8,0.5-2.3,1.2c-7.9,11.7-21.3,19.4-36.6,19.4	c-24.4,0-44.1-19.8-44.1-44.1s19.8-44.1,44.1-44.1c15.2,0,28.6,7.7,36.6,19.4c0.5,0.7,1.4,1.2,2.3,1.2H612c1.6,0,2.9-1.3,2.9-2.9	c0-0.5-0.1-0.9-0.3-1.3c-10.2-20.2-31.1-34-55.2-34c-34.1,0-61.8,27.7-61.8,61.8s27.7,61.8,61.8,61.8c24.1,0,45-13.8,55.2-34	c0.2-0.4,0.3-0.8,0.3-1.3C614.9,144.9,613.6,143.5,612,143.5z M647.3,22.9h-11.8c-1.6,0-2.9,1.3-2.9,2.9v150.1	c0,1.6,1.3,2.9,2.9,2.9h11.8c1.6,0,2.9-1.3,2.9-2.9V25.8C650.2,24.2,648.9,22.9,647.3,22.9z M729.7,58.2	c-34.1,0-61.8,27.7-61.8,61.8s27.7,61.8,61.8,61.8c24.1,0,45-13.8,55.2-34c0.2-0.4,0.3-0.8,0.3-1.3c0-1.6-1.3-2.9-2.9-2.9h-13.7	c-1,0-1.8,0.5-2.4,1.2c-7.9,11.7-21.3,19.4-36.5,19.4c-22.4,0-40.9-16.7-43.7-38.3h102.5c1.6,0,2.9-1.2,2.9-2.8	c0.1-1,0.1-2.1,0.1-3.1C791.4,85.9,763.8,58.2,729.7,58.2z M687.1,108.2c5.2-18.7,22.2-32.4,42.5-32.4s37.4,13.7,42.5,32.4H687.1z M962.3,20c-9.7,0-17.7,7.9-17.7,17.7s7.9,17.7,17.7,17.7S980,47.5,980,37.7S972.1,20,962.3,20z M977.1,61.2v114.7	c0,1.6-1.3,2.9-2.9,2.9h-23.5c-1.6,0-2.9-1.3-2.9-2.9V61.2H977.1z M870.9,181.8c28.8,0,53-19.8,59.9-46.5c0-0.2,0.1-0.4,0.1-0.6	c0-1.6-1.3-2.9-2.9-2.9h-25c-1.2,0-2.2,0.7-2.7,1.7l0,0c-5.1,11.1-16.4,18.9-29.4,18.9c-17.9,0-32.4-14.5-32.4-32.4	s14.5-32.4,32.4-32.4c13.1,0,24.3,7.7,29.4,18.9l0,0c0.5,1,1.5,1.7,2.7,1.7h24.9c1.6,0,2.9-1.3,2.9-2.9c0-0.2,0-0.4-0.1-0.6	c-6.8-26.7-31-46.5-59.9-46.5c-34.1,0-61.8,27.7-61.8,61.8C809.1,154.1,836.8,181.8,870.9,181.8z"/><text class="st0 st1" transform="matrix(1 0 0 1 1054.6477 178.2783)">API</text></svg>