<svg xmlns="http://www.w3.org/2000/svg" xmlns:xlink="http://www.w3.org/1999/xlink" width="100%" height="100%" version="1.1" viewBox="0 0 18 18" xml:space="preserve" style="fill-rule:evenodd;clip-rule:evenodd"><g transform="matrix(1,0,0,1,-3,-3)"><g id="Version-10"><g id="Icons-actions-new-window"><path id="New-window" d="M17,19L5,19L5,7L10,7L10,5.001L4.441,5.001C4.055,4.988 3.681,5.131 3.408,5.398C3.135,5.664 2.987,6.029 3.001,6.406L3.001,19.594C2.987,19.971 3.135,20.336 3.408,20.602C3.681,20.869 4.055,21.012 4.441,20.999L17.56,20.999C18.355,20.999 19,20.37 19,19.594L19,14L17,14L17,19ZM17.586,5L14,5C13.448,5 13,4.552 13,4C13,3.448 13.448,3 14,3L20,3C20.552,3 21,3.448 21,4L21,10C21,10.552 20.552,11 20,11C19.448,11 19,10.552 19,10L19,6.414L14.879,10.536C14.488,10.926 13.855,10.926 13.464,10.536C13.074,10.145 13.074,9.512 13.464,9.121L17.586,5Z" style="fill:#7f7f7f;stroke:#7f7f7f;stroke-width:1px"/></g></g></g></svg>