<svg width="270" height="57" viewBox="0 0 270 57" fill="none" xmlns="http://www.w3.org/2000/svg">
<path fill-rule="evenodd" clip-rule="evenodd" d="M239.314 45.7059C247.425 45.7059 254.231 40.1366 256.148 32.608C256.16 32.5536 256.169 32.4969 256.169 32.4395C256.169 31.9815 255.798 31.6109 255.343 31.6109H248.337C248.004 31.6109 247.718 31.8082 247.588 32.0948L247.586 32.0937C246.146 35.2321 242.986 37.4139 239.314 37.4139C234.288 37.4139 230.21 33.3311 230.21 28.2935C230.21 23.2569 234.288 19.173 239.314 19.173C242.986 19.173 246.146 21.3547 247.586 24.4937L247.588 24.4923C247.718 24.7766 248.004 24.977 248.337 24.977H255.343C255.798 24.977 256.169 24.6056 256.169 24.1474C256.169 24.0899 256.16 24.0369 256.148 23.9817C254.233 16.453 247.425 10.882 239.314 10.882C229.719 10.882 221.935 18.6798 221.935 28.2935C221.935 37.9101 229.719 45.7059 239.314 45.7059ZM269.172 11.7107V44.0469C269.172 44.504 268.801 44.8754 268.347 44.8754H261.726C261.27 44.8754 260.899 44.504 260.899 44.0469V11.7107H269.172ZM265.035 0.103096C262.294 0.103096 260.071 2.33132 260.071 5.07807C260.071 7.82566 262.294 10.053 265.035 10.053C267.779 10.053 270 7.82566 270 5.07807C270 2.33132 267.779 0.103096 265.035 0.103096ZM187.629 24.9773C189.08 19.7202 193.886 15.8572 199.595 15.8572C205.303 15.8572 210.105 19.7202 211.556 24.9773H187.629ZM199.595 10.882C189.996 10.882 182.215 18.677 182.215 28.2935C182.215 37.909 189.996 45.7059 199.595 45.7059C206.379 45.7059 212.25 41.808 215.112 36.1277C215.169 36.0147 215.201 35.8901 215.201 35.7552C215.201 35.2964 214.831 34.9267 214.374 34.9267H210.533C210.26 34.9267 210.017 35.0608 209.868 35.2676C207.633 38.5631 203.867 40.7304 199.595 40.7304C193.299 40.7304 188.104 36.0356 187.294 29.9511H216.121C216.565 29.9511 216.924 29.6017 216.947 29.164C216.962 28.8758 216.97 28.5852 216.97 28.2935C216.97 18.677 209.191 10.882 199.595 10.882ZM176.423 0.932344H173.114C172.655 0.932344 172.286 1.30376 172.286 1.76113V44.047C172.286 44.5041 172.655 44.8755 173.114 44.8755H176.423C176.88 44.8755 177.252 44.5041 177.252 44.047V1.76113C177.252 1.30376 176.88 0.932344 176.423 0.932344ZM166.493 34.9267H162.651C162.384 34.9267 162.147 35.0549 161.998 35.2521C159.767 38.5563 155.993 40.7304 151.714 40.7304C144.856 40.7304 139.3 35.1622 139.3 28.2935C139.3 21.4246 144.856 15.857 151.714 15.857C155.993 15.857 159.767 18.0314 161.998 21.3347C162.149 21.5328 162.386 21.6607 162.651 21.6607H166.493C166.951 21.6607 167.322 21.2887 167.322 20.8317C167.322 20.6967 167.287 20.5713 167.23 20.4591C164.37 14.7794 158.495 10.882 151.714 10.882C142.116 10.882 134.336 18.677 134.336 28.2935C134.336 37.909 142.116 45.7059 151.714 45.7059C158.495 45.7059 164.37 41.808 167.23 36.1277C167.287 36.0147 167.322 35.8901 167.322 35.7552C167.322 35.2964 166.951 34.9267 166.493 34.9267ZM133.52 10.9026C128.512 11.1393 124.513 13.5363 121.922 17.1978V12.539C121.922 12.0836 121.551 11.7113 121.095 11.7113H117.785C117.328 11.7113 116.958 12.0836 116.958 12.539V44.0475C116.958 44.5046 117.328 44.876 117.785 44.876H121.095C121.551 44.876 121.922 44.5046 121.922 44.0475V28.2941C121.922 21.7044 127.039 16.3129 133.506 15.8863C133.964 15.8863 134.336 15.5143 134.336 15.0555V11.7316C134.336 11.2771 133.971 10.9113 133.52 10.9026ZM111.992 44.0469V11.7107H107.027V44.0469C107.027 44.504 107.398 44.8754 107.855 44.8754H111.164C111.621 44.8754 111.992 44.504 111.992 44.0469ZM112.819 5.07871C112.819 6.91044 111.338 8.39526 109.51 8.39526C107.682 8.39526 106.2 6.91044 106.2 5.07871C106.2 3.24698 107.682 1.76159 109.51 1.76159C111.338 1.76159 112.819 3.24698 112.819 5.07871ZM101.234 34.9267H97.3934C97.1245 34.9267 96.8897 35.0549 96.7372 35.2521C94.5078 38.5563 90.7351 40.7304 86.4539 40.7304C79.5976 40.7304 74.0409 35.1622 74.0409 28.2935C74.0409 21.4246 79.5976 15.857 86.4539 15.857C90.7351 15.857 94.5078 18.0314 96.7389 21.3347C96.8897 21.5328 97.1268 21.6607 97.3934 21.6607H101.234C101.692 21.6607 102.064 21.2887 102.064 20.8317C102.064 20.6967 102.028 20.5713 101.973 20.4591C99.1113 14.7794 93.2365 10.882 86.4539 10.882C76.8562 10.882 69.0749 18.677 69.0749 28.2935C69.0749 37.909 76.8562 45.7059 86.4539 45.7059C93.2365 45.7059 99.1113 41.808 101.973 36.1277C102.028 36.0147 102.064 35.8901 102.064 35.7552C102.064 35.2964 101.692 34.9267 101.234 34.9267ZM27.3915 0C14.2102 0 3.14859 9.04901 0.0354375 21.283C0.0143438 21.372 0 21.4628 0 21.5575C0 22.3014 0.602156 22.9045 1.34494 22.9045H12.726C13.268 22.9045 13.7318 22.5804 13.9458 22.1177L13.9478 22.1182C16.2861 17.0179 21.4223 13.4722 27.3915 13.4722C35.5582 13.4722 42.1822 20.1093 42.1822 28.2937C42.1822 36.4784 35.5582 43.1155 27.3915 43.1155C21.4223 43.1155 16.2861 39.5698 13.9478 34.468L13.9458 34.4708C13.7318 34.0073 13.268 33.6838 12.726 33.6838H1.34494C0.602156 33.6838 0 34.2851 0 35.0311C0 35.1232 0.0143437 35.2111 0.0334688 35.2993C3.14578 47.5342 14.2076 56.5868 27.3915 56.5868C42.9851 56.5868 55.6287 43.9178 55.6287 28.2937C55.6287 12.6679 42.9851 0 27.3915 0ZM20.6677 28.2938C20.6677 24.5743 23.6787 21.5575 27.3915 21.5575C31.104 21.5575 34.1139 24.5743 34.1139 28.2938C34.1139 32.0136 31.104 35.0312 27.3915 35.0312C23.6787 35.0312 20.6677 32.0136 20.6677 28.2938Z" fill="#161616"/>
</svg>
