<svg width="10" height="16" viewBox="0 0 10 16" fill="none" xmlns="http://www.w3.org/2000/svg">
<mask id="mask0" mask-type="alpha" maskUnits="userSpaceOnUse" x="0" y="0" width="10" height="16">
<path d="M8.79297 15.5L8.29297 15.5C7.74068 15.5 7.29297 15.0523 7.29297 14.5L7.29297 1.5C7.29297 0.947715 7.74069 0.5 8.29297 0.5L8.79297 0.5C9.34525 0.5 9.79297 0.947715 9.79297 1.5L9.79297 14.5C9.79297 15.0523 9.34525 15.5 8.79297 15.5ZM3.95964 5.04044L3.95964 10.9596C3.95964 11.2357 3.73578 11.4596 3.45964 11.4596C3.32703 11.4596 3.19985 11.4069 3.10608 11.3131L0.146523 8.35355C-0.048739 8.15829 -0.048739 7.84171 0.146523 7.64645L3.10608 4.68689C3.30135 4.49162 3.61793 4.49162 3.81319 4.68689C3.90696 4.78065 3.95964 4.90783 3.95964 5.04044Z" fill="white"/>
</mask>
<g mask="url(#mask0)">
<path d="M8.79297 15.5L8.29297 15.5C7.74068 15.5 7.29297 15.0523 7.29297 14.5L7.29297 1.5C7.29297 0.947715 7.74069 0.5 8.29297 0.5L8.79297 0.5C9.34525 0.5 9.79297 0.947715 9.79297 1.5L9.79297 14.5C9.79297 15.0523 9.34525 15.5 8.79297 15.5ZM3.95964 5.04044L3.95964 10.9596C3.95964 11.2357 3.73578 11.4596 3.45964 11.4596C3.32703 11.4596 3.19985 11.4069 3.10608 11.3131L0.146523 8.35355C-0.048739 8.15829 -0.048739 7.84171 0.146523 7.64645L3.10608 4.68689C3.30135 4.49162 3.61793 4.49162 3.81319 4.68689C3.90696 4.78065 3.95964 4.90783 3.95964 5.04044Z" fill="black"/>
<path d="M-5.20703 18L14.793 18L14.793 -2L-5.20703 -2L-5.20703 18Z" fill="#343434"/>
</g>
</svg>
