<?xml version="1.0" encoding="UTF-8"?>
<svg width="10px" height="16px" viewBox="0 0 10 16" version="1.1" xmlns="http://www.w3.org/2000/svg" xmlns:xlink="http://www.w3.org/1999/xlink">
    <!-- Generator: sketchtool 55.1 (78136) - https://sketchapp.com -->
    <title>B60C3039-6B4E-430F-9AE8-4A23FEEB883A</title>
    <desc>Created with sketchtool.</desc>
    <defs>
        <path d="M6,2.5 L6.5,2.5 C7.05228475,2.5 7.5,2.94771525 7.5,3.5 L7.5,16.5 C7.5,17.0522847 7.05228475,17.5 6.5,17.5 L6,17.5 C5.44771525,17.5 5,17.0522847 5,16.5 L5,3.5 C5,2.94771525 5.44771525,2.5 6,2.5 Z M10.8333333,12.9595599 L10.8333333,7.04044011 C10.8333333,6.76429774 11.057191,6.54044011 11.3333333,6.54044011 C11.4659416,6.54044011 11.5931185,6.59311853 11.6868867,6.68688672 L14.6464466,9.64644661 C14.8417088,9.84170876 14.8417088,10.1582912 14.6464466,10.3535534 L11.6868867,13.3131133 C11.4916246,13.5083754 11.1750421,13.5083754 10.9797799,13.3131133 C10.8860118,13.2193451 10.8333333,13.0921681 10.8333333,12.9595599 Z" id="path-1"></path>
    </defs>
    <g id="Page-3" stroke="none" stroke-width="1" fill="none" fill-rule="evenodd">
        <g id="empty-select" transform="translate(-1423.000000, -92.000000)">
            <g id="Info-Bar-Copy" transform="translate(1104.000000, 62.000000)">
                <g id="Group" transform="translate(312.000000, 26.000000)">
                    <g id="navigation/collapse" transform="translate(2.000000, 2.000000)">
                        <mask id="mask-2" fill="white">
                            <use xlink:href="#path-1"></use>
                        </mask>
                        <use id="Expand" fill="#000000" fill-rule="nonzero" xlink:href="#path-1"></use>
                        <g id="↳-🎨-Color" mask="url(#mask-2)" fill="#343434">
                            <rect id="Path" x="0" y="0" width="20" height="20"></rect>
                        </g>
                    </g>
                </g>
            </g>
        </g>
    </g>
</svg>