<svg viewBox="0 0 24 24" fill="currentColor" xmlns="http://www.w3.org/2000/svg" class="css-bleycz"><path d="M9,11.5857864 L6.70710678,9.29289322 C6.31658249,8.90236893 5.68341751,8.90236893 5.29289322,9.29289322 C4.90236893,9.68341751 4.90236893,10.3165825 5.29289322,10.7071068 L9.16660509,14.5808186 C9.34575005,14.833476 9.65213169,15 10,15 C10.3478683,15 10.6542499,14.833476 10.8333949,14.5808186 L14.7071068,10.7071068 C15.0976311,10.3165825 15.0976311,9.68341751 14.7071068,9.29289322 C14.3165825,8.90236893 13.6834175,8.90236893 13.2928932,9.29289322 L11,11.5857864 L11,0.9375 C11,0.419733047 10.5522847,0 10,0 C9.44771525,0 9,0.419733047 9,0.9375 L9,11.5857864 Z M0,16 C0,15.4477153 0.44771525,15 1,15 C1.55228475,15 2,15.4477153 2,16 L2,17 C2,17.5522847 2.44771525,18 3,18 L17,18 C17.5522847,18 18,17.5522847 18,17 L18,16 C18,15.4477153 18.4477153,15 19,15 C19.5522847,15 20,15.4477153 20,16 L20,17 C20,18.6568542 18.6568542,20 17,20 L3,20 C1.34314575,20 0,18.6568542 0,17 L0,16 Z"></path></svg>
