<?xml version="1.0" encoding="UTF-8"?>
<svg width="328px" height="342px" viewBox="0 0 328 342" version="1.1" xmlns="http://www.w3.org/2000/svg" xmlns:xlink="http://www.w3.org/1999/xlink">
    <!-- Generator: Sketch 62 (91390) - https://sketch.com -->
    <title>Group 53</title>
    <desc>Created with Sketch.</desc>
    <defs>
        <polygon id="path-1" points="0.385051765 0.256492683 208.926891 0.256492683 208.926891 34 0.385051765 34"></polygon>
        <polyline id="path-3" points="0.39947907 243.644269 0 102.160418 174.96774 0.778828283 175.367219 142.263502"></polyline>
    </defs>
    <g id="Page-3" stroke="none" stroke-width="1" fill="none" fill-rule="evenodd">
        <g id="empty-select" transform="translate(-556.000000, -311.000000)">
            <g id="Group-53" transform="translate(556.000000, 308.000000)">
                <g id="Group-3" transform="translate(116.000000, 311.000000)">
                    <mask id="mask-2" fill="white">
                        <use xlink:href="#path-1"></use>
                    </mask>
                    <g id="Clip-2"></g>
                    <path d="M208.926891,17.1279561 C208.926891,7.81029756 162.243667,0.256492683 104.655562,0.256492683 C47.0682753,0.256492683 0.385051765,7.81029756 0.385051765,17.1279561 C0.385051765,26.4464439 47.0682753,34.0002488 104.655562,34.0002488 C162.243667,34.0002488 208.926891,26.4464439 208.926891,17.1279561" id="Fill-1" fill="#D5EAFA" mask="url(#mask-2)"></path>
                </g>
                <path d="M289,289.5 C289,285.357351 285.642649,282 281.5,282 C277.358161,282 274,285.357351 274,289.5 C274,293.642649 277.358161,297 281.5,297 C285.642649,297 289,293.642649 289,289.5" id="Fill-4" fill="#D5EAFA"></path>
                <g id="Group-8">
                    <mask id="mask-4" fill="white">
                        <use xlink:href="#path-3"></use>
                    </mask>
                    <g id="Clip-7"></g>
                    <path d="M167.854474,4.90078519 L7.11817674,98.0356673 C3.18805581,100.313001 0.0102325581,105.837095 0.0232898902,110.363829 L0.376967442,235.441351 C0.389246512,239.973836 3.58753488,241.796853 7.51847442,239.519519 L168.253953,146.384637 C172.184893,144.107304 175.356986,138.592246 175.343929,134.059762 L174.99107,8.98223973 C174.977972,4.45550572 171.784595,2.62345185 167.854474,4.90078519" id="Fill-6" fill="#D5EAFA" mask="url(#mask-4)"></path>
                </g>
                <path d="M328,99 C328,88.5062796 319.49372,80 309,80 C298.50628,80 290,88.5062796 290,99 C290,109.49372 298.50628,118 309,118 C319.49372,118 328,109.49372 328,99" id="Fill-9" fill="#87C5F5"></path>
                <path d="M153,177.5 C153,173.357351 149.641839,170 145.5,170 C141.357351,170 138,173.357351 138,177.5 C138,181.642649 141.357351,185 145.5,185 C149.641839,185 153,181.642649 153,177.5" id="Fill-11" fill="#87C5F5"></path>
                <path d="M186.2439,327.297205 C190.63364,329.117364 195.535706,326.975046 200.115738,325.685597 C206.17745,323.979047 212.542491,323.827299 218.794495,323.220309 C221.853813,322.935478 225.653971,321.798589 225.976818,318.76445 C226.148407,317.266451 225.331125,315.863395 224.722839,314.479003 C224.361771,313.626133 224.058442,312.772452 223.848632,311.881442 C222.575949,306.894873 223.525785,301.433585 225.292904,296.54196 C225.483196,295.991773 225.692193,295.384783 225.464492,294.854073 C225.217274,294.285223 224.590285,294.019867 224.020221,293.82998 C221.758667,293.052578 216.210095,291.15614 213.91032,292.426924 C211.725209,293.640093 211.193366,299.006437 210.224825,301.24451 C206.234375,310.383443 197.645188,317.399534 187.878464,319.466384 C187.497879,319.541852 187.099404,319.636795 186.700115,319.731739 C185.350989,320.053898 184.040085,320.547281 183.374875,321.68417 C182.177821,323.75102 184.040085,326.38672 186.2439,327.297205" id="Fill-13" fill="#F8A88D"></path>
                <path d="M204.392353,92 C207.494896,89.872703 211.46192,88.9652378 215.218196,89.5250949 C215.438035,89.5579335 215.690106,89.5875683 215.859531,89.4474038 C216.159538,89.2015151 215.922343,88.7337661 215.67523,88.4382192 C213.19584,85.469935 210.71645,82.5024518 208.236234,79.5349685 C208.089123,79.3579607 207.934575,79.1761473 207.722174,79.0808355 C207.44035,78.953486 207.111417,79.0023433 206.803973,79.0536035 C204.601448,79.4236378 197.399647,78.1189063 198.040156,81.2305588 C198.247598,82.2373406 204.688227,91.826196 204.392353,92" id="Fill-15" fill="#F8A88D"></path>
                <path d="M186.2439,327.302374 C190.63364,329.109145 195.535706,326.982585 200.115738,325.702621 C206.17745,324.008622 212.542491,323.857991 218.794495,323.255465 C221.853813,322.972729 225.653971,321.844202 225.976818,318.832381 C226.148407,317.3454 225.331125,315.952664 224.722839,314.578454 C224.361771,313.731858 224.058442,312.884456 223.848632,312 C222.898796,312.809543 222.024589,314.803999 221.017827,315.46291 C219.763848,316.310312 218.319577,316.818593 216.894009,317.326873 C210.661522,319.491292 204.352593,321.467221 197.872888,322.671467 C196.087066,322.992062 194.263023,323.274798 192.457683,323.06778 C190.671048,322.87929 188.866522,322.163992 187.668655,320.80831 C187.384029,320.450661 187.099404,320.036626 186.700115,319.792555 C185.350989,320.112345 184.040085,320.602098 183.374875,321.730625 C182.177821,323.782272 184.040085,326.398586 186.2439,327.302374" id="Fill-17" fill="#343333"></path>
                <path d="M193,318.484173 C193.883004,318.023382 194.766007,317.56342 195.649011,317.102629 C195.758127,317.046273 195.875637,316.987431 195.997344,317.002349 C196.147589,317.019753 196.260063,317.142409 196.357428,317.257607 C197.483845,318.591912 198.518772,320.002464 199.452138,321.475172 C199.691354,321.852258 199.928892,322.248406 199.988487,322.690136 C200.097603,323.495691 199.416045,324.166988 198.583403,323.963113 C197.920311,323.801504 197.618982,322.9081 197.258898,322.406699 C196.126605,320.829567 194.680393,319.481173 193,318.484173" id="Fill-19" fill="#343333"></path>
                <path d="M212.519119,298 L224.555138,298 C226.214423,298 227.678498,296.924697 228.159078,295.347475 C231.8995,283.070615 242.709667,215.067737 243,165 L199,173.774936 L208.761326,294.515327 C208.896981,296.476996 210.538895,298 212.519119,298" id="Fill-21" fill="#161617"></path>
                <path d="M236.17385,335.610065 C240.681179,333.839704 242.751285,328.80245 245.190165,324.61894 C248.418801,319.082014 252.974195,314.468322 257.122694,309.602313 C259.162138,307.230527 261.137772,303.708834 259.220976,301.257629 C258.282882,300.038231 256.687624,299.588196 255.259764,299.004142 C254.389624,298.634352 253.560918,298.224026 252.775306,297.718563 C248.301954,294.964577 245.120554,290.290495 242.941887,285.455923 C242.691618,284.919024 242.413173,284.326697 241.869543,284.098371 C241.284477,283.85598 240.637258,284.105816 240.084511,284.369715 C237.87684,285.398841 232.465394,287.9336 231.683925,290.490695 C230.944719,292.925354 234.364786,297.233782 235.243214,299.559241 C238.809134,309.078651 237.498122,320.293966 231.810716,328.715587 C231.586137,329.039877 231.361558,329.391467 231.136979,329.743885 C230.377056,330.933501 229.767129,332.222389 230.087009,333.526168 C230.677876,335.8872 233.913142,336.501863 236.17385,335.610065" id="Fill-23" fill="#F8A88D"></path>
                <path d="M236.17385,335.612931 C240.681179,333.855586 242.751285,328.855365 245.190165,324.702611 C248.418801,319.206391 252.974195,314.626619 257.122694,309.796384 C259.162138,307.442034 261.137772,303.946231 259.220976,301.513048 C258.282882,300.302615 256.687624,299.855888 255.259764,299.276128 C254.389624,298.909056 253.560918,298.501747 252.775306,298 C252.658458,299.259704 253.4449,301.335671 253.178056,302.525574 C252.865634,304.026708 252.171179,305.412875 251.489984,306.785904 C248.472667,312.746917 245.265577,318.624168 241.380606,324.055514 C240.300803,325.54433 239.166306,327.031504 237.696182,328.1475 C236.253406,329.263496 234.419481,330.006672 232.573125,329.853931 C232.10905,329.791521 231.60354,329.688872 231.136979,329.789878 C230.377056,330.970748 229.767129,332.250161 230.087009,333.544356 C230.677876,335.88803 233.913142,336.498173 236.17385,335.612931" id="Fill-25" fill="#343333"></path>
                <path d="M198.15361,180.074573 L255,178 C255,178 251.248335,206.388812 236.432966,222.727407 C231.780901,227.857738 230.302498,235.08885 232.733247,241.557456 L250.20364,288.049848 C250.967166,290.079375 249.833421,292.325942 247.739909,292.933654 L234.258649,296.850199 C232.767053,297.282641 231.162495,296.759288 230.220043,295.532399 L208.297124,266.998621 C194.527275,249.076044 189.129,226.159913 193.462792,204.02922 L198.15361,180.074573 Z" id="Fill-27" fill="#343333"></path>
                <path d="M110.269353,118.359119 C108.888021,117.606486 107.819474,116.376573 106.861467,115.113284 C106.187586,114.223808 105.551371,113.304294 104.956915,112.358079 C104.432058,111.522839 103.920302,110.589975 104.010371,109.602039 C104.105353,108.569046 104.935626,107.6512 105.938668,107.472638 C106.547863,107.364165 107.169339,107.503511 107.775259,107.63034 C109.488209,107.9883 111.221629,108.244462 112.964056,108.397993 C112.969788,107.75717 112.351587,107.330789 111.859482,106.931109 C111.368196,106.532263 110.924401,105.798821 111.319067,105.299847 C111.617114,104.922696 112.186187,104.971092 112.651271,105.072055 C116.508684,105.907294 120.10244,107.964102 122.808607,110.886188 C123.630692,111.772326 124.374171,112.738567 125.267493,113.548775 C126.649644,114.802885 128.339667,115.641462 130.015771,116.440822 C132.206906,117.484663 134.415236,118.488452 136.64158,119.45219 C137.083737,119.643268 137.555371,119.85771 137.805108,120.276582 C138.07941,120.738008 138.011448,121.322091 137.918104,121.852773 C137.526713,124.058105 136.825812,126.206698 135.844059,128.213442 C135.728607,128.448744 135.600872,128.69239 135.388801,128.842583 C134.9491,129.153816 134.343999,128.950221 133.873184,128.691556 C132.986413,128.205098 132.196261,127.557599 131.41266,126.913439 C129.897862,125.670175 128.383883,124.426912 126.869085,123.183649 C125.626131,122.163171 124.384816,120.834799 123.010853,120.012075 C120.747662,118.657002 117.325037,119.398788 114.837493,119.350392 C113.269472,119.319519 111.672793,119.124268 110.269353,118.359119" id="Fill-29" fill="#F8A88D"></path>
                <polygon id="Fill-31" fill="#DF8C77" points="198 82 206 82 202.383181 89"></polygon>
                <path d="M248.621538,141.093336 C250.324402,153.634486 256.742323,165.843192 258.969083,178.346675 C259.177329,179.511865 258.30827,180.593535 257.124381,180.638571 C238.979898,181.324748 216.335984,182.329448 198.573559,182.988604 C197.556923,183.025451 196.409929,183.014806 195.699924,182.287688 C195.04731,181.619525 195.002217,180.585347 195,179.652704 C194.956304,156.797613 197.459359,133.938429 202.447432,111.632771 C203.255821,108.01847 194.941547,97.9640971 196.932184,94.8402733 C202.33429,86.3629607 231.165743,84.9553976 237.999337,95.2447737 C246.210308,107.609057 246.69239,126.882599 248.621538,141.093336" id="Fill-33" fill="#AED8F7"></path>
                <path d="M198.568791,146.973 C203.881857,145.883483 217,129 217,129 L197.950917,138.690582 L197.012207,145.511728 C196.891586,146.390422 197.683417,147.154854 198.568791,146.973" id="Fill-35" fill="#87C5F5"></path>
                <path d="M235,323.796688 C235.294029,322.976781 235.588059,322.156875 235.882088,321.336968 C235.917848,321.236202 235.959171,321.128911 236.052148,321.064391 C236.166581,320.986098 236.324721,320.995522 236.466968,321.009296 C238.123863,321.171682 239.768043,321.437735 241.385205,321.803104 C241.79923,321.896621 242.225175,322.003188 242.559733,322.244592 C243.171632,322.68608 243.154944,323.517586 242.451657,323.88948 C241.893002,324.185255 241.092765,323.804662 240.513448,323.70607 C238.69126,323.394346 236.807883,323.414645 235,323.796688" id="Fill-37" fill="#343333"></path>
                <path d="M204.134535,51.4060617 C201.329213,50.6397563 198.285643,50.9323456 195.83241,52.5034766 C194.733049,53.2083137 193.669466,54.1975443 192.873406,55.5883682 C190.220954,60.2239013 191.233309,66.1060125 187.927096,65.9584884 C184.620882,65.811784 184.415158,67.3271837 185.830016,68.6344106 C187.245687,69.9416375 188.07346,70.9603729 187.91002,72.3225115 C187.747392,73.6854697 188.811788,80.7362991 193.823962,83.5277818 C198.836137,86.320084 207.250474,85.9266865 211.265743,75.3311823 C215.008611,65.454448 216.721077,54.8433718 204.134535,51.4060617" id="Fill-39" fill="#F8A88D"></path>
                <path d="M197,98.2195833 C197,98.2195833 203.836302,90.6988002 208.140491,95.7384408 C212.44468,100.777258 199.183494,103 199.183494,103 L197,98.2195833 Z" id="Fill-41" fill="#87C5F5"></path>
                <path d="M156.873435,116.890761 C147.356543,116.884993 137.841287,115.584675 128.581919,113.026889 C127.651567,112.769792 126.680339,113.271626 126.370495,114.192066 C125.691943,116.209289 124.723167,118.69456 124.092033,120.634324 C123.859853,121.347933 124.074864,122.136529 124.647954,122.61529 C136.795664,132.779686 153.094801,138.25371 167.893767,140.320375 C184.208438,142.599639 201.743684,139.221944 215.65481,129.036123 C218.882427,126.673632 222.016845,123.456623 222.805763,119.112343 C223.346969,116.132654 222.692944,113.014529 221.63751,110.228487 C219.637009,104.94811 214.576485,97.3546839 209.336922,96.1483056 C203.728652,94.8570523 200.080823,102.32605 195.290903,105.819109 C183.947645,114.094831 170.080666,116.899001 156.873435,116.890761" id="Fill-43" fill="#AED8F7"></path>
                <path d="M233.05871,65.9111385 C234.957771,70.5170326 236.336149,75.3847475 238.933008,79.6285665 C240.543438,82.2600325 242.605674,84.6081353 245,86.5378218 C242.294904,91.1553155 237.935099,83.6420492 235.64901,80.4786559 C230.655365,73.5677435 225.301751,63.7279165 225,55 C228.946538,56.394445 231.522898,62.1859901 233.05871,65.9111385" id="Fill-45" fill="#196398"></path>
                <path d="M240.944234,90.2661974 C241.0432,90.4215365 241.007674,90.6308704 240.859647,90.7421829 C240.1525,91.2771474 239.343848,91.6833549 238.487828,91.9333926 C238.281436,91.9932023 238.048822,92.042213 237.858501,91.9441916 C237.687636,91.8569691 237.595436,91.6742173 237.514232,91.5039258 C236.384151,89.1314746 228.255344,72.1330614 230.340412,71 C232.859412,73.5319437 234.320229,77.6330611 235.830106,80.8062976 C236.180296,81.5414584 240.018006,88.8075054 240.944234,90.2661974" id="Fill-47" fill="#196398"></path>
                <path d="M191.011756,55.610906 C191.846373,58.2723483 196.764005,61.5277674 198.729075,63.4937821 C200.866852,65.6610616 203.036031,67.8586128 204.349107,70.5593262 C207.128135,76.2544689 205.702675,82.9682085 204.735841,89.207421 C204.247466,92.3630259 203.901223,95.5382664 203.69794,98.7233246 C215.059479,103.359781 228.243955,100.789972 237,92.151125 C234.882055,87.3935823 233.599554,82.2629631 232.998795,77.1020724 C232.163351,69.8041737 232.540168,62.0522016 229.017422,55.610906 C228.182805,54.0989647 226.858986,52.4561193 225.260817,50.7723664 C215.660238,40.6526681 198.810884,42.0034339 191.683582,53.9574247 C191.195207,54.7845745 190.94069,55.3695518 191.011756,55.610906" id="Fill-49" fill="#196398"></path>
                <path d="M207.381766,70.1103054 C208.561104,67.790218 208.00297,65.1886171 206.135038,64.2992902 C204.26797,63.4099633 201.796978,64.5696072 200.61764,66.8896946 C199.439167,69.209782 199.9973,71.8113829 201.864368,72.7007098 C203.7323,73.5900367 206.202429,72.4303928 207.381766,70.1103054" id="Fill-51" fill="#F8A88D"></path>
            </g>
        </g>
    </g>
</svg>