<?xml version="1.0" encoding="UTF-8"?>
<svg width="58px" height="58px" viewBox="0 0 58 58" version="1.1" xmlns="http://www.w3.org/2000/svg" xmlns:xlink="http://www.w3.org/1999/xlink">
    <!-- Generator: Sketch 62 (91390) - https://sketch.com -->
    <title>add</title>
    <desc>Created with Sketch.</desc>
    <g id="Page-3" stroke="none" stroke-width="1" fill="none" fill-rule="evenodd">
        <g id="empty-select" transform="translate(-139.000000, -646.000000)">
            <g id="Group-8" transform="translate(0.000000, 59.000000)">
                <g id="Group-5" transform="translate(48.000000, 588.000000)">
                    <g id="add" transform="translate(92.000000, 0.000000)">
                        <path d="M44.1452308,43.0765785 C44.1452308,41.4904862 42.8598154,40.2050708 41.2737231,40.2050708 C39.6876308,40.2050708 38.4013538,41.4904862 38.4013538,43.0765785 C38.4013538,44.6635323 39.6876308,45.9489477 41.2737231,45.9489477 C42.8598154,45.9489477 44.1452308,44.6635323 44.1452308,43.0765785" id="Fill-1" fill="#87C5F5"></path>
                        <path d="M40.2166154,28.4304246 C40.2166154,21.4459323 34.5545846,15.78304 27.5692308,15.78304 C20.5838769,15.78304 14.9218462,21.4459323 14.9218462,28.4304246 C14.9218462,35.4157785 20.5838769,41.0786708 27.5692308,41.0786708 C34.5545846,41.0786708 40.2166154,35.4157785 40.2166154,28.4304246" id="Fill-3" fill="#87C5F5"></path>
                        <path d="M3.06147692,41.0783262 C1.1032,37.2875569 -0.000430769231,32.9910646 -0.000430769231,28.43008 C-0.000430769231,13.2041108 12.3428308,0.860849231 27.5688,0.860849231 C33.2842462,0.860849231 38.5973538,2.60201846 42.9963692,5.58294154" id="Stroke-5" stroke="#161616" stroke-width="2" stroke-linecap="round" stroke-linejoin="round"></path>
                        <path d="M52.0770708,15.7832985 C54.0353477,19.5740677 55.1381169,23.87056 55.1381169,28.4306831 C55.1381169,43.6575138 42.7957169,55.9999138 27.5688862,55.9999138 C21.8543015,55.9999138 16.5411938,54.2596062 12.1421785,51.2786831" id="Stroke-7" stroke="#161616" stroke-width="2" stroke-linecap="round" stroke-linejoin="round"></path>
                        <line x1="6.89213538" y1="49.1073477" x2="6.89213538" y2="44.5127631" id="Stroke-9" stroke="#161616" stroke-width="2" stroke-linecap="round" stroke-linejoin="round"></line>
                        <line x1="4.59484308" y1="46.8104862" x2="9.18942769" y2="46.8104862" id="Stroke-11" stroke="#161616" stroke-width="2" stroke-linecap="round" stroke-linejoin="round"></line>
                        <line x1="48.2459815" y1="12.3489477" x2="48.2459815" y2="7.75350154" id="Stroke-13" stroke="#161616" stroke-width="2" stroke-linecap="round" stroke-linejoin="round"></line>
                        <line x1="45.9486892" y1="10.0512246" x2="50.5432738" y2="10.0512246" id="Stroke-15" stroke="#161616" stroke-width="2" stroke-linecap="round" stroke-linejoin="round"></line>
                        <path d="M34.9468431,42.7273969 C32.7361354,43.8697969 30.2290585,44.5125046 27.5694892,44.5125046 C18.6870277,44.5125046 11.4871508,37.3126277 11.4871508,28.4301662 C11.4871508,25.0968738 12.5020431,21.99792 14.2414892,19.4313969" id="Stroke-17" stroke="#161616" stroke-width="2" stroke-linecap="round" stroke-linejoin="round"></path>
                        <path d="M20.1917046,14.1342277 C22.4024123,12.9918277 24.9094892,12.34912 27.5690585,12.34912 C36.45152,12.34912 43.6513969,19.5489969 43.6513969,28.4305969 C43.6513969,31.7647508 42.6356431,34.8637046 40.8970585,37.4302277" id="Stroke-19" stroke="#161616" stroke-width="2" stroke-linecap="round" stroke-linejoin="round"></path>
                        <line x1="27.5690585" y1="21.5381169" x2="27.5690585" y2="35.3227323" id="Stroke-21" stroke="#161616" stroke-width="2" stroke-linecap="round" stroke-linejoin="round"></line>
                        <line x1="20.6767508" y1="28.4304246" x2="34.4613662" y2="28.4304246" id="Stroke-23" stroke="#161616" stroke-width="2" stroke-linecap="round" stroke-linejoin="round"></line>
                    </g>
                </g>
            </g>
        </g>
    </g>
</svg>