<svg width="32" height="32" viewBox="0 0 32 32" fill="none" xmlns="http://www.w3.org/2000/svg">
<path fill-rule="evenodd" clip-rule="evenodd" d="M17.9015 16L23.6062 21.7046C24.1313 22.2297 24.1313 23.0811 23.6062 23.6062C23.0811 24.1313 22.2297 24.1313 21.7046 23.6062L16 17.9015L10.2954 23.6062C9.77027 24.1313 8.91892 24.1313 8.39382 23.6062C7.86873 23.0811 7.86873 22.2297 8.39382 21.7046L14.0985 16L8.39382 10.2954C7.86873 9.77027 7.86873 8.91892 8.39382 8.39382C8.91892 7.86873 9.77027 7.86873 10.2954 8.39382L16 14.0985L21.7046 8.39382C22.2297 7.86873 23.0811 7.86873 23.6062 8.39382C24.1313 8.91892 24.1313 9.77027 23.6062 10.2954L17.9015 16Z" fill="white"/>
</svg>