<?xml version="1.0" encoding="UTF-8"?>
<svg width="16px" height="20px" viewBox="0 0 16 20" version="1.1" xmlns="http://www.w3.org/2000/svg" xmlns:xlink="http://www.w3.org/1999/xlink">
    <!-- Generator: Sketch 50.2 (55047) - http://www.bohemiancoding.com/sketch -->
    <title>navigation/project</title>
    <desc>Created with Sketch.</desc>
    <defs>
        <path d="M14,0 L2,0 C0.9,0 0,0.9 0,2 L0,18 C0,19.1 0.9,20 2,20 L14,20 C15.1,20 16,19.1 16,18 L16,2 C16,0.9 15.1,0 14,0 L14,0 Z M7,3 L7,10 L4.5,8.5 L2,10 L2,3 C2,2.44771525 2.44771525,2 3,2 L6,2 C6.55228475,2 7,2.44771525 7,3 Z" id="path-1"></path>
    </defs>
    <g id="Documentation" stroke="none" stroke-width="1" fill="none" fill-rule="evenodd">
        <g id="icons" transform="translate(-101.000000, -198.000000)">
            <g id="navigation/project" transform="translate(97.000000, 196.000000)">
                <g id="icons/domain/project" transform="translate(4.000000, 2.000000)">
                    <mask id="mask-2" fill="white">
                        <use xlink:href="#path-1"></use>
                    </mask>
                    <use id="Shape" fill="#000000" xlink:href="#path-1"></use>
                    <g id="neutral/@n900-(#161616)" mask="url(#mask-2)" fill="#161616">
                        <g transform="translate(-4.000000, -2.000000)" id="Path">
                            <rect x="0" y="0" width="24" height="24"></rect>
                        </g>
                    </g>
                </g>
            </g>
        </g>
    </g>
</svg>