<svg viewBox="0 0 24 24" fill="none" xmlns="http://www.w3.org/2000/svg">
<path fill-rule="evenodd" clip-rule="evenodd" d="M5.41419 14H9.00019C9.55219 14 10.0002 14.448 10.0002 15V18.586L19.5862 9.00001L15.0002 4.41401L5.41419 14ZM9.00019 22C8.87119 22 8.74119 21.975 8.61719 21.924C8.24419 21.769 8.00019 21.404 8.00019 21V16H3.00019C2.59619 16 2.23119 15.756 2.07619 15.383C1.92119 15.009 2.00719 14.579 2.29319 14.293L14.2932 2.29301C14.6842 1.90201 15.3162 1.90201 15.7072 2.29301L21.7072 8.29301C22.0982 8.68401 22.0982 9.31601 21.7072 9.70701L9.70719 21.707C9.51619 21.898 9.26019 22 9.00019 22V22Z" fill="#161616"/>
</svg>
