<?xml version="1.0" encoding="UTF-8"?>
<svg width="7px" height="12px" viewBox="0 0 7 12" version="1.1" xmlns="http://www.w3.org/2000/svg" xmlns:xlink="http://www.w3.org/1999/xlink">
    <!-- Generator: Sketch 50.2 (55047) - http://www.bohemiancoding.com/sketch -->
    <title>arrows/arrow-right</title>
    <desc>Created with Sketch.</desc>
    <defs>
        <path d="M11.6568842,7.24302798 C11.9577895,7.54393324 12.0268424,7.98889307 11.864043,8.35591473 C11.8154617,8.46509554 11.746442,8.56741392 11.6568842,8.65697164 L11.6568842,8.65724154 L6.70713677,13.606989 C6.31661248,13.9975133 5.6834475,13.9975133 5.29292321,13.606989 L5.29286323,13.606929 C4.90233894,13.2164047 4.90233894,12.5832398 5.29286323,12.1927155 L9.53557889,7.94999981 L5.29286323,3.70728415 C4.90233894,3.31675986 4.90233894,2.68359488 5.29286323,2.29307059 L5.29292321,2.29301061 C5.6834475,1.90248631 6.31661248,1.90248631 6.70713677,2.29301061 L11.6568842,7.24275807 L11.6571078,7.2429817 L11.6568842,7.24302798 Z" id="path-1"></path>
    </defs>
    <g id="Documentation" stroke="none" stroke-width="1" fill="none" fill-rule="evenodd">
        <g id="Docs-Home-2" transform="translate(-379.000000, -620.000000)">
            <g id="arrows/arrow-right" transform="translate(374.000000, 618.000000)">
                <g id="icon/arrow-right">
                    <polygon id="Shape" points="0 0 16 0 16 16 0 16"></polygon>
                    <mask id="mask-2" fill="white">
                        <use xlink:href="#path-1"></use>
                    </mask>
                    <use fill="#D8D8D8" xlink:href="#path-1"></use>
                    <g id="neutral/@n900-(#161616)" mask="url(#mask-2)" fill="#161616">
                        <rect id="Path" x="0" y="0" width="16" height="16"></rect>
                    </g>
                </g>
            </g>
        </g>
    </g>
</svg>