<?xml version="1.0" encoding="UTF-8"?>
<svg width="20px" height="16px" viewBox="0 0 20 16" version="1.1" xmlns="http://www.w3.org/2000/svg" xmlns:xlink="http://www.w3.org/1999/xlink">
    <!-- Generator: Sketch 50.2 (55047) - http://www.bohemiancoding.com/sketch -->
    <title>navigation/builds</title>
    <desc>Created with Sketch.</desc>
    <defs>
        <path d="M2,20 L22,20 L22,16 L2,16 L2,20 L2,20 Z M4,17 L6,17 L6,19 L4,19 L4,17 L4,17 Z M2,4 L2,8 L22,8 L22,4 L2,4 L2,4 Z M6,7 L4,7 L4,5 L6,5 L6,7 L6,7 Z M2,14 L22,14 L22,10 L2,10 L2,14 L2,14 Z M4,11 L6,11 L6,13 L4,13 L4,11 L4,11 Z" id="path-1"></path>
    </defs>
    <g id="Documentation" stroke="none" stroke-width="1" fill="none" fill-rule="evenodd">
        <g id="icons" transform="translate(-101.000000, -158.000000)">
            <g id="navigation/builds" transform="translate(99.000000, 154.000000)">
                <g id="icons/domain/builds">
                    <polygon id="Shape" points="0 0 24 0 24 24 0 24"></polygon>
                    <mask id="mask-2" fill="white">
                        <use xlink:href="#path-1"></use>
                    </mask>
                    <use id="Shape" fill="#000000" xlink:href="#path-1"></use>
                    <g id="neutral/@n900-(#161616)" mask="url(#mask-2)" fill="#161616">
                        <rect id="Path" x="0" y="0" width="24" height="24"></rect>
                    </g>
                </g>
            </g>
        </g>
    </g>
</svg>