<svg xmlns="http://www.w3.org/2000/svg" xmlns:xlink="http://www.w3.org/1999/xlink" width="18" height="18" version="1.1" viewBox="0 0 18 18"><title>navigation/insights</title><desc>Created with Sketch.</desc><defs><path id="path-1" d="M19,3 L5,3 C3.9,3 3,3.9 3,5 L3,19 C3,20.1 3.9,21 5,21 L19,21 C20.1,21 21,20.1 21,19 L21,5 C21,3.9 20.1,3 19,3 L19,3 Z M9,17 L7,17 L7,10 L9,10 L9,17 L9,17 Z M13,17 L11,17 L11,7 L13,7 L13,17 L13,17 Z M17,17 L15,17 L15,13 L17,13 L17,17 L17,17 Z"/></defs><g id="Documentation" fill="none" fill-rule="evenodd" stroke="none" stroke-width="1"><g id="icons" transform="translate(-102.000000, -241.000000)"><g id="navigation/insights" transform="translate(99.000000, 238.000000)"><g id="icons/navigation/insights"><polygon id="Shape" points="0 0 24 0 24 24 0 24"/><mask id="mask-2" fill="#fff"><use xlink:href="#path-1"/></mask><use id="Shape" fill="#000" xlink:href="#path-1"/><g id="neutral/@n900-(#161616)" fill="#161616" mask="url(#mask-2)"><rect id="Path" width="24" height="24" x="0" y="0"/></g></g></g></g></g></svg>