<?xml version="1.0" encoding="UTF-8"?>
<svg width="20px" height="13px" viewBox="0 0 20 13" version="1.1" xmlns="http://www.w3.org/2000/svg" xmlns:xlink="http://www.w3.org/1999/xlink">
    <!-- Generator: Sketch 50.2 (55047) - http://www.bohemiancoding.com/sketch -->
    <title>navigation/team</title>
    <desc>Created with Sketch.</desc>
    <defs>
        <path d="M15.6363636,11.5714286 C17.1454545,11.5714286 18.3545455,10.3271429 18.3545455,8.78571429 C18.3545455,7.24428571 17.1454545,6 15.6363636,6 C14.1272727,6 12.9090909,7.24428571 12.9090909,8.78571429 C12.9090909,10.3271429 14.1272727,11.5714286 15.6363636,11.5714286 L15.6363636,11.5714286 Z M8.36363636,11.5714286 C9.87272727,11.5714286 11.0818182,10.3271429 11.0818182,8.78571429 C11.0818182,7.24428571 9.87272727,6 8.36363636,6 C6.85454545,6 5.63636364,7.24428571 5.63636364,8.78571429 C5.63636364,10.3271429 6.85454545,11.5714286 8.36363636,11.5714286 L8.36363636,11.5714286 Z M8.36363636,13.4285714 C6.24545455,13.4285714 2,14.515 2,16.6785714 L2,19 L14.7272727,19 L14.7272727,16.6785714 C14.7272727,14.515 10.4818182,13.4285714 8.36363636,13.4285714 L8.36363636,13.4285714 Z M15.6363636,13.4285714 C15.3727273,13.4285714 15.0727273,13.4471429 14.7545455,13.475 C15.8090909,14.255 16.5454545,15.3042857 16.5454545,16.6785714 L16.5454545,19 L22,19 L22,16.6785714 C22,14.515 17.7545455,13.4285714 15.6363636,13.4285714 L15.6363636,13.4285714 Z" id="path-1"></path>
    </defs>
    <g id="Documentation" stroke="none" stroke-width="1" fill="none" fill-rule="evenodd">
        <g id="Docs-Home-1" transform="translate(-138.000000, -425.000000)">
            <g id="navigation/team" transform="translate(136.000000, 419.000000)">
                <g id="icons/domain/team">
                    <polygon id="Shape" points="0 0 24 0 24 24 0 24"></polygon>
                    <mask id="mask-2" fill="white">
                        <use xlink:href="#path-1"></use>
                    </mask>
                    <use id="Shape" fill="#000000" xlink:href="#path-1"></use>
                    <g id="neutral/@n900-(#161616)" mask="url(#mask-2)" fill="#161616">
                        <rect id="Path" x="0" y="0" width="24" height="24"></rect>
                    </g>
                </g>
            </g>
        </g>
    </g>
</svg>