<svg xmlns="http://www.w3.org/2000/svg" xmlns:xlink="http://www.w3.org/1999/xlink" width="20" height="20" version="1.1" viewBox="0 0 20 20"><title>navigation/workflows</title><desc>Created with Sketch.</desc><defs><path id="path-1" d="M21.4,9.4 L17.5,9.4 C17.2,9.4 16.9,9.7 16.9,10 L16.9,13.8 L13.9,18.6 C13.5,19.2 13,19.6 12.3,19.7 C11.6,19.8 11,19.7 10.4,19.4 C9.2,18.6 8.9,17.1 9.6,15.9 L10.5,14.5 L13.8,14.5 C14.1,14.5 14.4,14.2 14.4,13.9 L14.4,10.8 L14.5,10.7 L15.5,9.1 C16.1,8.1 16.3,7 16.1,5.9 C15.9,4.8 15.2,3.8 14.2,3.2 C13.2,2.6 12.1,2.4 11,2.6 C9.9,2.8 8.9,3.5 8.3,4.5 L5.2,9.5 L2.6,9.5 C2.3,9.4 2,9.7 2,10 L2,13.9 C2,14.2 2.3,14.5 2.6,14.5 L6.5,14.5 C6.8,14.5 7.1,14.2 7.1,13.9 L7.1,10 L7.1,9.8 L9.9,5.4 C10.7,4.2 12.2,3.9 13.4,4.6 C14,5 14.4,5.5 14.5,6.2 C14.6,6.9 14.5,7.5 14.2,8.1 L13.4,9.4 L9.9,9.4 C9.6,9.4 9.3,9.7 9.3,10 L9.3,13.2 L9.2,13.3 L8.2,14.9 C6.9,16.9 7.5,19.5 9.5,20.8 C10.2,21.2 11,21.5 11.8,21.5 C12.1,21.5 12.4,21.5 12.7,21.4 C13.8,21.2 14.8,20.5 15.4,19.5 L18.6,14.5 L21.4,14.5 C21.7,14.5 22,14.2 22,13.9 L22,10 C22,9.7 21.7,9.4 21.4,9.4 Z M4.5,13.2 C3.8,13.2 3.2,12.6 3.2,11.9 C3.2,11.2 3.8,10.6 4.5,10.6 C5.2,10.6 5.8,11.2 5.8,11.9 C5.8,12.6 5.2,13.2 4.5,13.2 Z M11.8,10.7 C12.5,10.7 13.1,11.3 13.1,12 C13.1,12.7 12.5,13.3 11.8,13.3 C11.1,13.3 10.5,12.7 10.5,12 C10.6,11.2 11.1,10.7 11.8,10.7 Z M19.5,13.2 C18.8,13.2 18.2,12.6 18.2,11.9 C18.2,11.2 18.8,10.6 19.5,10.6 C20.2,10.6 20.8,11.2 20.8,11.9 C20.7,12.6 20.2,13.2 19.5,13.2 Z"/></defs><g id="Documentation" fill="none" fill-rule="evenodd" stroke="none" stroke-width="1"><g id="Docs-Home-1" transform="translate(-138.000000, -334.000000)"><g id="navigation/workflows" transform="translate(136.000000, 332.000000)"><mask id="mask-2" fill="#fff"><use xlink:href="#path-1"/></mask><use id="Shape" fill="#333" fill-rule="nonzero" xlink:href="#path-1"/><g id="neutral/@n900-(#161616)" fill="#161616" fill-rule="evenodd" mask="url(#mask-2)"><rect id="Path" width="24" height="24" x="0" y="0"/></g></g></g></g></svg>