<?xml version="1.0" encoding="UTF-8" standalone="no"?>
<!-- Created with Inkscape (http://www.inkscape.org/) -->

<svg
   xmlns:dc="http://purl.org/dc/elements/1.1/"
   xmlns:cc="http://creativecommons.org/ns#"
   xmlns:rdf="http://www.w3.org/1999/02/22-rdf-syntax-ns#"
   xmlns:svg="http://www.w3.org/2000/svg"
   xmlns="http://www.w3.org/2000/svg"
   xmlns:sodipodi="http://sodipodi.sourceforge.net/DTD/sodipodi-0.dtd"
   xmlns:inkscape="http://www.inkscape.org/namespaces/inkscape"
   version="1.1"
   id="svg885"
   xml:space="preserve"
   width="615.98303"
   height="616.00079"
   viewBox="0 0 615.98303 616.00079"
   sodipodi:docname="community-orbs-logo.svg"
   inkscape:version="0.92.4 (5da689c313, 2019-01-14)"><metadata
     id="metadata891"><rdf:RDF><cc:Work
         rdf:about=""><dc:format>image/svg+xml</dc:format><dc:type
           rdf:resource="http://purl.org/dc/dcmitype/StillImage" /><dc:title></dc:title></cc:Work></rdf:RDF></metadata><defs
     id="defs889" /><sodipodi:namedview
     pagecolor="#ffffff"
     bordercolor="#666666"
     borderopacity="1"
     objecttolerance="10"
     gridtolerance="10"
     guidetolerance="10"
     inkscape:pageopacity="0"
     inkscape:pageshadow="2"
     inkscape:window-width="3732"
     inkscape:window-height="2032"
     id="namedview887"
     showgrid="false"
     inkscape:zoom="1.2375"
     inkscape:cx="270.8198"
     inkscape:cy="204.32364"
     inkscape:window-x="108"
     inkscape:window-y="54"
     inkscape:window-maximized="1"
     inkscape:current-layer="g893"
     inkscape:pagecheckerboard="true"
     fit-margin-top="0"
     fit-margin-left="0"
     fit-margin-right="0"
     fit-margin-bottom="0" /><g
     id="g893"
     inkscape:groupmode="layer"
     inkscape:label="community-orbs_Logo"
     transform="matrix(1.3333333,0,0,-1.3333333,-449.1802,1131.6771)"><g
       id="g1929"><g
         transform="translate(615.55749,827.69168)"
         id="g903"><path
           inkscape:connector-curvature="0"
           id="path905"
           style="fill:#3ab54a;fill-opacity:1;fill-rule:nonzero;stroke:none"
           d="M 0,0 C 4.233,-0.961 8.444,1.691 9.405,5.924 10.367,10.157 7.715,14.368 3.481,15.33 -0.751,16.291 -4.962,13.639 -5.924,9.405 -6.886,5.172 -4.232,0.961 0,0" /></g><g
         transform="translate(520.53019,721.56808)"
         id="g907"><path
           inkscape:connector-curvature="0"
           id="path909"
           style="fill:#3ab54a;fill-opacity:1;fill-rule:nonzero;stroke:none"
           d="M 0,0 C 10.692,5.083 15.24,17.871 10.157,28.563 5.075,39.255 -7.713,43.803 -18.405,38.72 -29.098,33.638 -33.645,20.85 -28.562,10.158 -23.48,-0.535 -10.692,-5.083 0,0" /></g><g
         transform="translate(522.70399,779.64088)"
         id="g911"><path
           inkscape:connector-curvature="0"
           id="path913"
           style="fill:#3ab54a;fill-opacity:1;fill-rule:nonzero;stroke:none"
           d="M 0,0 C 7.264,2.109 11.442,9.707 9.333,16.97 7.225,24.233 -0.374,28.412 -7.637,26.303 -14.9,24.194 -19.079,16.596 -16.97,9.333 -14.86,2.069 -7.263,-2.109 0,0" /></g><g
         transform="translate(352.60539,616.13848)"
         id="g915"><path
           inkscape:connector-curvature="0"
           id="path917"
           style="fill:#3ab54a;fill-opacity:1;fill-rule:nonzero;stroke:none"
           d="m 0,0 c -0.033,4.341 -3.578,7.833 -7.919,7.801 -4.342,-0.033 -7.834,-3.578 -7.801,-7.919 0.032,-4.341 3.578,-7.833 7.918,-7.8 C -3.46,-7.886 0.032,-4.341 0,0" /></g><g
         transform="translate(569.44519,732.60228)"
         id="g919"><path
           inkscape:connector-curvature="0"
           id="path921"
           style="fill:#3ab54a;fill-opacity:1;fill-rule:nonzero;stroke:none"
           d="m 0,0 c 11.839,0 21.436,9.597 21.436,21.436 0,11.838 -9.597,21.436 -21.436,21.436 -11.839,0 -21.436,-9.598 -21.436,-21.436 C -21.436,9.597 -11.839,0 0,0" /></g><g
         transform="translate(569.44519,786.28928)"
         id="g923"><path
           inkscape:connector-curvature="0"
           id="path925"
           style="fill:#3ab54a;fill-opacity:1;fill-rule:nonzero;stroke:none"
           d="m 0,0 c 7.563,0 13.694,6.131 13.694,13.695 0,7.563 -6.131,13.694 -13.694,13.694 -7.563,0 -13.694,-6.131 -13.694,-13.694 C -13.694,6.131 -7.563,0 0,0" /></g><g
         transform="translate(576.80949,697.46018)"
         id="g927"><path
           inkscape:connector-curvature="0"
           id="path929"
           style="fill:#3ab54a;fill-opacity:1;fill-rule:nonzero;stroke:none"
           d="m 0,0 c -6.643,-13.335 -1.218,-29.53 12.117,-36.173 13.336,-6.643 29.53,-1.219 36.174,12.117 6.644,13.335 1.218,29.53 -12.117,36.173 C 22.839,18.76 6.644,13.335 0,0" /></g><g
         transform="translate(612.52329,780.65948)"
         id="g931"><path
           inkscape:connector-curvature="0"
           id="path933"
           style="fill:#3ab54a;fill-opacity:1;fill-rule:nonzero;stroke:none"
           d="M 0,0 C 7.31,-1.944 14.812,2.406 16.755,9.715 18.698,17.024 14.349,24.525 7.039,26.469 -0.27,28.413 -7.771,24.063 -9.715,16.754 -11.658,9.445 -7.309,1.943 0,0" /></g><g
         transform="translate(567.87879,833.03788)"
         id="g935"><path
           inkscape:connector-curvature="0"
           id="path937"
           style="fill:#3ab54a;fill-opacity:1;fill-rule:nonzero;stroke:none"
           d="m 0,0 c 4.341,0 7.86,3.519 7.86,7.86 0,4.341 -3.519,7.86 -7.86,7.86 -4.341,0 -7.859,-3.519 -7.859,-7.86 C -7.859,3.519 -4.341,0 0,0" /></g><g
         transform="translate(511.89929,674.68238)"
         id="g939"><path
           inkscape:connector-curvature="0"
           id="path941"
           style="fill:#3ab54a;fill-opacity:1;fill-rule:nonzero;stroke:none"
           d="M 0,0 C 6.341,-13.482 22.409,-19.271 35.891,-12.931 49.373,-6.591 55.162,9.478 48.822,22.959 42.482,36.441 26.413,42.231 12.932,35.891 -0.551,29.55 -6.34,13.481 0,0" /></g><g
         transform="translate(362.56829,705.51198)"
         id="g943"><path
           inkscape:connector-curvature="0"
           id="path945"
           style="fill:#3ab54a;fill-opacity:1;fill-rule:nonzero;stroke:none"
           d="m 0,0 c 3.929,-1.846 8.61,-0.157 10.456,3.772 1.845,3.93 0.156,8.611 -3.772,10.457 -3.93,1.845 -8.611,0.156 -10.456,-3.773 C -5.618,6.527 -3.929,1.846 0,0" /></g><g
         transform="translate(390.32799,649.99778)"
         id="g947"><path
           inkscape:connector-curvature="0"
           id="path949"
           style="fill:#3ab54a;fill-opacity:1;fill-rule:nonzero;stroke:none"
           d="M 0,0 C 7.331,-1.861 14.782,2.574 16.644,9.905 18.504,17.236 14.069,24.687 6.739,26.548 -0.592,28.408 -8.044,23.974 -9.904,16.643 -11.765,9.312 -7.331,1.861 0,0" /></g><g
         transform="translate(387.10239,748.80348)"
         id="g951"><path
           inkscape:connector-curvature="0"
           id="path953"
           style="fill:#3ab54a;fill-opacity:1;fill-rule:nonzero;stroke:none"
           d="m 0,0 c 3.423,-2.67 8.361,-2.06 11.031,1.363 2.67,3.423 2.06,8.362 -1.363,11.032 -3.422,2.67 -8.361,2.06 -11.031,-1.363 C -4.033,7.609 -3.423,2.67 0,0" /></g><g
         transform="translate(348.23129,657.86158)"
         id="g955"><path
           inkscape:connector-curvature="0"
           id="path957"
           style="fill:#3ab54a;fill-opacity:1;fill-rule:nonzero;stroke:none"
           d="m 0,0 c 4.24,-0.929 8.432,1.754 9.361,5.995 0.93,4.24 -1.755,8.431 -5.995,9.36 -4.24,0.93 -8.43,-1.754 -9.36,-5.994 C -6.924,5.121 -4.24,0.93 0,0" /></g><g
         transform="translate(468.76359,785.67898)"
         id="g959"><path
           inkscape:connector-curvature="0"
           id="path961"
           style="fill:#3ab54a;fill-opacity:1;fill-rule:nonzero;stroke:none"
           d="m 0,0 c -6.478,-3.905 -8.563,-12.321 -4.658,-18.799 3.904,-6.477 12.321,-8.563 18.799,-4.658 6.477,3.905 8.562,12.321 4.658,18.799 C 14.894,1.819 6.478,3.905 0,0" /></g><g
         transform="translate(471.97939,810.49828)"
         id="g963"><path
           inkscape:connector-curvature="0"
           id="path965"
           style="fill:#3ab54a;fill-opacity:1;fill-rule:nonzero;stroke:none"
           d="M 0,0 C 3.887,1.934 5.47,6.652 3.535,10.538 1.603,14.424 -3.116,16.007 -7.003,14.074 -10.889,12.14 -12.472,7.422 -10.538,3.536 -8.604,-0.351 -3.886,-1.934 0,0" /></g><g
         transform="translate(429.55259,734.83038)"
         id="g967"><path
           inkscape:connector-curvature="0"
           id="path969"
           style="fill:#3ab54a;fill-opacity:1;fill-rule:nonzero;stroke:none"
           d="m 0,0 c 5.438,-5.256 14.108,-5.109 19.364,0.33 5.257,5.438 5.11,14.108 -0.329,19.364 C 13.597,24.95 4.927,24.803 -0.329,19.364 -5.586,13.926 -5.438,5.256 0,0" /></g><g
         transform="translate(404.39639,694.97728)"
         id="g971"><path
           inkscape:connector-curvature="0"
           id="path973"
           style="fill:#3ab54a;fill-opacity:1;fill-rule:nonzero;stroke:none"
           d="m 0,0 c 6.607,-3.682 14.947,-1.312 18.63,5.295 3.682,6.606 1.311,14.947 -5.295,18.629 C 6.729,27.606 -1.612,25.236 -5.294,18.629 -8.977,12.023 -6.606,3.682 0,0" /></g><g
         transform="translate(431.67369,784.47238)"
         id="g975"><path
           inkscape:connector-curvature="0"
           id="path977"
           style="fill:#3ab54a;fill-opacity:1;fill-rule:nonzero;stroke:none"
           d="M 0,0 C 3.362,2.747 3.86,7.698 1.114,11.06 -1.632,14.421 -6.583,14.92 -9.945,12.174 -13.307,9.427 -13.806,4.476 -11.06,1.114 -8.313,-2.248 -3.361,-2.747 0,0" /></g><g
         transform="translate(517.04869,826.95098)"
         id="g979"><path
           inkscape:connector-curvature="0"
           id="path981"
           style="fill:#3ab54a;fill-opacity:1;fill-rule:nonzero;stroke:none"
           d="M 0,0 C 4.218,1.025 6.807,5.275 5.781,9.493 4.756,13.711 0.506,16.3 -3.712,15.275 -7.931,14.25 -10.52,10 -9.494,5.782 -8.469,1.563 -4.219,-1.025 0,0" /></g><g
         transform="translate(523.80169,553.55548)"
         id="g983"><path
           inkscape:connector-curvature="0"
           id="path985"
           style="fill:#3ab54a;fill-opacity:1;fill-rule:nonzero;stroke:none"
           d="M 0,0 C 12.042,8.772 14.694,25.645 5.922,37.687 -2.85,49.729 -19.723,52.38 -31.765,43.609 -43.807,34.837 -46.458,17.964 -37.687,5.922 -28.915,-6.12 -12.042,-8.771 0,0" /></g><g
         transform="translate(489.18349,612.92408)"
         id="g987"><path
           inkscape:connector-curvature="0"
           id="path989"
           style="fill:#3ab54a;fill-opacity:1;fill-rule:nonzero;stroke:none"
           d="M 0,0 C 14.354,-3.992 29.226,4.407 33.218,18.76 37.21,33.113 28.811,47.985 14.457,51.978 0.104,55.97 -14.768,47.571 -18.761,33.217 -22.752,18.864 -14.354,3.992 0,0" /></g><g
         transform="translate(605.99889,750.76048)"
         id="g991"><path
           inkscape:connector-curvature="0"
           id="path993"
           style="fill:#3ab54a;fill-opacity:1;fill-rule:nonzero;stroke:none"
           d="m 0,0 c -4.903,-10.775 -0.143,-23.486 10.633,-28.389 10.776,-4.903 23.486,-0.142 28.389,10.634 C 43.925,-6.979 39.164,5.731 28.389,10.634 17.613,15.537 4.902,10.776 0,0" /></g><g
         transform="translate(432.38469,619.25808)"
         id="g995"><path
           inkscape:connector-curvature="0"
           id="path997"
           style="fill:#3ab54a;fill-opacity:1;fill-rule:nonzero;stroke:none"
           d="m 0,0 c -11.701,-1.801 -19.727,-12.746 -17.926,-24.447 1.801,-11.701 12.746,-19.727 24.447,-17.926 11.702,1.801 19.727,12.746 17.926,24.447 C 22.646,-6.225 11.701,1.801 0,0" /></g><g
         transform="translate(713.97549,703.57108)"
         id="g999"><path
           inkscape:connector-curvature="0"
           id="path1001"
           style="fill:#3ab54a;fill-opacity:1;fill-rule:nonzero;stroke:none"
           d="M 0,0 C 3.831,-6.521 12.224,-8.702 18.745,-4.871 25.267,-1.04 27.447,7.353 23.616,13.874 19.785,20.395 11.393,22.576 4.871,18.745 -1.65,14.914 -3.831,6.521 0,0" /></g><g
         transform="translate(740.46669,680.43918)"
         id="g1003"><path
           inkscape:connector-curvature="0"
           id="path1005"
           style="fill:#3ab54a;fill-opacity:1;fill-rule:nonzero;stroke:none"
           d="m 0,0 c -7.287,-2.026 -11.551,-9.576 -9.524,-16.863 2.026,-7.287 9.576,-11.552 16.863,-9.525 7.286,2.027 11.551,9.576 9.524,16.864 C 14.837,-2.238 7.287,2.026 0,0" /></g><g
         transform="translate(746.66399,751.50758)"
         id="g1007"><path
           inkscape:connector-curvature="0"
           id="path1009"
           style="fill:#3ab54a;fill-opacity:1;fill-rule:nonzero;stroke:none"
           d="m 0,0 c 3.383,2.721 3.918,7.669 1.197,11.051 -2.72,3.382 -7.669,3.918 -11.051,1.197 C -13.235,9.527 -13.771,4.579 -11.051,1.197 -8.329,-2.185 -3.382,-2.721 0,0" /></g><g
         transform="translate(610.46569,552.57688)"
         id="g1011"><path
           inkscape:connector-curvature="0"
           id="path1013"
           style="fill:#3ab54a;fill-opacity:1;fill-rule:nonzero;stroke:none"
           d="M 0,0 C 11.841,-9.041 28.77,-6.771 37.811,5.069 46.853,16.911 44.582,33.839 32.742,42.88 20.9,51.921 3.973,49.652 -5.068,37.811 -14.11,25.97 -11.841,9.042 0,0" /></g><g
         transform="translate(444.79769,675.66288)"
         id="g1015"><path
           inkscape:connector-curvature="0"
           id="path1017"
           style="fill:#3ab54a;fill-opacity:1;fill-rule:nonzero;stroke:none"
           d="m 0,0 c -11.404,3.179 -23.226,-3.489 -26.404,-14.893 -3.179,-11.403 3.488,-23.225 14.892,-26.404 11.405,-3.179 23.226,3.488 26.405,14.892 C 18.071,-15 11.404,-3.179 0,0" /></g><g
         transform="translate(551.87099,586.90018)"
         id="g1019"><path
           inkscape:connector-curvature="0"
           id="path1021"
           style="fill:#3ab54a;fill-opacity:1;fill-rule:nonzero;stroke:none"
           d="M 0,0 C 17.747,-8.841 39.302,-1.621 48.143,16.126 56.983,33.874 49.764,55.428 32.016,64.27 14.269,73.11 -7.285,65.89 -16.127,48.143 -24.968,30.396 -17.748,8.841 0,0" /></g><g
         transform="translate(660.86809,811.91868)"
         id="g1023"><path
           inkscape:connector-curvature="0"
           id="path1025"
           style="fill:#3ab54a;fill-opacity:1;fill-rule:nonzero;stroke:none"
           d="M 0,0 C 3.915,-1.875 8.609,-0.221 10.484,3.694 12.359,7.609 10.706,12.303 6.791,14.178 2.875,16.053 -1.818,14.399 -3.693,10.484 -5.568,6.569 -3.915,1.875 0,0" /></g><g
         transform="translate(701.56039,786.50218)"
         id="g1027"><path
           inkscape:connector-curvature="0"
           id="path1029"
           style="fill:#3ab54a;fill-opacity:1;fill-rule:nonzero;stroke:none"
           d="M 0,0 C 3.403,-2.696 8.347,-2.123 11.042,1.28 13.737,4.683 13.164,9.626 9.762,12.322 6.359,15.017 1.416,14.444 -1.28,11.042 -3.976,7.639 -3.402,2.695 0,0" /></g><g
         transform="translate(706.66789,737.97238)"
         id="g1031"><path
           inkscape:connector-curvature="0"
           id="path1033"
           style="fill:#3ab54a;fill-opacity:1;fill-rule:nonzero;stroke:none"
           d="m 0,0 c 5.317,5.378 5.269,14.049 -0.11,19.367 -5.378,5.318 -14.049,5.269 -19.367,-0.11 -5.318,-5.378 -5.269,-14.049 0.11,-19.367 C -13.989,-5.427 -5.318,-5.378 0,0" /></g><g
         transform="translate(666.85829,639.90408)"
         id="g1035"><path
           inkscape:connector-curvature="0"
           id="path1037"
           style="fill:#3ab54a;fill-opacity:1;fill-rule:nonzero;stroke:none"
           d="M 0,0 C -3.074,14.578 -17.383,23.903 -31.961,20.83 -46.538,17.756 -55.864,3.447 -52.791,-11.13 -49.718,-25.708 -35.407,-35.034 -20.83,-31.96 -6.253,-28.887 3.073,-14.578 0,0" /></g><g
         transform="translate(652.70889,764.14718)"
         id="g1039"><path
           inkscape:connector-curvature="0"
           id="path1041"
           style="fill:#3ab54a;fill-opacity:1;fill-rule:nonzero;stroke:none"
           d="m 0,0 c 6.564,-3.757 14.932,-1.481 18.687,5.083 3.758,6.565 1.482,14.932 -5.082,18.688 C 7.04,27.528 -1.326,25.252 -5.083,18.688 -8.841,12.124 -6.564,3.757 0,0" /></g><g
         transform="translate(701.93149,583.54418)"
         id="g1043"><path
           inkscape:connector-curvature="0"
           id="path1045"
           style="fill:#3ab54a;fill-opacity:1;fill-rule:nonzero;stroke:none"
           d="M 0,0 C 11.776,-1.206 22.302,7.363 23.508,19.14 24.714,30.917 16.145,41.442 4.368,42.649 -7.409,43.855 -17.935,35.286 -19.141,23.509 -20.348,11.731 -11.777,1.207 0,0" /></g><g
         transform="translate(684.43059,693.25658)"
         id="g1047"><path
           inkscape:connector-curvature="0"
           id="path1049"
           style="fill:#3ab54a;fill-opacity:1;fill-rule:nonzero;stroke:none"
           d="m 0,0 c 8.802,7.917 9.52,21.471 1.603,30.272 -7.917,8.803 -21.471,9.52 -30.273,1.603 C -37.472,23.958 -38.189,10.404 -30.272,1.603 -22.355,-7.2 -8.802,-7.917 0,0" /></g><g
         transform="translate(705.02719,638.74388)"
         id="g1051"><path
           inkscape:connector-curvature="0"
           id="path1053"
           style="fill:#3ab54a;fill-opacity:1;fill-rule:nonzero;stroke:none"
           d="M 0,0 C 11.296,3.545 17.579,15.575 14.035,26.871 10.49,38.167 -1.54,44.45 -12.836,40.905 -24.132,37.36 -30.415,25.33 -26.87,14.034 -23.325,2.739 -11.296,-3.544 0,0" /></g><g
         transform="translate(482.32119,692.09008)"
         id="g1055"><path
           inkscape:connector-curvature="0"
           id="path1057"
           style="fill:#3ab54a;fill-opacity:1;fill-rule:nonzero;stroke:none"
           d="m 0,0 c 7.629,9.053 6.476,22.576 -2.577,30.206 -9.053,7.629 -22.575,6.475 -30.205,-2.578 -7.63,-9.052 -6.476,-22.575 2.577,-30.205 C -21.152,-10.206 -7.629,-9.052 0,0" /></g><g
         transform="translate(707.16789,543.68238)"
         id="g1059"><path
           inkscape:connector-curvature="0"
           id="path1061"
           style="fill:#3ab54a;fill-opacity:1;fill-rule:nonzero;stroke:none"
           d="M 0,0 C 5.66,10.397 1.82,23.415 -8.577,29.076 -18.975,34.737 -31.993,30.897 -37.653,20.5 -43.314,10.102 -39.475,-2.916 -29.077,-8.577 -18.68,-14.238 -5.661,-10.398 0,0" /></g><g
         transform="translate(709.33779,502.49588)"
         id="g1063"><path
           inkscape:connector-curvature="0"
           id="path1065"
           style="fill:#3ab54a;fill-opacity:1;fill-rule:nonzero;stroke:none"
           d="m 0,0 c -5.438,5.257 -14.108,5.109 -19.364,-0.329 -5.257,-5.439 -5.11,-14.108 0.329,-19.364 5.438,-5.257 14.107,-5.11 19.364,0.329 C 5.586,-13.926 5.437,-5.256 0,0" /></g><g
         transform="translate(655.98619,475.10428)"
         id="g1067"><path
           inkscape:connector-curvature="0"
           id="path1069"
           style="fill:#3ab54a;fill-opacity:1;fill-rule:nonzero;stroke:none"
           d="m 0,0 c -6.478,-3.904 -8.563,-12.32 -4.658,-18.798 3.904,-6.477 12.321,-8.563 18.799,-4.658 6.477,3.904 8.562,12.321 4.658,18.798 C 14.894,1.819 6.478,3.905 0,0" /></g><g
         transform="translate(704.08389,451.04278)"
         id="g1071"><path
           inkscape:connector-curvature="0"
           id="path1073"
           style="fill:#3ab54a;fill-opacity:1;fill-rule:nonzero;stroke:none"
           d="m 0,0 c -3.362,-2.746 -3.86,-7.698 -1.114,-11.06 2.746,-3.361 7.698,-3.86 11.059,-1.114 3.362,2.747 3.861,7.698 1.115,11.06 C 8.313,2.248 3.361,2.746 0,0" /></g><g
         transform="translate(612.94619,468.00658)"
         id="g1075"><path
           inkscape:connector-curvature="0"
           id="path1077"
           style="fill:#3ab54a;fill-opacity:1;fill-rule:nonzero;stroke:none"
           d="M 0,0 C 11.374,3.284 17.932,15.168 14.647,26.542 11.363,37.916 -0.52,44.474 -11.894,41.189 -23.268,37.905 -29.825,26.022 -26.541,14.648 -23.257,3.274 -11.375,-3.284 0,0" /></g><g
         transform="translate(663.77819,425.01738)"
         id="g1079"><path
           inkscape:connector-curvature="0"
           id="path1081"
           style="fill:#3ab54a;fill-opacity:1;fill-rule:nonzero;stroke:none"
           d="m 0,0 c -3.887,-1.934 -5.47,-6.652 -3.535,-10.538 1.933,-3.887 6.651,-5.47 10.538,-3.536 3.886,1.933 5.469,6.652 3.535,10.538 C 8.604,0.351 3.887,1.934 0,0" /></g><g
         transform="translate(616.18639,457.68628)"
         id="g1083"><path
           inkscape:connector-curvature="0"
           id="path1085"
           style="fill:#3ab54a;fill-opacity:1;fill-rule:nonzero;stroke:none"
           d="m 0,0 c -7.264,-2.109 -11.442,-9.707 -9.334,-16.971 2.109,-7.263 9.708,-11.441 16.971,-9.333 7.263,2.11 11.442,9.707 9.333,16.971 C 14.86,-2.07 7.263,2.108 0,0" /></g><g
         transform="translate(618.70989,408.56418)"
         id="g1087"><path
           inkscape:connector-curvature="0"
           id="path1089"
           style="fill:#3ab54a;fill-opacity:1;fill-rule:nonzero;stroke:none"
           d="m 0,0 c -4.219,-1.024 -6.807,-5.275 -5.782,-9.493 1.025,-4.219 5.275,-6.807 9.494,-5.782 C 7.93,-14.25 10.519,-10 9.493,-5.781 8.469,-1.563 4.219,1.025 0,0" /></g><g
         transform="translate(739.78799,523.71948)"
         id="g1091"><path
           inkscape:connector-curvature="0"
           id="path1093"
           style="fill:#3ab54a;fill-opacity:1;fill-rule:nonzero;stroke:none"
           d="m 0,0 c 3.683,6.607 1.312,14.947 -5.295,18.63 -6.606,3.682 -14.947,1.311 -18.63,-5.295 -3.681,-6.606 -1.31,-14.947 5.295,-18.629 C -12.023,-8.977 -3.682,-6.606 0,0" /></g><g
         transform="translate(668.08489,496.76148)"
         id="g1095"><path
           inkscape:connector-curvature="0"
           id="path1097"
           style="fill:#3ab54a;fill-opacity:1;fill-rule:nonzero;stroke:none"
           d="m 0,0 c 9.203,7.447 10.626,20.945 3.18,30.148 -7.448,9.204 -20.946,10.627 -30.149,3.18 C -36.172,25.881 -37.596,12.384 -30.148,3.181 -22.701,-6.022 -9.204,-7.446 0,0" /></g><g
         transform="translate(783.15319,619.37668)"
         id="g1099"><path
           inkscape:connector-curvature="0"
           id="path1101"
           style="fill:#3ab54a;fill-opacity:1;fill-rule:nonzero;stroke:none"
           d="m 0,0 c 0.032,-4.341 3.578,-7.833 7.919,-7.801 4.341,0.033 7.833,3.578 7.8,7.919 -0.032,4.341 -3.578,7.833 -7.918,7.8 C 3.46,7.886 -0.032,4.341 0,0" /></g><g
         transform="translate(786.89829,661.16088)"
         id="g1103"><path
           inkscape:connector-curvature="0"
           id="path1105"
           style="fill:#3ab54a;fill-opacity:1;fill-rule:nonzero;stroke:none"
           d="M 0,0 C 4.226,0.993 6.847,5.224 5.853,9.45 4.859,13.675 0.629,16.296 -3.597,15.303 -7.822,14.31 -10.443,10.079 -9.45,5.853 -8.457,1.627 -4.226,-0.993 0,0" /></g><g
         transform="translate(787.52629,577.65358)"
         id="g1107"><path
           inkscape:connector-curvature="0"
           id="path1109"
           style="fill:#3ab54a;fill-opacity:1;fill-rule:nonzero;stroke:none"
           d="m 0,0 c -4.24,0.929 -8.432,-1.754 -9.361,-5.995 -0.929,-4.24 1.755,-8.431 5.995,-9.36 4.24,-0.93 8.431,1.754 9.36,5.994 C 6.924,-5.121 4.24,-0.93 0,0" /></g><g
         transform="translate(764.95009,722.71608)"
         id="g1111"><path
           inkscape:connector-curvature="0"
           id="path1113"
           style="fill:#3ab54a;fill-opacity:1;fill-rule:nonzero;stroke:none"
           d="m 0,0 c -3.901,-1.904 -5.52,-6.61 -3.615,-10.511 1.905,-3.901 6.611,-5.52 10.511,-3.615 3.901,1.904 5.52,6.61 3.615,10.511 C 8.606,0.286 3.9,1.904 0,0" /></g><g
         transform="translate(748.65609,486.71168)"
         id="g1115"><path
           inkscape:connector-curvature="0"
           id="path1117"
           style="fill:#3ab54a;fill-opacity:1;fill-rule:nonzero;stroke:none"
           d="m 0,0 c -3.423,2.67 -8.362,2.06 -11.032,-1.363 -2.67,-3.423 -2.06,-8.362 1.363,-11.032 3.423,-2.669 8.361,-2.059 11.032,1.364 C 4.032,-7.609 3.423,-2.67 0,0" /></g><g
         transform="translate(773.18929,530.00368)"
         id="g1119"><path
           inkscape:connector-curvature="0"
           id="path1121"
           style="fill:#3ab54a;fill-opacity:1;fill-rule:nonzero;stroke:none"
           d="m 0,0 c -3.929,1.845 -8.61,0.156 -10.456,-3.772 -1.845,-3.93 -0.156,-8.611 3.772,-10.457 3.93,-1.845 8.611,-0.156 10.456,3.773 C 5.618,-6.527 3.93,-1.846 0,0" /></g><g
         transform="translate(748.56139,587.32888)"
         id="g1123"><path
           inkscape:connector-curvature="0"
           id="path1125"
           style="fill:#3ab54a;fill-opacity:1;fill-rule:nonzero;stroke:none"
           d="m 0,0 c -7.331,1.86 -14.782,-2.574 -16.643,-9.905 -1.86,-7.331 2.575,-14.782 9.905,-16.643 7.331,-1.86 14.782,2.574 16.643,9.905 C 11.766,-9.312 7.331,-1.861 0,0" /></g><g
         transform="translate(750.59849,634.41288)"
         id="g1127"><path
           inkscape:connector-curvature="0"
           id="path1129"
           style="fill:#3ab54a;fill-opacity:1;fill-rule:nonzero;stroke:none"
           d="m 0,0 c -7.562,-0.085 -13.624,-6.286 -13.538,-13.849 0.086,-7.563 6.286,-13.624 13.849,-13.539 7.562,0.086 13.624,6.287 13.538,13.849 C 13.764,-5.976 7.563,0.086 0,0" /></g><g
         transform="translate(389.09359,484.00758)"
         id="g1131"><path
           inkscape:connector-curvature="0"
           id="path1133"
           style="fill:#3ab54a;fill-opacity:1;fill-rule:nonzero;stroke:none"
           d="m 0,0 c -3.382,-2.721 -3.918,-7.669 -1.197,-11.051 2.721,-3.383 7.669,-3.918 11.051,-1.197 3.381,2.721 3.917,7.669 1.197,11.051 C 8.33,2.186 3.382,2.721 0,0" /></g><g
         transform="translate(424.91399,533.75558)"
         id="g1135"><path
           inkscape:connector-curvature="0"
           id="path1137"
           style="fill:#3ab54a;fill-opacity:1;fill-rule:nonzero;stroke:none"
           d="m 0,0 c -3.83,6.521 -12.223,8.702 -18.744,4.871 -6.522,-3.831 -8.702,-12.224 -4.871,-18.745 3.831,-6.522 12.223,-8.702 18.745,-4.871 C 1.65,-14.914 3.831,-6.521 0,0" /></g><g
         transform="translate(434.19719,449.01348)"
         id="g1139"><path
           inkscape:connector-curvature="0"
           id="path1141"
           style="fill:#3ab54a;fill-opacity:1;fill-rule:nonzero;stroke:none"
           d="m 0,0 c -3.402,2.695 -8.347,2.122 -11.042,-1.28 -2.695,-3.404 -2.122,-8.347 1.28,-11.042 3.403,-2.696 8.347,-2.122 11.042,1.28 C 3.976,-7.64 3.402,-2.696 0,0" /></g><g
         transform="translate(432.22249,499.35428)"
         id="g1143"><path
           inkscape:connector-curvature="0"
           id="path1145"
           style="fill:#3ab54a;fill-opacity:1;fill-rule:nonzero;stroke:none"
           d="m 0,0 c -5.317,-5.379 -5.269,-14.05 0.11,-19.367 5.378,-5.318 14.049,-5.269 19.367,0.11 5.318,5.378 5.268,14.049 -0.11,19.366 C 13.988,5.428 5.317,5.378 0,0" /></g><g
         transform="translate(348.85929,574.35428)"
         id="g1147"><path
           inkscape:connector-curvature="0"
           id="path1149"
           style="fill:#3ab54a;fill-opacity:1;fill-rule:nonzero;stroke:none"
           d="m 0,0 c -4.226,-0.993 -6.846,-5.224 -5.853,-9.45 0.994,-4.225 5.224,-6.846 9.451,-5.853 4.225,0.993 6.845,5.224 5.852,9.45 C 8.457,-1.627 4.226,0.993 0,0" /></g><g
         transform="translate(398.42269,556.88748)"
         id="g1151"><path
           inkscape:connector-curvature="0"
           id="path1153"
           style="fill:#3ab54a;fill-opacity:1;fill-rule:nonzero;stroke:none"
           d="M 0,0 C 7.287,2.026 11.552,9.576 9.525,16.863 7.499,24.15 -0.051,28.415 -7.338,26.388 -14.625,24.361 -18.889,16.812 -16.862,9.524 -14.836,2.238 -7.286,-2.026 0,0" /></g><g
         transform="translate(474.21079,556.11358)"
         id="g1155"><path
           inkscape:connector-curvature="0"
           id="path1157"
           style="fill:#3ab54a;fill-opacity:1;fill-rule:nonzero;stroke:none"
           d="m 0,0 c -6.5,9.896 -19.79,12.648 -29.685,6.149 -9.895,-6.499 -12.649,-19.789 -6.149,-29.685 6.499,-9.895 19.789,-12.648 29.685,-6.149 C 3.745,-23.185 6.499,-9.895 0,0" /></g><g
         transform="translate(363.91099,526.92558)"
         id="g1159"><path
           inkscape:connector-curvature="0"
           id="path1161"
           style="fill:#3ab54a;fill-opacity:1;fill-rule:nonzero;stroke:none"
           d="m 0,0 c -3.9,-1.904 -5.519,-6.61 -3.614,-10.512 1.904,-3.9 6.61,-5.519 10.51,-3.615 3.902,1.905 5.52,6.611 3.616,10.512 C 8.607,0.286 3.901,1.904 0,0" /></g><g
         transform="translate(401.82999,616.76298)"
         id="g1163"><path
           inkscape:connector-curvature="0"
           id="path1165"
           style="fill:#3ab54a;fill-opacity:1;fill-rule:nonzero;stroke:none"
           d="m 0,0 c -0.086,7.562 -6.286,13.624 -13.849,13.539 -7.563,-0.086 -13.625,-6.287 -13.539,-13.85 0.086,-7.563 6.286,-13.624 13.849,-13.538 C -5.976,-13.764 0.086,-7.563 0,0" /></g><g
         transform="translate(526.36609,456.66778)"
         id="g1167"><path
           inkscape:connector-curvature="0"
           id="path1169"
           style="fill:#3ab54a;fill-opacity:1;fill-rule:nonzero;stroke:none"
           d="m 0,0 c -7.309,1.943 -14.811,-2.406 -16.754,-9.716 -1.943,-7.308 2.406,-14.81 9.715,-16.754 7.31,-1.943 14.811,2.407 16.755,9.715 C 11.659,-9.445 7.31,-1.944 0,0" /></g><g
         transform="translate(571.66589,481.61988)"
         id="g1171"><path
           inkscape:connector-curvature="0"
           id="path1173"
           style="fill:#3ab54a;fill-opacity:1;fill-rule:nonzero;stroke:none"
           d="m 0,0 c 1.662,11.722 -6.493,22.571 -18.215,24.232 -11.721,1.663 -22.57,-6.493 -24.232,-18.214 -1.662,-11.722 6.493,-22.571 18.215,-24.233 C -12.512,-19.877 -1.662,-11.722 0,0" /></g><g
         transform="translate(566.78599,571.84348)"
         id="g1175"><path
           inkscape:connector-curvature="0"
           id="path1177"
           style="fill:#3ab54a;fill-opacity:1;fill-rule:nonzero;stroke:none"
           d="m 0,0 c -14.895,0.345 -27.248,-11.45 -27.593,-26.344 -0.345,-14.894 11.449,-27.248 26.343,-27.593 14.895,-0.344 27.248,11.45 27.593,26.344 C 26.688,-12.699 14.894,-0.345 0,0" /></g><g
         transform="translate(567.87879,402.47728)"
         id="g1179"><path
           inkscape:connector-curvature="0"
           id="path1181"
           style="fill:#3ab54a;fill-opacity:1;fill-rule:nonzero;stroke:none"
           d="m 0,0 c -4.341,0 -7.859,-3.519 -7.859,-7.859 0,-4.342 3.518,-7.861 7.859,-7.861 4.341,0 7.86,3.519 7.86,7.861 C 7.86,-3.519 4.341,0 0,0" /></g><g
         transform="translate(569.44519,451.03788)"
         id="g1183"><path
           inkscape:connector-curvature="0"
           id="path1185"
           style="fill:#3ab54a;fill-opacity:1;fill-rule:nonzero;stroke:none"
           d="m 0,0 c -7.563,0 -13.694,-6.132 -13.694,-13.695 0,-7.564 6.131,-13.695 13.694,-13.695 7.563,0 13.694,6.131 13.694,13.695 C 13.694,-6.132 7.563,0 0,0" /></g><g
         transform="translate(486.18149,473.17948)"
         id="g1187"><path
           inkscape:connector-curvature="0"
           id="path1189"
           style="fill:#3ab54a;fill-opacity:1;fill-rule:nonzero;stroke:none"
           d="m 0,0 c -6.564,3.757 -14.932,1.48 -18.688,-5.083 -3.757,-6.564 -1.482,-14.932 5.083,-18.688 6.565,-3.757 14.931,-1.482 18.688,5.083 C 8.84,-12.124 6.564,-3.757 0,0" /></g><g
         transform="translate(474.88949,423.59648)"
         id="g1191"><path
           inkscape:connector-curvature="0"
           id="path1193"
           style="fill:#3ab54a;fill-opacity:1;fill-rule:nonzero;stroke:none"
           d="m 0,0 c -3.915,1.875 -8.609,0.222 -10.484,-3.693 -1.875,-3.915 -0.221,-8.61 3.694,-10.485 3.915,-1.875 8.608,-0.22 10.483,3.695 C 5.568,-6.568 3.915,-1.875 0,0" /></g><g
         transform="translate(520.20009,407.82398)"
         id="g1195"><path
           inkscape:connector-curvature="0"
           id="path1197"
           style="fill:#3ab54a;fill-opacity:1;fill-rule:nonzero;stroke:none"
           d="m 0,0 c -4.233,0.961 -8.444,-1.691 -9.405,-5.925 -0.962,-4.232 1.69,-8.443 5.924,-9.405 4.232,-0.961 8.443,1.691 9.405,5.924 C 6.886,-5.173 4.233,-0.962 0,0" /></g><g
         transform="translate(515.86609,492.50758)"
         id="g1199"><path
           inkscape:connector-curvature="0"
           id="path1201"
           style="fill:#3ab54a;fill-opacity:1;fill-rule:nonzero;stroke:none"
           d="m 0,0 c 6.275,10.039 3.225,23.265 -6.814,29.539 -10.04,6.275 -23.264,3.225 -29.54,-6.814 -6.275,-10.039 -3.224,-23.264 6.815,-29.539 C -19.5,-13.09 -6.275,-10.038 0,0" /></g></g></g></svg>