<svg xmlns="http://www.w3.org/2000/svg" xmlns:xlink="http://www.w3.org/1999/xlink" width="398" height="40" version="1.1" viewBox="0 0 398 40"><title>Page 1</title><desc>Created with Sketch.</desc><defs><path id="path-1" d="M0,0.547118644 L397.174915,0.547118644 L397.174915,40 L0,40"/><path id="path-3" d="M0,0.547118644 L397.174915,0.547118644 L397.174915,40 L0,40 L0,0.547118644 Z"/></defs><g id="Page-1" fill="none" fill-rule="evenodd" stroke="none" stroke-width="1"><g id="enterprise-i-sent" transform="translate(-489.000000, -140.000000)"><g id="Page-1" transform="translate(489.000000, 140.000000)"><path id="Fill-1" fill="#fff" d="M165.487729,32.0911864 C171.096542,32.0911864 175.802983,28.2477966 177.129085,23.0518644 C177.136542,23.0138983 177.143322,22.9752542 177.143322,22.9352542 C177.143322,22.619322 176.887051,22.3637288 176.572475,22.3637288 L171.727051,22.3637288 C171.49722,22.3637288 171.299254,22.5 171.209085,22.6972881 L171.207729,22.6966102 C170.212475,24.8627119 168.02739,26.3684746 165.487729,26.3684746 C162.012475,26.3684746 159.192814,23.5508475 159.192814,20.0742373 C159.192814,16.5983051 162.012475,13.779322 165.487729,13.779322 C168.02739,13.779322 170.212475,15.2850847 171.207729,17.4518644 L171.209085,17.4505085 C171.299254,17.6471186 171.49722,17.7847458 171.727051,17.7847458 L176.572475,17.7847458 C176.887051,17.7847458 177.143322,17.5291525 177.143322,17.2125424 C177.143322,17.1732203 177.136542,17.1366102 177.129085,17.0979661 C175.804339,11.9027119 171.096542,8.05728814 165.487729,8.05728814 C158.853153,8.05728814 153.470102,13.4389831 153.470102,20.0742373 C153.470102,26.7108475 158.853153,32.0911864 165.487729,32.0911864 L165.487729,32.0911864 Z M186.135186,8.62949153 L186.135186,30.9461017 C186.135186,31.2613559 185.878915,31.5183051 185.564339,31.5183051 L180.986034,31.5183051 C180.670102,31.5183051 180.413831,31.2613559 180.413831,30.9461017 L180.413831,8.62949153 L186.135186,8.62949153 Z M183.274847,0.618644068 C181.378576,0.618644068 179.841627,2.15627119 179.841627,4.05186441 C179.841627,5.94813559 181.378576,7.48576271 183.274847,7.48576271 C185.171797,7.48576271 186.70739,5.94813559 186.70739,4.05186441 C186.70739,2.15627119 185.171797,0.618644068 183.274847,0.618644068 L183.274847,0.618644068 Z M129.74739,17.7847458 C130.75078,14.1569492 134.074169,11.4911864 138.021288,11.4911864 C141.969085,11.4911864 145.289763,14.1569492 146.293153,17.7847458 L129.74739,17.7847458 Z M138.021288,8.05728814 C131.384,8.05728814 126.003661,13.4369492 126.003661,20.0742373 C126.003661,26.7101695 131.384,32.0911864 138.021288,32.0911864 C142.713492,32.0911864 146.773153,29.4010169 148.752136,25.4810169 C148.791458,25.4030508 148.813831,25.3169492 148.813831,25.2233898 C148.813831,24.9067797 148.557559,24.6518644 148.241627,24.6518644 L145.586034,24.6518644 C145.396881,24.6518644 145.228746,24.7447458 145.125695,24.8871186 C143.58061,27.1616949 140.975864,28.6572881 138.021288,28.6572881 C133.668746,28.6572881 130.075525,25.4172881 129.515525,21.2179661 L149.449763,21.2179661 C149.756203,21.2179661 150.005017,20.9766102 150.02061,20.6749153 C150.031458,20.4755932 150.036881,20.2755932 150.036881,20.0742373 C150.036881,13.4369492 144.657898,8.05728814 138.021288,8.05728814 L138.021288,8.05728814 Z M121.998237,1.19084746 L119.710102,1.19084746 C119.392814,1.19084746 119.137898,1.44711864 119.137898,1.76305085 L119.137898,30.9461017 C119.137898,31.2613559 119.392814,31.5183051 119.710102,31.5183051 L121.998237,31.5183051 C122.314169,31.5183051 122.571119,31.2613559 122.571119,30.9461017 L122.571119,1.76305085 C122.571119,1.44711864 122.314169,1.19084746 121.998237,1.19084746 L121.998237,1.19084746 Z M115.131119,24.6518644 L112.474847,24.6518644 C112.289763,24.6518644 112.125695,24.740678 112.022644,24.8769492 C110.480271,27.1569492 107.87078,28.6572881 104.911458,28.6572881 C100.169085,28.6572881 96.3270508,24.8145763 96.3270508,20.0742373 C96.3270508,15.3332203 100.169085,11.4911864 104.911458,11.4911864 C107.87078,11.4911864 110.480271,12.9915254 112.022644,15.2715254 C112.127051,15.4084746 112.291119,15.4966102 112.474847,15.4966102 L115.131119,15.4966102 C115.447729,15.4966102 115.704678,15.239661 115.704678,14.9244068 C115.704678,14.8308475 115.680949,14.7447458 115.640949,14.6674576 C113.663322,10.7474576 109.600949,8.05728814 104.911458,8.05728814 C98.2741695,8.05728814 92.8945085,13.4369492 92.8945085,20.0742373 C92.8945085,26.7101695 98.2741695,32.0911864 104.911458,32.0911864 C109.600949,32.0911864 113.663322,29.4010169 115.640949,25.4810169 C115.680949,25.4030508 115.704678,25.3169492 115.704678,25.2233898 C115.704678,24.9067797 115.447729,24.6518644 115.131119,24.6518644 L115.131119,24.6518644 Z M92.3304407,8.07152542 C88.8673898,8.23491525 86.1019661,9.88915254 84.3107797,12.4159322 L84.3107797,9.20101695 C84.3107797,8.88644068 84.0538305,8.62949153 83.7378983,8.62949153 L81.4497627,8.62949153 C81.1331525,8.62949153 80.8775593,8.88644068 80.8775593,9.20101695 L80.8775593,30.9461017 C80.8775593,31.2613559 81.1331525,31.5183051 81.4497627,31.5183051 L83.7378983,31.5183051 C84.0538305,31.5183051 84.3107797,31.2613559 84.3107797,30.9461017 L84.3107797,20.0742373 C84.3107797,15.5264407 87.8484068,11.8050847 92.3209492,11.5108475 C92.6368814,11.5108475 92.8945085,11.2538983 92.8945085,10.9372881 L92.8945085,8.64372881 C92.8945085,8.32983051 92.6423051,8.07762712 92.3304407,8.07152542 L92.3304407,8.07152542 Z M77.443661,30.9461017 L77.443661,8.62949153 L74.0097627,8.62949153 L74.0097627,30.9461017 C74.0097627,31.2613559 74.2667119,31.5183051 74.5826441,31.5183051 L76.8714576,31.5183051 C77.1873898,31.5183051 77.443661,31.2613559 77.443661,30.9461017 L77.443661,30.9461017 Z M78.0151864,4.05186441 C78.0151864,5.31627119 76.9914576,6.34067797 75.7270508,6.34067797 C74.463322,6.34067797 73.4382373,5.31627119 73.4382373,4.05186441 C73.4382373,2.78813559 74.463322,1.76305085 75.7270508,1.76305085 C76.9914576,1.76305085 78.0151864,2.78813559 78.0151864,4.05186441 L78.0151864,4.05186441 Z M70.004339,24.6518644 L67.3487458,24.6518644 C67.1623051,24.6518644 67.0002712,24.740678 66.8951864,24.8769492 C65.3534915,27.1569492 62.744,28.6572881 59.784,28.6572881 C55.0423051,28.6572881 51.2002712,24.8145763 51.2002712,20.0742373 C51.2002712,15.3332203 55.0423051,11.4911864 59.784,11.4911864 C62.744,11.4911864 65.3534915,12.9915254 66.8958644,15.2715254 C67.0002712,15.4084746 67.164339,15.4966102 67.3487458,15.4966102 L70.004339,15.4966102 C70.3209492,15.4966102 70.5778983,15.239661 70.5778983,14.9244068 C70.5778983,14.8308475 70.5534915,14.7447458 70.5155254,14.6674576 C68.5365424,10.7474576 64.4741695,8.05728814 59.784,8.05728814 C53.1467119,8.05728814 47.7656949,13.4369492 47.7656949,20.0742373 C47.7656949,26.7101695 53.1467119,32.0911864 59.784,32.0911864 C64.4741695,32.0911864 68.5365424,29.4010169 70.5155254,25.4810169 C70.5534915,25.4030508 70.5778983,25.3169492 70.5778983,25.2233898 C70.5778983,24.9067797 70.3209492,24.6518644 70.004339,24.6518644 L70.004339,24.6518644 Z M18.9412881,0.547457627 C9.82671186,0.547457627 2.17722034,6.79220339 0.0246779661,15.2355932 C0.00976271186,15.2972881 0.00027118644,15.359661 0.00027118644,15.4247458 C0.00027118644,15.9386441 0.416542373,16.3549153 0.929762712,16.3549153 L8.80027119,16.3549153 C9.17518644,16.3549153 9.49586441,16.1311864 9.64366102,15.8118644 L9.64501695,15.8118644 C11.2619661,12.2918644 14.8138305,9.84508475 18.9412881,9.84508475 C24.5887458,9.84508475 29.1697627,14.4254237 29.1697627,20.0742373 C29.1697627,25.7223729 24.5887458,30.3033898 18.9412881,30.3033898 C14.8138305,30.3033898 11.2619661,27.8566102 9.64501695,24.3352542 L9.64366102,24.3372881 C9.49586441,24.0172881 9.17518644,23.7942373 8.80027119,23.7942373 L0.929762712,23.7942373 C0.416542373,23.7942373 0.00027118644,24.2091525 0.00027118644,24.7237288 C0.00027118644,24.7874576 0.00976271186,24.8484746 0.0233220339,24.9088136 C2.17518644,33.3528814 9.82467797,39.600339 18.9412881,39.600339 C29.724339,39.600339 38.4673898,30.8572881 38.4673898,20.0742373 C38.4673898,9.28983051 29.724339,0.547457627 18.9412881,0.547457627 L18.9412881,0.547457627 Z M14.2917966,20.0742373 C14.2917966,17.5067797 16.3738305,15.4247458 18.9412881,15.4247458 C21.5087458,15.4247458 23.5901017,17.5067797 23.5901017,20.0742373 C23.5901017,22.6410169 21.5087458,24.7237288 18.9412881,24.7237288 C16.3738305,24.7237288 14.2917966,22.6410169 14.2917966,20.0742373 L14.2917966,20.0742373 Z"/><path id="Fill-3" fill="#fff" d="M205.304068,31.5181695 L205.304068,0.771050847 L224.111525,0.771050847 L224.111525,2.15410169 L206.779322,2.15410169 L206.779322,15.0151186 L223.788814,15.0151186 L223.788814,16.3981695 L206.779322,16.3981695 L206.779322,30.1351186 L224.111525,30.1351186 L224.111525,31.5181695 L205.304068,31.5181695 Z"/><path id="Fill-5" fill="#fff" d="M245.964203,31.5181695 L245.964203,15.9832542 C245.964203,11.327661 243.659119,9.94528814 240.202169,9.94528814 C237.159458,9.94528814 233.886915,11.9269831 232.319458,14.1391864 L232.319458,31.5181695 L230.936407,31.5181695 L230.936407,9.25308475 L232.319458,9.25308475 L232.319458,12.7568136 C233.979119,10.728339 237.297763,8.70054237 240.386576,8.70054237 C244.811661,8.70054237 247.347254,10.728339 247.347254,15.9832542 L247.347254,31.5181695 L245.964203,31.5181695 Z"/><path id="Fill-7" fill="#fff" d="M255.555051,27.6 L255.555051,10.4976271 L251.867593,10.4976271 L251.867593,9.25288136 L255.555051,9.25288136 L255.555051,3.16881356 L256.938102,3.16881356 L256.938102,9.25288136 L261.45539,9.25288136 L261.45539,10.4976271 L256.938102,10.4976271 L256.938102,27.6 C256.938102,29.4894915 257.675051,30.8271186 259.33539,30.8271186 C260.441831,30.8271186 261.409288,30.2732203 261.962508,29.6277966 L262.792339,30.6888136 C261.916407,31.5179661 260.994373,32.0718644 259.33539,32.0718644 C256.753695,32.0718644 255.555051,30.3654237 255.555051,27.6"/><path id="Fill-9" fill="#fff" d="M276.299525,9.94501695 C270.583593,9.94501695 267.586983,15.1999322 267.448678,19.5789153 L285.196475,19.5789153 C285.196475,15.2921356 282.384949,9.94501695 276.299525,9.94501695 M265.881898,20.3626441 C265.881898,13.9090847 270.353085,8.70027119 276.345627,8.70027119 C283.168,8.70027119 286.671729,14.1856949 286.671729,20.3626441 L286.671729,20.823661 L267.448678,20.823661 C267.586983,26.2629831 271.136814,30.8270508 276.806644,30.8270508 C279.941559,30.8270508 282.476475,29.6745085 284.551051,27.4616271 L285.380881,28.3375593 C283.121898,30.6887458 280.540881,32.0717966 276.806644,32.0717966 C270.353085,32.0717966 265.881898,27.1389153 265.881898,20.3626441"/><path id="Fill-11" fill="#fff" d="M293.404271,31.5181695 L293.404271,9.25308475 L294.787322,9.25308475 L294.787322,13.3100339 C296.769017,10.6829153 299.212407,8.83816949 302.438847,8.83816949 L302.438847,10.4978305 C302.023932,10.4517288 301.748,10.4517288 301.332407,10.4517288 C298.981898,10.4517288 295.800881,12.7568136 294.787322,14.8313898 L294.787322,31.5181695 L293.404271,31.5181695 Z"/><g id="Group-15"><mask id="mask-2" fill="#fff"><use xlink:href="#path-1"/></mask><path id="Fill-13" fill="#fff" d="M325.257763,20.3628475 C325.257763,14.5079322 322.261831,9.94522034 316.821831,9.94522034 C313.364881,9.94522034 310.183864,12.0191186 308.801492,14.3703051 L308.801492,26.3092881 C310.183864,28.6597966 313.364881,30.8272542 316.821831,30.8272542 C322.261831,30.8272542 325.257763,26.2170847 325.257763,20.3628475 M308.801492,27.692339 L308.801492,40.0001356 L307.418441,40.0001356 L307.418441,9.25301695 L308.801492,9.25301695 L308.801492,12.9872542 C310.322169,10.6828475 313.31878,8.70047458 316.821831,8.70047458 C322.814373,8.70047458 326.779119,13.3099661 326.779119,20.3628475 C326.779119,27.3696271 322.814373,32.072 316.821831,32.072 C313.503186,32.072 310.59878,30.3201356 308.801492,27.692339" mask="url(#mask-2)"/></g><path id="Fill-16" fill="#fff" d="M333.327458,31.5181695 L333.327458,9.25308475 L334.710508,9.25308475 L334.710508,13.3100339 C336.692203,10.6829153 339.135593,8.83816949 342.362034,8.83816949 L342.362034,10.4978305 C341.947119,10.4517288 341.671186,10.4517288 341.255593,10.4517288 C338.905085,10.4517288 335.724068,12.7568136 334.710508,14.8313898 L334.710508,31.5181695 L333.327458,31.5181695 Z"/><mask id="mask-4" fill="#fff"><use xlink:href="#path-3"/></mask><path id="Fill-18" fill="#fff" d="M347.341695,9.25288136 L348.724746,9.25288136 L348.724746,31.5179661 L347.341695,31.5179661 L347.341695,9.25288136 Z M346.696271,4.09016949 C346.696271,3.35254237 347.341695,2.75389831 348.03322,2.75389831 C348.770847,2.75389831 349.370169,3.35254237 349.370169,4.09016949 C349.370169,4.82779661 348.770847,5.42711864 348.03322,5.42711864 C347.341695,5.42711864 346.696271,4.82779661 346.696271,4.09016949 L346.696271,4.09016949 Z" mask="url(#mask-4)"/><path id="Fill-20" fill="#fff" d="M354.717831,28.5215593 L355.824271,27.508 C357.207322,29.3520678 359.603932,30.8266441 362.877153,30.8266441 C366.979525,30.8266441 369.469017,28.6144407 369.469017,25.6639322 C369.469017,18.8415593 355.178847,22.3907119 355.178847,14.6008814 C355.178847,11.327661 357.944949,8.70054237 362.738847,8.70054237 C366.56461,8.70054237 368.961898,10.2212203 370.391051,12.0652881 L369.376814,12.987322 C368.085966,11.1432542 365.73478,9.94528814 362.738847,9.94528814 C358.866305,9.94528814 356.561898,11.9730847 356.561898,14.6008814 C356.561898,20.8239322 370.852068,17.228 370.852068,25.6639322 C370.852068,29.1215593 368.270373,32.0713898 362.877153,32.0713898 C359.373424,32.0713898 356.930712,31.0571525 354.717831,28.5215593" mask="url(#mask-4)"/><path id="Fill-21" fill="#fff" d="M386.80339,9.94501695 C381.08678,9.94501695 378.090847,15.1999322 377.952542,19.5789153 L395.700339,19.5789153 C395.700339,15.2921356 392.888136,9.94501695 386.80339,9.94501695 M376.385085,20.3626441 C376.385085,13.9090847 380.856949,8.70027119 386.849492,8.70027119 C393.671864,8.70027119 397.174915,14.1856949 397.174915,20.3626441 L397.174915,20.823661 L377.952542,20.823661 C378.090847,26.2629831 381.640678,30.8270508 387.310508,30.8270508 C390.444746,30.8270508 392.980339,29.6745085 395.054237,27.4616271 L395.884746,28.3375593 C393.625763,30.6887458 391.044068,32.0717966 387.310508,32.0717966 C380.856949,32.0717966 376.385085,27.1389153 376.385085,20.3626441" mask="url(#mask-4)"/></g></g></g></svg>