<svg xmlns="http://www.w3.org/2000/svg" xmlns:xlink="http://www.w3.org/1999/xlink" width="18" height="22" version="1.1" viewBox="0 0 18 22"><title>content/admin</title><desc>Created with Sketch.</desc><defs><path id="path-1" d="M12,1 C14.5043478,3.19230769 17.673913,4.42307692 21,4.53846154 L21,16.0769231 C19.5521739,19.3076923 16.7347826,21.6923077 13.2913043,22.6153846 L12,23 L10.7086957,22.6538462 C7.26521739,21.6923077 4.44782609,19.3076923 3,16.1153846 L3,4.53846154 C6.32608696,4.46153846 9.49565217,3.19230769 12,1 Z M14.8956522,16.1923077 L14.3478261,13 L16.6956522,10.7307692 L13.4478261,10.2692308 L12,7.38461538 L10.5521739,10.2692308 L7.30434783,10.7307692 L9.65217391,13 L9.10434783,16.1923077 L12,14.6923077 L14.8956522,16.1923077 Z"/></defs><g id="Documentation" fill="none" fill-rule="evenodd" stroke="none" stroke-width="1"><g id="Docs-Home-1" transform="translate(-137.000000, -463.000000)"><g id="content/admin" transform="translate(134.000000, 462.000000)"><g id="icons/navigation/admin"><polygon id="Shape" points="0 0 24 0 24 24 0 24"/><mask id="mask-2" fill="#fff"><use xlink:href="#path-1"/></mask><use id="Shape" fill="#000" fill-rule="nonzero" xlink:href="#path-1"/><g id="neutral/@n900-(#161616)" fill="#161616" mask="url(#mask-2)"><rect id="Path" width="24" height="24" x="0" y="0"/></g></g></g></g></g></svg>