<svg xmlns="http://www.w3.org/2000/svg" xmlns:xlink="http://www.w3.org/1999/xlink" width="20" height="16" version="1.1" viewBox="0 0 20 16"><title>navigation/builds</title><desc>Created with Sketch.</desc><defs><path id="path-1" d="M2,20 L22,20 L22,16 L2,16 L2,20 L2,20 Z M4,17 L6,17 L6,19 L4,19 L4,17 L4,17 Z M2,4 L2,8 L22,8 L22,4 L2,4 L2,4 Z M6,7 L4,7 L4,5 L6,5 L6,7 L6,7 Z M2,14 L22,14 L22,10 L2,10 L2,14 L2,14 Z M4,11 L6,11 L6,13 L4,13 L4,11 L4,11 Z"/></defs><g id="Documentation" fill="none" fill-rule="evenodd" stroke="none" stroke-width="1"><g id="icons" transform="translate(-101.000000, -158.000000)"><g id="navigation/builds" transform="translate(99.000000, 154.000000)"><g id="icons/domain/builds"><polygon id="Shape" points="0 0 24 0 24 24 0 24"/><mask id="mask-2" fill="#fff"><use xlink:href="#path-1"/></mask><use id="Shape" fill="#000" xlink:href="#path-1"/><g id="neutral/@n900-(#161616)" fill="#161616" mask="url(#mask-2)"><rect id="Path" width="24" height="24" x="0" y="0"/></g></g></g></g></g></svg>