<svg xmlns="http://www.w3.org/2000/svg" xmlns:xlink="http://www.w3.org/1999/xlink" width="19" height="22" version="1.1" viewBox="0 0 19 22"><title>config</title><desc>Created with Sketch.</desc><g id="icons" fill="none" fill-rule="evenodd" stroke="none" stroke-width="1"><g id="config" fill="#000" fill-rule="nonzero"><g transform="translate(-139.000000, -410.000000) translate(139.000000, 410.000000)"><path id="Shape" d="M2.11110711,0 C0.945142446,0 0,0.900006025 0,1.99999475 L0,9.9999875 L0,13.999977 L0,20.000008 C0,21.1000077 0.945142446,22 2.11110711,22 L16.888888,22 C18.0552808,22 19,21.1000077 19,20.000008 L19,13.999977 L19,9.9999875 L19,5.999976 L12.6666688,3.12638726e-14 L2.1111074,3.12638726e-14 L2.11110711,0 Z M8.41145549,5.999976 C8.46093858,5.97495101 8.52968016,5.999976 8.60937624,5.999976 L10.423613,5.999976 L10.6215285,5.999976 C10.6816953,6.09999348 10.7142078,6.08748098 10.7204357,6.18749845 L10.9513344,7.5937381 C11.2205027,7.69372808 11.4851827,7.77499056 11.7100171,7.87498053 L12.8645309,7.09370573 C12.9141199,6.99374325 12.9801129,7.00001325 13.0624467,7.00001325 C13.1342231,7.00001325 13.1938665,6.99396325 13.2603619,7.09370573 C13.9686426,7.69372808 14.4473355,8.17497796 14.6457793,8.37495791 C14.68379,8.47497538 14.6787148,8.49370288 14.6787148,8.59372035 C14.6787148,8.69373783 14.657092,8.68122533 14.6127431,8.7812428 C14.5304092,8.88126028 14.4153515,9.08124023 14.2169077,9.28122018 C14.019521,9.48120013 13.8532725,9.68123508 13.7551052,9.78119755 C13.8976008,10.0812225 14.0026301,10.3937379 14.0849639,10.5937179 L15.602325,10.7812403 C15.6730495,10.7812403 15.7229236,10.8749328 15.7672568,10.8749328 C15.8105544,10.9749228 15.8332286,10.9937053 15.8332286,11.0937227 L15.8332286,12.7811773 C15.8332286,12.8811948 15.8105492,12.9999398 15.7672568,12.9999398 C15.7229024,13.0999022 15.6687728,13.0936597 15.602325,13.0936597 L14.0849639,13.2811272 C13.9804633,13.5811246 13.8659391,13.8936345 13.7551052,14.0936145 C13.9482677,14.2936219 14.249896,14.6936368 14.6457268,15.0936517 C14.7006177,15.1936142 14.744634,15.2811192 14.744634,15.2811192 C14.744634,15.3811367 14.6953628,15.4998816 14.6457268,15.4998816 C14.4968978,15.6998616 14.249896,15.9748615 13.8540603,16.3749039 C13.4582296,16.6749013 13.1837852,16.8748813 13.0623939,16.8748813 C12.9969507,16.8748813 12.9415364,16.8809313 12.8644784,16.7811613 L11.7100705,15.999969 C11.4683448,16.0999865 11.2099981,16.1812215 10.9513869,16.2812389 C10.8637773,16.9812513 10.7912078,17.4874986 10.7204883,17.6874786 C10.6814201,17.8874585 10.582999,17.999961 10.423613,17.999961 L8.60937624,17.999961 C8.53231849,17.999961 8.43863944,17.875001 8.37847238,17.875001 C8.32358141,17.875001 8.31777673,17.7874961 8.31250063,17.6874786 L8.08159707,16.2812389 C7.81242849,16.1812215 7.54796009,16.0999865 7.32291374,15.999969 L6.16839996,16.7812163 C6.11340856,16.8812338 6.05292423,16.8749363 5.97048473,16.8749363 C5.89353264,16.8749363 5.80006491,16.8809863 5.73958087,16.7812163 C5.04682168,16.1812215 4.6016405,15.7999891 4.38715156,15.4999916 C4.3487179,15.4999916 4.32117982,15.3812192 4.32117982,15.2812017 C4.32117982,15.2812017 4.34322643,15.1937242 4.38715156,15.0937617 C4.46969701,14.9937443 4.61805542,14.8937268 4.81597095,14.5937019 C5.01388618,14.3937219 5.17876517,14.193742 5.27777837,14.0937245 C5.12926147,13.7937271 4.99198355,13.5812071 4.91493103,13.2812097 L3.4305533,13.0937422 C3.35898819,13.0937422 3.27665436,13.0997922 3.23263778,13.0000497 C3.1886003,12.9000323 3.16666604,12.8813048 3.16666604,12.7812873 L3.16666604,11.0938052 C3.16666604,10.9937878 3.18860524,10.9750053 3.23263778,10.8750428 C3.27667555,10.7750253 3.33703274,10.7813503 3.3975699,10.7813503 L4.94791443,10.5938279 C5.02486652,10.2938249 5.10735885,10.07509 5.24479004,9.87505503 C5.02491935,9.57505761 4.75553945,9.1813127 4.38715156,8.7813253 C4.33215494,8.68130783 4.28824431,8.69384783 4.28824431,8.59383035 C4.28824431,8.49381288 4.30468565,8.47508538 4.35421606,8.37506791 C4.49713988,8.17506046 4.78303515,7.89384553 5.17887112,7.5938481 C5.58019451,7.1938332 5.8495689,7.00006825 5.97053756,7.00006825 C6.04199672,7.00006825 6.09699334,6.99401825 6.16845279,7.09376073 L7.32291374,7.87498053 C7.56442784,7.77499056 7.78999726,7.69372808 8.04860844,7.5937381 C8.13622359,6.89372578 8.2407242,6.3874784 8.31250063,6.18749845 C8.331479,6.08748098 8.36198343,6.02497349 8.41140295,5.999976 L8.41145549,5.999976 Z M9.49999753,9.9999875 C8.91733262,9.9999875 8.42834647,10.1999675 8.01562474,10.4999704 C7.60290388,10.8999853 7.38889042,11.3999627 7.38889042,11.999985 C7.38889042,12.4999624 7.60290388,12.9749973 8.01562474,13.3749847 C8.42834647,13.7749996 8.91733262,13.999977 9.49999753,13.999977 C10.082668,13.999977 10.605695,13.7749996 11.017359,13.3749847 C11.4300856,12.9749973 11.6111099,12.4999624 11.6111099,11.999985 C11.6111099,11.3999627 11.4300853,10.8999853 11.017359,10.4999704 C10.605695,10.1999675 10.082668,9.9999875 9.49999753,9.9999875 Z"/></g></g></g></svg>