<svg xmlns="http://www.w3.org/2000/svg" xmlns:xlink="http://www.w3.org/1999/xlink" width="20" height="20" version="1.1" viewBox="0 0 20 20"><title>actions/new-window</title><desc>Created with Sketch.</desc><defs><path id="path-1" d="M18,20 L18,15 L20,15 L20,20.5941275 C20,21.3701067 19.35529,21.999162 18.56,21.999162 L3.44085883,21.999162 C3.05495161,22.0123862 2.68075435,21.8686072 2.4077085,21.6021913 C2.13466265,21.3357755 1.98730555,20.9706643 2.00085883,20.5941275 L2.00085883,5.40587245 C1.98730555,5.02933568 2.13466265,4.66422454 2.4077085,4.39780868 C2.68075435,4.13139282 3.05495161,3.9876138 3.44085883,4.00083798 L9,4.00083798 L9,6 L4,6 L4,20 L18,20 Z M22,3 L22,11 C22,11.5522847 21.5522847,12 21,12 C20.4477153,12 20,11.5522847 20,11 L20,5.41421356 L13.4142136,12 C13.0236893,12.3905243 12.3905243,12.3905243 12,12 C11.6094757,11.6094757 11.6094757,10.9763107 12,10.5857864 L18.5857864,4 L13,4 C12.4477153,4 12,3.55228475 12,3 C12,2.44771525 12.4477153,2 13,2 L21,2 C21.5522847,2 22,2.44771525 22,3 Z"/></defs><g id="Documentation" fill="none" fill-rule="evenodd" stroke="none" stroke-width="1"><g id="Docs-Home-1" transform="translate(-137.000000, -377.000000)"><g id="actions/new-window" transform="translate(135.000000, 375.000000)"><g id="icons/actions/new-window"><polygon id="Shape" points="0 0 24 0 24 24 0 24"/><mask id="mask-2" fill="#fff"><use xlink:href="#path-1"/></mask><use id="Combined-Shape" fill="#000" fill-rule="nonzero" xlink:href="#path-1"/><g id="neutral/@n900-(#161616)" fill="#161616" mask="url(#mask-2)"><rect id="Path" width="24" height="24" x="0" y="0"/></g></g></g></g></g></svg>