<svg viewBox="0 0 24 24" fill="none" xmlns="http://www.w3.org/2000/svg">
<path fill-rule="evenodd" clip-rule="evenodd" d="M12 20C15.866 20 19 16.866 19 13C19 9.13401 15.866 6 12 6C8.13401 6 5 9.13401 5 13C5 16.866 8.13401 20 12 20ZM12 22C7.02944 22 3 17.9706 3 13C3 8.02944 7.02944 4 12 4C16.9706 4 21 8.02944 21 13C21 17.9706 16.9706 22 12 22ZM11 1H13C13.5523 1 14 1.44772 14 2C14 2.55228 13.5523 3 13 3H11C10.4477 3 10 2.55228 10 2C10 1.44772 10.4477 1 11 1ZM19.7782 3.80761L21.1924 5.22183C21.5829 5.61235 21.5829 6.24551 21.1924 6.63604C20.8019 7.02656 20.1687 7.02656 19.7782 6.63604L18.364 5.22183C17.9734 4.8313 17.9734 4.19814 18.364 3.80761C18.7545 3.41709 19.3876 3.41709 19.7782 3.80761ZM13 9V12.5858L14.7071 14.2929C15.0976 14.6834 15.0976 15.3166 14.7071 15.7071C14.3166 16.0976 13.6834 16.0976 13.2929 15.7071L11.2929 13.7071C11.1054 13.5196 11 13.2652 11 13V9C11 8.44772 11.4477 8 12 8C12.5523 8 13 8.44772 13 9Z" fill="#161616"/>
</svg>
