<svg xmlns="http://www.w3.org/2000/svg" xmlns:xlink="http://www.w3.org/1999/xlink" width="16" height="20" version="1.1" viewBox="0 0 16 20"><title>navigation/project</title><desc>Created with Sketch.</desc><defs><path id="path-1" d="M14,0 L2,0 C0.9,0 0,0.9 0,2 L0,18 C0,19.1 0.9,20 2,20 L14,20 C15.1,20 16,19.1 16,18 L16,2 C16,0.9 15.1,0 14,0 L14,0 Z M7,3 L7,10 L4.5,8.5 L2,10 L2,3 C2,2.44771525 2.44771525,2 3,2 L6,2 C6.55228475,2 7,2.44771525 7,3 Z"/></defs><g id="Documentation" fill="none" fill-rule="evenodd" stroke="none" stroke-width="1"><g id="icons" transform="translate(-101.000000, -198.000000)"><g id="navigation/project" transform="translate(97.000000, 196.000000)"><g id="icons/domain/project" transform="translate(4.000000, 2.000000)"><mask id="mask-2" fill="#fff"><use xlink:href="#path-1"/></mask><use id="Shape" fill="#000" xlink:href="#path-1"/><g id="neutral/@n900-(#161616)" fill="#161616" mask="url(#mask-2)"><g id="Path" transform="translate(-4.000000, -2.000000)"><rect width="24" height="24" x="0" y="0"/></g></g></g></g></g></g></svg>