<svg xmlns="http://www.w3.org/2000/svg" xmlns:xlink="http://www.w3.org/1999/xlink" width="19" height="18" version="1.1" viewBox="0 0 19 18"><title>reference</title><desc>Created with Sketch.</desc><g id="icons" fill="none" fill-rule="evenodd" stroke="none" stroke-width="1"><g id="reference" fill="#161616"><path d="M118.292411,458.191964 C118.590031,458.616074 118.656995,459.095979 118.493304,459.631696 L115.424107,469.743304 C115.282737,470.219496 114.998142,470.619418 114.570312,470.94308 C114.142483,471.266743 113.686758,471.428571 113.203125,471.428571 L102.901786,471.428571 C102.328866,471.428571 101.776416,471.229541 101.24442,470.831473 C100.712423,470.433406 100.342263,469.944199 100.133929,469.363839 C99.9553562,468.865325 99.9479158,468.392859 100.111607,467.946429 C100.111607,467.916667 100.122768,467.816221 100.145089,467.645089 C100.167411,467.473957 100.182292,467.33631 100.189732,467.232143 C100.197173,467.172619 100.186012,467.092634 100.15625,466.992188 C100.126488,466.891741 100.115327,466.819197 100.122768,466.774554 C100.137649,466.692708 100.16741,466.614584 100.212054,466.540179 C100.256697,466.465773 100.31808,466.378349 100.396205,466.277902 C100.474331,466.177455 100.535714,466.09003 100.580357,466.015625 C100.751489,465.732885 100.918898,465.392487 101.082589,464.99442 C101.246281,464.596352 101.357887,464.255954 101.417411,463.973214 C101.439732,463.898809 101.441592,463.787203 101.422991,463.638393 C101.40439,463.489583 101.40253,463.385417 101.417411,463.325893 C101.439732,463.244047 101.502976,463.139882 101.607143,463.013393 C101.71131,462.886904 101.774553,462.80134 101.796875,462.756696 C101.953126,462.488838 102.109374,462.146579 102.265625,461.729911 C102.421876,461.313242 102.514881,460.978424 102.544643,460.725446 C102.552083,460.658482 102.542783,460.539435 102.516741,460.368304 C102.490699,460.197172 102.492559,460.093006 102.522321,460.055804 C102.552083,459.959077 102.633928,459.845611 102.767857,459.715402 C102.901786,459.585193 102.983631,459.501488 103.013393,459.464286 C103.154763,459.270832 103.312871,458.956475 103.487723,458.521205 C103.662575,458.085935 103.764881,457.726936 103.794643,457.444196 C103.802083,457.384672 103.790923,457.289807 103.761161,457.159598 C103.731399,457.029389 103.723958,456.930804 103.738839,456.863839 C103.75372,456.804315 103.787202,456.737352 103.839286,456.662946 C103.891369,456.588541 103.958333,456.502977 104.040179,456.40625 C104.122024,456.309523 104.185268,456.231399 104.229911,456.171875 C104.289435,456.082589 104.350818,455.969123 104.414062,455.831473 C104.477307,455.693824 104.53311,455.563617 104.581473,455.440848 C104.629837,455.31808 104.68936,455.184153 104.760045,455.039062 C104.83073,454.893972 104.903273,454.774926 104.977679,454.68192 C105.052084,454.588913 105.150669,454.501489 105.273438,454.419643 C105.396206,454.337797 105.530133,454.295015 105.675223,454.291295 C105.820313,454.287574 105.997023,454.308035 106.205357,454.352679 L106.194196,454.386161 C106.476936,454.319196 106.666666,454.285714 106.763393,454.285714 L115.256696,454.285714 C115.807294,454.285714 116.231397,454.494046 116.529018,454.910714 C116.826638,455.327383 116.893602,455.811009 116.729911,456.361607 L113.671875,466.473214 C113.404017,467.358635 113.138022,467.929686 112.873884,468.186384 C112.609746,468.443082 112.1317,468.571429 111.439732,468.571429 L101.741071,468.571429 C101.540178,468.571429 101.39881,468.627232 101.316964,468.738839 C101.235119,468.857888 101.231398,469.017856 101.305804,469.21875 C101.484376,469.739586 102.020085,470 102.912946,470 L113.214286,470 C113.430061,470 113.638392,469.942337 113.839286,469.827009 C114.04018,469.711681 114.170387,469.557293 114.229911,469.363839 L117.578125,458.348214 C117.630209,458.184523 117.64881,457.972472 117.633929,457.712054 C117.916668,457.823661 118.13616,457.98363 118.292411,458.191964 Z M106.417411,458.214286 C106.387649,458.311012 106.395089,458.394717 106.439732,458.465402 C106.484375,458.536087 106.558779,458.571429 106.662946,458.571429 L113.448661,458.571429 C113.545387,458.571429 113.640253,458.536087 113.733259,458.465402 C113.826265,458.394717 113.887649,458.311012 113.917411,458.214286 L114.151786,457.5 C114.181548,457.403273 114.174107,457.319569 114.129464,457.248884 C114.084821,457.178199 114.010417,457.142857 113.90625,457.142857 L107.120536,457.142857 C107.023809,457.142857 106.928944,457.178199 106.835938,457.248884 C106.742931,457.319569 106.681548,457.403273 106.651786,457.5 L106.417411,458.214286 Z M105.491071,461.071429 C105.461309,461.168155 105.46875,461.25186 105.513393,461.322545 C105.558036,461.39323 105.63244,461.428571 105.736607,461.428571 L112.522321,461.428571 C112.619048,461.428571 112.713913,461.39323 112.80692,461.322545 C112.899926,461.25186 112.961309,461.168155 112.991071,461.071429 L113.225446,460.357143 C113.255208,460.260416 113.247768,460.176712 113.203125,460.106027 C113.158482,460.035342 113.084078,460 112.979911,460 L106.194196,460 C106.09747,460 106.002605,460.035342 105.909598,460.106027 C105.816592,460.176712 105.755208,460.260416 105.725446,460.357143 L105.491071,461.071429 Z" transform="translate(-100.000000, -454.000000)"/></g></g></svg>