<svg xmlns="http://www.w3.org/2000/svg" xmlns:xlink="http://www.w3.org/1999/xlink" width="18" height="21" version="1.1" viewBox="0 0 18 21"><title>welcome</title><desc>Created with Sketch.</desc><g id="icons" fill="none" fill-rule="evenodd" stroke="none" stroke-width="1"><g id="welcome" fill="#161616"><path d="M115.976524,74.5000298 C116.39319,74.5000298 116.751262,74.6562794 117.050741,74.9687787 C117.350219,75.2812779 117.499958,75.6458602 117.499958,76.0625261 L117.499958,81.9218871 C117.499958,82.5208438 117.434854,83.0937593 117.304646,83.640633 L116.249961,88.054685 C116.171836,88.4713509 115.956993,88.8164019 115.605432,89.0898388 C115.25387,89.3632756 114.869756,89.499994 114.453091,89.499994 L106.718734,89.499994 C106.432277,89.499994 106.152329,89.4348898 105.878892,89.304682 C105.605455,89.1744742 105.377592,88.9791621 105.1953,88.7187459 L100.312499,82.0000119 C100.052083,81.6354297 99.954427,81.238295 100.019531,80.8086085 C100.084635,80.378922 100.292968,80.040381 100.64453,79.7929859 C100.996091,79.5455909 101.386715,79.4544449 101.816402,79.5195491 C102.246088,79.5846533 102.578119,79.7864753 102.812493,80.1250164 L104.06249,81.8437623 L104.06249,72.6250343 C104.06249,72.2083684 104.212229,71.8437861 104.511708,71.5312869 C104.811187,71.2187876 105.175769,71.062538 105.605455,71.062538 C106.035142,71.062538 106.406235,71.2187876 106.718734,71.5312869 C107.031233,71.8437861 107.187483,72.2213896 107.187483,72.6640967 L107.187483,79.5000179 L107.499982,79.5000179 L107.499982,71.062538 C107.499982,70.6458721 107.649721,70.2812899 107.9492,69.9687906 C108.248678,69.6562914 108.613261,69.5000417 109.042947,69.5000417 C109.472634,69.5000417 109.843727,69.6562914 110.156226,69.9687906 C110.468725,70.2812899 110.624975,70.6588933 110.624975,71.1016004 L110.624975,79.5000179 L110.937474,79.5000179 L110.937474,72.5859719 C110.937474,72.169306 111.087213,71.8047237 111.386692,71.4922245 C111.68617,71.1797252 112.050753,71.0234756 112.480439,71.0234756 C112.910125,71.0234756 113.281218,71.1797252 113.593718,71.4922245 C113.906217,71.8047237 114.062466,72.1823272 114.062466,72.6250343 L114.062466,79.5000179 L114.374966,79.5000179 L114.374966,76.1015885 C114.374966,75.6588814 114.531215,75.2812779 114.843715,74.9687787 C115.156214,74.6562794 115.533817,74.5000298 115.976524,74.5000298 Z" transform="translate(-100.000000, -69.000000)"/></g></g></svg>