<svg width="20" height="18" viewBox="0 0 20 18" fill="none" xmlns="http://www.w3.org/2000/svg">
<path fill-rule="evenodd" clip-rule="evenodd" d="M19.7961 15.7493C19.9297 15.9776 20 16.2367 20 16.5006C20 17.3287 19.3215 18 18.4846 18H1.51564C1.24902 18 0.987116 17.9304 0.756375 17.7982C0.0320775 17.3833 -0.215147 16.466 0.204183 15.7493L8.68867 1.24842C8.82133 1.02168 9.01172 0.833302 9.24086 0.702035C9.96516 0.287116 10.8923 0.53174 11.3116 1.24842L19.7961 15.7493ZM10 15C10.5523 15 11 14.5523 11 14C11 13.4477 10.5523 13 10 13C9.44771 13 9 13.4477 9 14C9 14.5523 9.44771 15 10 15ZM9 10C9 10.5523 9.44771 11 10 11C10.5523 11 11 10.5523 11 10V5.9957C11 5.44341 10.5523 4.9957 10 4.9957C9.44771 4.9957 9 5.44341 9 5.9957V10Z" fill="#BF8532"/>
</svg>
