<svg width="18" height="20" viewBox="0 0 18 20" fill="none" xmlns="http://www.w3.org/2000/svg">
<path fill-rule="evenodd" clip-rule="evenodd" d="M4 0C4.55228 0 5 0.447715 5 1V2H13V1C13 0.447715 13.4477 0 14 0C14.5523 0 15 0.447715 15 1V2H16C17.1046 2 18 2.89543 18 4V18C18 19.1046 17.1046 20 16 20H2C0.895431 20 0 19.1046 0 18V4C0 2.89543 0.895431 2 2 2H3V1C3 0.447715 3.44772 0 4 0ZM2 7V18H16V7H2ZM5 9H8C8.55228 9 9 9.44772 9 10V13C9 13.5523 8.55228 14 8 14H5C4.44772 14 4 13.5523 4 13V10C4 9.44772 4.44772 9 5 9Z" fill="#161616"/>
</svg>
