<svg width="20" height="20" viewBox="0 0 20 20" fill="none" xmlns="http://www.w3.org/2000/svg">
<path fill-rule="evenodd" clip-rule="evenodd" d="M10 20C4.48 20 3.91654e-07 15.52 8.74228e-07 10C1.3568e-06 4.48 4.48 -1.3568e-06 10 -8.74228e-07C15.52 -3.91654e-07 20 4.48 20 10C20 15.52 15.52 20 10 20ZM10 16C10.5523 16 11 15.5523 11 15C11 14.4477 10.5523 14 10 14C9.44772 14 9 14.4477 9 15C9 15.5523 9.44772 16 10 16ZM10 12C10.5523 12 11 11.5523 11 11L11 5C11 4.44771 10.5523 4 10 4C9.44772 4 9 4.44771 9 5L9 11C9 11.5523 9.44772 12 10 12Z" fill="#CC4242"/>
</svg>
