<svg width="14" height="14" viewBox="0 0 14 14" fill="none" xmlns="http://www.w3.org/2000/svg">
<path fill-rule="evenodd" clip-rule="evenodd" d="M12.9864 2.45711C13.3769 2.06658 13.3769 1.43342 12.9864 1.04289C12.5959 0.652369 11.9627 0.652369 11.5722 1.04289L7.0293 5.58579L2.4864 1.04289C2.09588 0.652369 1.46271 0.652369 1.07219 1.04289C0.681666 1.43342 0.681666 2.06658 1.07219 2.45711L5.61508 7L1.07219 11.5429C0.681666 11.9334 0.681666 12.5666 1.07219 12.9571C1.46271 13.3476 2.09588 13.3476 2.4864 12.9571L7.0293 8.41421L11.5722 12.9571C11.9627 13.3476 12.5959 13.3476 12.9864 12.9571C13.3769 12.5666 13.3769 11.9334 12.9864 11.5429L8.44351 7L12.9864 2.45711Z" fill="#161616"/>
</svg>
