<svg width="18" height="20" viewBox="0 0 18 20" fill="none" xmlns="http://www.w3.org/2000/svg">
<path fill-rule="evenodd" clip-rule="evenodd" d="M9 2.05902L3.23603 4.941L8.99995 7.82296L14.7639 4.94098L9 2.05902ZM2 14.3229V6.55906L8 9.55906V17.3229L2 14.3229ZM10 17.3229L16 14.3229V6.55901L10 9.559V17.3229ZM8.32918 0.158359C8.75147 -0.0527867 9.24853 -0.0527861 9.67082 0.158359L17.1708 3.90836C17.679 4.16245 18 4.68184 18 5.25V14.632C18 15.2001 17.679 15.7195 17.1708 15.9736L9.67082 19.7236C9.24853 19.9348 8.75147 19.9348 8.32918 19.7236L0.82918 15.9736C0.321004 15.7195 0 15.2001 0 14.632V5.25C0 4.68184 0.321003 4.16245 0.82918 3.90836L8.32918 0.158359Z" fill="#161616"/>
</svg>
