<svg width="16" height="21" viewBox="0 0 16 21" fill="none" xmlns="http://www.w3.org/2000/svg">
<path fill-rule="evenodd" clip-rule="evenodd" d="M7 2.50415C6.44772 2.50415 6 2.95187 6 3.50415V13.5042C6 14.0564 6.44772 14.5042 7 14.5042H13C13.5523 14.5042 14 14.0564 14 13.5042V8.50415H11C9.89543 8.50415 9 7.60872 9 6.50415V2.50415H7ZM11 4.00415V6.50415H13.381L11 4.00415ZM4 3.50415C4 1.8473 5.34315 0.50415 7 0.50415H9.14286C9.96389 0.50415 10.749 0.840645 11.3153 1.43518L15.1724 5.48519C15.7037 6.04301 16 6.78382 16 7.55415V13.5042C16 15.161 14.6569 16.5042 13 16.5042H12V17.5042C12 19.161 10.6569 20.5042 9 20.5042H3C1.34315 20.5042 0 19.161 0 17.5042V7.50415C0 5.8473 1.34315 4.50415 3 4.50415H4V3.50415ZM7 16.5042H10V17.5042C10 18.0564 9.55229 18.5042 9 18.5042H3C2.44772 18.5042 2 18.0564 2 17.5042V7.50415C2 6.95187 2.44772 6.50415 3 6.50415H4V13.5042C4 15.161 5.34315 16.5042 7 16.5042Z" fill="#161616"/>
</svg>
