<svg width="42" height="30" viewBox="0 0 42 30" fill="none" xmlns="http://www.w3.org/2000/svg">
<path d="M5.65 19.4001C8.08005 19.4001 10.05 17.4302 10.05 15.0001C10.05 12.57 8.08005 10.6001 5.65 10.6001C3.21995 10.6001 1.25 12.57 1.25 15.0001C1.25 17.4302 3.21995 19.4001 5.65 19.4001Z" stroke="#161616" stroke-width="2" stroke-miterlimit="10" stroke-linecap="round" stroke-linejoin="round"/>
<path d="M36.3502 19.4001C38.7802 19.4001 40.7502 17.4302 40.7502 15.0001C40.7502 12.57 38.7802 10.6001 36.3502 10.6001C33.9201 10.6001 31.9502 12.57 31.9502 15.0001C31.9502 17.4302 33.9201 19.4001 36.3502 19.4001Z" stroke="#161616" stroke-width="2" stroke-miterlimit="10" stroke-linecap="round" stroke-linejoin="round"/>
<path d="M5.6499 10.6V9.50005C5.6499 5.25005 9.0999 1.80005 13.3499 1.80005C17.5499 1.85005 20.9999 5.30005 20.9999 9.50005V15" stroke="#161616" stroke-width="2" stroke-miterlimit="10" stroke-linecap="round" stroke-linejoin="round"/>
<path d="M36.35 19.4V20.5C36.35 24.75 32.9 28.2 28.65 28.2C24.45 28.15 21 24.7 21 20.5V15" stroke="#161616" stroke-width="2" stroke-miterlimit="10" stroke-linecap="round" stroke-linejoin="round"/>
</svg>
