<svg width="20" height="20" viewBox="0 0 20 20" fill="none" xmlns="http://www.w3.org/2000/svg">
<path fill-rule="evenodd" clip-rule="evenodd" d="M10 0C12.7778 0 15.1389 0.992907 17.0833 2.97872C19.0278 4.96454 20 7.37589 20 10.2128C20 11.6312 19.7222 13.0142 19.1667 14.3617C18.6111 15.7092 17.8125 16.844 16.7708 17.766C15.7292 18.6879 14.5139 19.4326 13.125 20C12.7083 20 12.5 19.7872 12.5 19.3617C12.5 19.3617 12.5 19.0426 12.5 18.4043C12.5 17.766 12.5 17.1631 12.5 16.5957C12.5 15.7447 12.2917 15.1064 11.875 14.6809C14.9306 14.3972 16.4583 12.695 16.4583 9.57447C16.4583 8.58156 16.1111 7.7305 15.4167 7.02128C15.6944 6.17021 15.625 5.24823 15.2083 4.25532C14.6528 4.11348 13.75 4.46809 12.5 5.31915C11.6667 5.03546 10.8333 4.89362 10 4.89362C9.16667 4.89362 8.33333 5.03546 7.5 5.31915C6.94444 4.89362 6.42361 4.60993 5.9375 4.46809C5.45139 4.32624 5.13889 4.25532 5 4.25532H4.79167C4.375 5.24823 4.30556 6.17021 4.58333 7.02128C4.02778 7.7305 3.75 8.58156 3.75 9.57447C3.75 12.695 5.20833 14.3972 8.125 14.6809C7.84722 14.9645 7.63889 15.461 7.5 16.1702C6.25 16.7376 5.27778 16.4539 4.58333 15.3191C4.16667 14.6099 3.68056 14.2553 3.125 14.2553C2.70833 14.2553 2.53472 14.3262 2.60417 14.4681C2.67361 14.6099 2.84722 14.7518 3.125 14.8936C3.54167 15.1773 3.88889 15.6738 4.16667 16.383C4.58333 17.5177 5.69444 17.8723 7.5 17.4468C7.5 17.8723 7.5 18.2979 7.5 18.7234C7.5 19.1489 7.5 19.3617 7.5 19.3617C7.5 19.7872 7.29167 20 6.875 20C4.79167 19.2908 3.125 18.0496 1.875 16.2766C0.625 14.5035 0 12.4823 0 10.2128C0 7.37589 0.972222 4.96454 2.91667 2.97872C4.86111 0.992907 7.22222 0 10 0Z" fill="#161616"/>
</svg>
