<svg width="48" height="48" viewBox="0 0 48 48" fill="none" xmlns="http://www.w3.org/2000/svg">
<path d="M24 2.83496V6.49996" stroke="#161616" stroke-width="2" stroke-linecap="round" stroke-linejoin="round"/>
<path d="M3 21.165H6.665" stroke="#161616" stroke-width="2" stroke-linecap="round" stroke-linejoin="round"/>
<path d="M41.335 21.165H45" stroke="#161616" stroke-width="2" stroke-linecap="round" stroke-linejoin="round"/>
<path d="M38.665 10.165L40.5 8.33496" stroke="#161616" stroke-width="2" stroke-linecap="round" stroke-linejoin="round"/>
<path d="M7.5 8.33496L9.335 10.165" stroke="#161616" stroke-width="2" stroke-linecap="round" stroke-linejoin="round"/>
<path fill-rule="evenodd" clip-rule="evenodd" d="M35.0001 22.46C35.1068 24.5289 34.6229 26.5855 33.6051 28.39C30.8749 33.3179 29.4611 38.8664 29.5001 44.5V45H18.5001V44.5C18.4285 38.7579 16.9668 33.1188 14.2401 28.065C12.1788 24.0724 12.753 19.2275 15.6905 15.8274C18.628 12.4273 23.3381 11.1556 27.5877 12.6153C31.8373 14.0749 34.7719 17.9725 35.0001 22.46Z" stroke="#161616" stroke-width="2" stroke-linecap="round" stroke-linejoin="round"/>
<path d="M18.5 41H29.5" stroke="#161616" stroke-width="2" stroke-linecap="round" stroke-linejoin="round"/>
<path d="M18.5 37H29.5" stroke="#161616" stroke-width="2" stroke-linecap="round" stroke-linejoin="round"/>
<path d="M27 37V30C27 28.3431 25.6569 27 24 27V27C22.3431 27 21 28.3431 21 30V37" stroke="#161616" stroke-width="2" stroke-linecap="round" stroke-linejoin="round"/>
<path d="M27 17C28.1046 17 29 17.8954 29 19" stroke="#161616" stroke-width="2" stroke-linecap="round" stroke-linejoin="round"/>
</svg>
