<svg width="20" height="18" viewBox="0 0 20 18" fill="none" xmlns="http://www.w3.org/2000/svg">
<path fill-rule="evenodd" clip-rule="evenodd" d="M18 9C18 12.866 14.866 16 11 16C8.76919 16 6.78211 14.9565 5.50026 13.3309C4.9008 13.6778 4.22264 13.9037 3.49914 13.9754C5.1114 16.4012 7.86899 18 11 18C15.9706 18 20 13.9706 20 9C20 4.02944 15.9706 0 11 0C7.86899 0 5.1114 1.59883 3.49914 4.0246C4.22264 4.09631 4.9008 4.32224 5.50026 4.66907C6.78211 3.04353 8.76919 2 11 2C14.866 2 18 5.13401 18 9ZM4.49856 6.40052C5.39605 6.91902 6 7.88898 6 9C6 10.111 5.39605 11.081 4.49856 11.5995C4.05762 11.8542 3.54584 12 3 12C2.82874 12 2.66084 11.9856 2.49742 11.9581C1.07983 11.719 0 10.4856 0 9C0 7.5144 1.07983 6.28101 2.49742 6.04191C2.66084 6.01435 2.82874 6 3 6C3.54584 6 4.05762 6.14578 4.49856 6.40052ZM11 13C9.53907 13 8.26107 12.2168 7.56296 11.0474C7.84377 10.4225 8 9.72948 8 9C8 8.27051 7.84378 7.57751 7.56297 6.95263C8.26107 5.7832 9.53907 5 11 5C13.2091 5 15 6.79086 15 9C15 11.2091 13.2091 13 11 13Z" fill="#161616"/>
</svg>
