<svg width="18" height="18" viewBox="0 0 18 18" fill="none" xmlns="http://www.w3.org/2000/svg">
<g clip-path="url(#clip0_407_30273)">
<path d="M8.9991 17.3078C13.5873 17.3078 17.3068 13.5883 17.3068 9.00008C17.3068 4.41186 13.5873 0.692383 8.9991 0.692383C4.41089 0.692383 0.691406 4.41186 0.691406 9.00008C0.691406 13.5883 4.41089 17.3078 8.9991 17.3078Z" stroke="#161616" stroke-width="1.25" stroke-miterlimit="10"/>
<path d="M8.99853 17.3078C10.7624 17.3078 12.1924 13.5883 12.1924 9.00008C12.1924 4.41186 10.7624 0.692383 8.99853 0.692383C7.23462 0.692383 5.80469 4.41186 5.80469 9.00008C5.80469 13.5883 7.23462 17.3078 8.99853 17.3078Z" stroke="#161616" stroke-width="1.25" stroke-miterlimit="10"/>
<path d="M0.691406 6.44287H17.3068" stroke="#161616" stroke-width="1.25" stroke-miterlimit="10"/>
<path d="M0.691406 11.5567H17.3068" stroke="#161616" stroke-width="1.25" stroke-miterlimit="10"/>
</g>
<defs>
<clipPath id="clip0_407_30273">
<rect width="18" height="18" fill="white"/>
</clipPath>
</defs>
</svg>
