<svg width="13" height="13" viewBox="0 0 13 13" fill="none" xmlns="http://www.w3.org/2000/svg">
<path fill-rule="evenodd" clip-rule="evenodd" d="M12.0003 12.6065C11.448 12.6065 11.0003 12.1588 11.0003 11.6065V3.41414L1.70738 12.707C1.31686 13.0976 0.683695 13.0976 0.293171 12.707C-0.0973549 12.3165 -0.0973549 11.6833 0.293169 11.2928L9.58605 1.99992L1.00028 1.99992C0.447992 1.99992 0.000276063 1.55221 0.000276738 0.999924C0.000276738 0.44764 0.447992 -7.51274e-05 1.00028 -7.58017e-05L12.0003 -7.78669e-05C12.2655 -7.79934e-05 12.5198 0.105279 12.7074 0.292815C12.8949 0.480352 13.0003 0.734705 13.0003 0.999922V11.6065C13.0003 12.1588 12.5525 12.6065 12.0003 12.6065Z" fill="#2152E5"/>
</svg>
