<svg width="20" height="18" viewBox="0 0 20 18" fill="none" xmlns="http://www.w3.org/2000/svg">
<path fill-rule="evenodd" clip-rule="evenodd" d="M0.400391 2.12327C0.400391 0.915109 1.30444 0 2.68628 0C4.06708 0 4.91596 0.912962 4.94302 2.12005C4.94302 3.30459 4.06708 4.24278 2.66026 4.24278H2.63319C1.27894 4.24278 0.400391 3.30835 0.400391 2.12327ZM14.8513 5.65625C12.7075 5.65625 11.3642 6.85367 11.1159 7.69257V5.77379H6.91211C6.96624 6.79249 6.91211 18.0014 6.91211 18.0014H11.1159V11.3847C11.1159 11.3412 11.1157 11.2977 11.1155 11.2544C11.1137 10.9311 11.112 10.6177 11.2075 10.3853C11.4964 9.64999 12.1173 8.88677 13.2337 8.88677C14.6936 8.88677 15.3572 10.0176 15.3572 11.6734V18.0014H19.6006V11.2022C19.6006 7.41508 17.5109 5.65625 14.8513 5.65625ZM0.884766 5.77344H4.62692V18.001H0.884766V5.77344Z" fill="#161616"/>
</svg>
