<svg width="167" height="44" viewBox="0 0 167 44" fill="none" xmlns="http://www.w3.org/2000/svg">
<path fill-rule="evenodd" clip-rule="evenodd" d="M84.2032 28.1536C87.0572 28.1536 89.4518 26.1852 90.1264 23.5243C90.1304 23.505 90.1338 23.485 90.1338 23.4647C90.1338 23.3028 90.0034 23.1719 89.8433 23.1719H87.378C87.261 23.1719 87.1601 23.2416 87.1144 23.3429L87.1137 23.3425C86.6072 24.4517 85.4953 25.2228 84.2032 25.2228C82.4348 25.2228 81.0001 23.7798 81.0001 21.9994C81.0001 20.2192 82.4348 18.7758 84.2032 18.7758C85.4953 18.7758 86.6072 19.5469 87.1137 20.6564L87.1144 20.6559C87.1601 20.7564 87.261 20.8272 87.378 20.8272H89.8433C90.0034 20.8272 90.1338 20.6959 90.1338 20.5339C90.1338 20.5136 90.1304 20.4949 90.1264 20.4754C89.4525 17.8145 87.0572 15.8455 84.2032 15.8455C80.8273 15.8455 78.0884 18.6015 78.0884 21.9994C78.0884 25.3982 80.8273 28.1536 84.2032 28.1536ZM94.7089 16.14V27.5689C94.7089 27.7304 94.5783 27.8617 94.4183 27.8617H92.0889C91.9282 27.8617 91.7977 27.7304 91.7977 27.5689V16.14H94.7089ZM93.253 12.0371C92.2884 12.0371 91.5062 12.8247 91.5062 13.7955C91.5062 14.7666 92.2884 15.5538 93.253 15.5538C94.2182 15.5538 94.9998 14.7666 94.9998 13.7955C94.9998 12.8247 94.2182 12.0371 93.253 12.0371ZM66.0178 20.8269C66.5284 18.9688 68.2194 17.6035 70.2278 17.6035C72.2363 17.6035 73.9259 18.9688 74.4364 20.8269H66.0178ZM70.2276 15.8455C66.8504 15.8455 64.1127 18.6005 64.1127 21.9994C64.1127 25.3978 66.8504 28.1536 70.2276 28.1536C72.6148 28.1536 74.6804 26.7759 75.6873 24.7683C75.7075 24.7283 75.7189 24.6843 75.7189 24.6366C75.7189 24.4744 75.5885 24.3438 75.4277 24.3438H74.0764C73.9802 24.3438 73.8947 24.3912 73.8423 24.4643C73.056 25.629 71.7309 26.395 70.2276 26.395C68.0126 26.395 66.1845 24.7357 65.8996 22.5852H76.0425C76.1986 22.5852 76.325 22.4617 76.333 22.307C76.3384 22.2051 76.3412 22.1025 76.3412 21.9994C76.3412 18.6005 73.6042 15.8455 70.2276 15.8455ZM62.0756 12.3293H60.9108C60.7493 12.3293 60.6194 12.4606 60.6194 12.6223V27.5677C60.6194 27.7293 60.7493 27.8606 60.9108 27.8606H62.0756C62.2365 27.8606 62.3674 27.7293 62.3674 27.5677V12.6223C62.3674 12.4606 62.2365 12.3293 62.0756 12.3293ZM58.5807 24.3438H57.2291C57.1348 24.3438 57.0514 24.3891 56.999 24.4588C56.214 25.6266 54.8862 26.395 53.3806 26.395C50.9677 26.395 49.0128 24.427 49.0128 21.9994C49.0128 19.5716 50.9677 17.6038 53.3806 17.6038C54.8862 17.6038 56.214 18.3723 56.999 19.5398C57.0521 19.6099 57.1355 19.6551 57.2291 19.6551H58.5807C58.7417 19.6551 58.8723 19.5236 58.8723 19.362C58.8723 19.3143 58.8602 19.27 58.84 19.2304C57.8337 17.2229 55.7667 15.8455 53.3806 15.8455C50.0035 15.8455 47.2662 18.6005 47.2662 21.9994C47.2662 25.3978 50.0035 28.1536 53.3806 28.1536C55.7667 28.1536 57.8337 26.7759 58.84 24.7683C58.8602 24.7283 58.8723 24.6843 58.8723 24.6366C58.8723 24.4744 58.7417 24.3438 58.5807 24.3438ZM46.9793 15.8524C45.2174 15.9361 43.8102 16.7833 42.8988 18.0774V16.4308C42.8988 16.2698 42.7682 16.1383 42.6075 16.1383H41.443C41.2821 16.1383 41.152 16.2698 41.152 16.4308V27.5671C41.152 27.7287 41.2821 27.86 41.443 27.86H42.6075C42.7682 27.86 42.8988 27.7287 42.8988 27.5671V21.9993C42.8988 19.6702 44.6989 17.7646 46.9746 17.6138C47.1355 17.6138 47.2665 17.4824 47.2665 17.3202V16.1454C47.2665 15.9848 47.1381 15.8555 46.9793 15.8524ZM39.4053 27.5689V16.14H37.6575V27.5689C37.6575 27.7304 37.7884 27.8617 37.9491 27.8617H39.114C39.2749 27.8617 39.4053 27.7304 39.4053 27.5689ZM39.696 13.794C39.696 14.4414 39.1751 14.9662 38.5317 14.9662C37.8886 14.9662 37.3672 14.4414 37.3672 13.794C37.3672 13.1466 37.8886 12.6216 38.5317 12.6216C39.1751 12.6216 39.696 13.1466 39.696 13.794ZM35.6196 24.3438H34.2682C34.1736 24.3438 34.091 24.3891 34.0373 24.4588C33.2529 25.6266 31.9255 26.395 30.4191 26.395C28.0067 26.395 26.0516 24.427 26.0516 21.9994C26.0516 19.5716 28.0067 17.6038 30.4191 17.6038C31.9255 17.6038 33.2529 18.3723 34.0379 19.5398C34.091 19.6099 34.1744 19.6551 34.2682 19.6551H35.6196C35.7807 19.6551 35.9115 19.5236 35.9115 19.362C35.9115 19.3143 35.8989 19.27 35.8796 19.2304C34.8727 17.2229 32.8056 15.8455 30.4191 15.8455C27.0422 15.8455 24.3043 18.6005 24.3043 21.9994C24.3043 25.3978 27.0422 28.1536 30.4191 28.1536C32.8056 28.1536 34.8727 26.7759 35.8796 24.7683C35.8989 24.7283 35.9115 24.6843 35.9115 24.6366C35.9115 24.4744 35.7807 24.3438 35.6196 24.3438ZM9.63775 12C4.99987 12 1.10784 15.1983 0.0124688 19.5222C0.00504688 19.5537 0 19.5858 0 19.6192C0 19.8822 0.21187 20.0953 0.473219 20.0953H4.47767C4.66836 20.0953 4.83154 19.9808 4.90685 19.8173L4.90754 19.8175C5.73028 18.0148 7.53746 16.7616 9.63775 16.7616C12.5112 16.7616 14.8419 19.1074 14.8419 22.0001C14.8419 24.8929 12.5112 27.2387 9.63775 27.2387C7.53746 27.2387 5.73028 25.9855 4.90754 24.1823L4.90685 24.1833C4.83154 24.0195 4.66836 23.9052 4.47767 23.9052H0.473219C0.21187 23.9052 0 24.1177 0 24.3814C0 24.4139 0.00504687 24.445 0.011776 24.4762C1.10685 28.8004 4.99898 32 9.63775 32C15.1244 32 19.5731 27.5223 19.5731 22.0001C19.5731 16.4773 15.1244 12 9.63775 12ZM7.2723 21.9999C7.2723 20.6852 8.33175 19.619 9.63809 19.619C10.9443 19.619 12.0034 20.6852 12.0034 21.9999C12.0034 23.3146 10.9443 24.3811 9.63809 24.3811C8.33175 24.3811 7.2723 23.3146 7.2723 21.9999Z" fill="#161616"/>
<rect x="107.5" y="2.5" width="59" height="37" rx="11.5" fill="#F7F7F7"/>
<rect x="107.5" y="2.5" width="59" height="37" rx="11.5" stroke="#D4D4D4"/>
<path d="M121.056 28H117.017V14.9091H121.235C122.505 14.9091 123.592 15.1712 124.495 15.6953C125.399 16.2152 126.091 16.9631 126.573 17.9389C127.054 18.9105 127.295 20.0739 127.295 21.429C127.295 22.7926 127.052 23.9666 126.566 24.951C126.081 25.9311 125.373 26.6854 124.444 27.2138C123.515 27.7379 122.386 28 121.056 28ZM118.602 26.5938H120.954C122.037 26.5938 122.934 26.3849 123.645 25.9673C124.357 25.5497 124.887 24.9553 125.237 24.1839C125.586 23.4126 125.761 22.4943 125.761 21.429C125.761 20.3722 125.588 19.4624 125.243 18.6996C124.898 17.9325 124.382 17.3445 123.696 16.9354C123.01 16.522 122.156 16.3153 121.133 16.3153H118.602V26.5938ZM133.738 28.2045C132.852 28.2045 132.074 27.9936 131.405 27.5717C130.74 27.1499 130.22 26.5597 129.845 25.8011C129.475 25.0426 129.289 24.1562 129.289 23.142C129.289 22.1193 129.475 21.2266 129.845 20.4638C130.22 19.701 130.74 19.1087 131.405 18.6868C132.074 18.2649 132.852 18.054 133.738 18.054C134.625 18.054 135.4 18.2649 136.065 18.6868C136.734 19.1087 137.254 19.701 137.625 20.4638C138 21.2266 138.187 22.1193 138.187 23.142C138.187 24.1562 138 25.0426 137.625 25.8011C137.254 26.5597 136.734 27.1499 136.065 27.5717C135.4 27.9936 134.625 28.2045 133.738 28.2045ZM133.738 26.8494C134.412 26.8494 134.966 26.6768 135.4 26.3317C135.835 25.9865 136.157 25.5327 136.365 24.9702C136.574 24.4077 136.679 23.7983 136.679 23.142C136.679 22.4858 136.574 21.8743 136.365 21.3075C136.157 20.7408 135.835 20.2827 135.4 19.9332C134.966 19.5838 134.412 19.4091 133.738 19.4091C133.065 19.4091 132.511 19.5838 132.076 19.9332C131.642 20.2827 131.32 20.7408 131.111 21.3075C130.902 21.8743 130.798 22.4858 130.798 23.142C130.798 23.7983 130.902 24.4077 131.111 24.9702C131.32 25.5327 131.642 25.9865 132.076 26.3317C132.511 26.6768 133.065 26.8494 133.738 26.8494ZM144.478 28.2045C143.558 28.2045 142.765 27.9872 142.101 27.5526C141.436 27.1179 140.925 26.5192 140.567 25.7564C140.209 24.9936 140.03 24.1222 140.03 23.142C140.03 22.1449 140.213 21.2649 140.579 20.5021C140.95 19.7351 141.466 19.1364 142.126 18.706C142.791 18.2713 143.567 18.054 144.453 18.054C145.143 18.054 145.765 18.1818 146.319 18.4375C146.873 18.6932 147.327 19.0511 147.681 19.5114C148.035 19.9716 148.254 20.5085 148.339 21.1222H146.831C146.716 20.6747 146.46 20.2784 146.064 19.9332C145.672 19.5838 145.143 19.4091 144.478 19.4091C143.89 19.4091 143.375 19.5625 142.932 19.8693C142.493 20.1719 142.15 20.6001 141.902 21.1541C141.66 21.7038 141.538 22.3494 141.538 23.0909C141.538 23.8494 141.657 24.5099 141.896 25.0724C142.139 25.6349 142.48 26.0717 142.919 26.3828C143.362 26.6939 143.882 26.8494 144.478 26.8494C144.871 26.8494 145.226 26.7812 145.546 26.6449C145.866 26.5085 146.136 26.3125 146.358 26.0568C146.579 25.8011 146.737 25.4943 146.831 25.1364H148.339C148.254 25.7159 148.043 26.2379 147.706 26.7024C147.374 27.1626 146.933 27.5291 146.383 27.8018C145.838 28.0703 145.203 28.2045 144.478 28.2045ZM157.499 20.3807L156.144 20.7642C156.059 20.5384 155.933 20.3189 155.767 20.1058C155.605 19.8885 155.383 19.7095 155.102 19.5689C154.821 19.4283 154.461 19.358 154.022 19.358C153.421 19.358 152.92 19.4964 152.52 19.7734C152.123 20.0462 151.925 20.3935 151.925 20.8153C151.925 21.1903 152.062 21.4865 152.334 21.7038C152.607 21.9212 153.033 22.1023 153.613 22.2472L155.07 22.6051C155.948 22.8182 156.602 23.1442 157.032 23.5831C157.463 24.0178 157.678 24.5781 157.678 25.2642C157.678 25.8267 157.516 26.3295 157.192 26.7727C156.873 27.2159 156.425 27.5653 155.85 27.821C155.275 28.0767 154.606 28.2045 153.843 28.2045C152.841 28.2045 152.013 27.9872 151.356 27.5526C150.7 27.1179 150.285 26.483 150.11 25.6477L151.542 25.2898C151.678 25.8182 151.936 26.2145 152.315 26.4787C152.699 26.7429 153.199 26.875 153.817 26.875C154.52 26.875 155.079 26.7259 155.492 26.4276C155.91 26.125 156.118 25.7628 156.118 25.3409C156.118 25 155.999 24.7145 155.76 24.4844C155.522 24.25 155.155 24.0753 154.661 23.9602L153.025 23.5767C152.125 23.3636 151.465 23.0334 151.043 22.5859C150.625 22.1342 150.417 21.5696 150.417 20.892C150.417 20.3381 150.572 19.848 150.883 19.4219C151.199 18.9957 151.627 18.6612 152.168 18.4183C152.714 18.1754 153.331 18.054 154.022 18.054C154.993 18.054 155.756 18.267 156.31 18.6932C156.868 19.1193 157.265 19.6818 157.499 20.3807Z" fill="#161616"/>
</svg>
