<svg xmlns="http://www.w3.org/2000/svg" viewBox="0 0 16 16">
  <title>Octicons (16px subset)</title>
  <desc>Octicons v11.2.0 by GitHub - https://primer.style/octicons/ - License: MIT</desc>
  <metadata
    xmlns:dc="http://purl.org/dc/elements/1.1/"
    xmlns:cc="http://creativecommons.org/ns#"
    xmlns:rdf="http://www.w3.org/1999/02/22-rdf-syntax-ns#">
    <rdf:RDF>
      <cc:Work rdf:about="">
        <dc:title>@primer/octicons</dc:title>
        <dc:identifier>11.2.0</dc:identifier>
        <dc:description>A scalable set of icons handcrafted with &lt;3 by GitHub</dc:description>
        <dc:format>image/svg+xml</dc:format>
        <dc:creator>
          <cc:Agent>
            <dc:title>GitHub</dc:title>
          </cc:Agent>
        </dc:creator>
        <dc:rights>
          <cc:Agent>
            <dc:title>Copyright (c) 2020 GitHub Inc.</dc:title>
          </cc:Agent>
        </dc:rights>
        <cc:license rdf:resource="https://opensource.org/licenses/MIT" />
        <dc:relation>https://primer.style/octicons/</dc:relation>
      </cc:Work>
    </rdf:RDF>
  </metadata>
  <symbol id="icon-clippy" viewBox="0 0 16 16">
    <path
       fill-rule="evenodd"
       d="M5.75 1a.75.75 0 00-.75.75v3c0 .414.336.75.75.75h4.5a.75.75 0 00.75-.75v-3a.75.75 0 00-.75-.75h-4.5zm.75 3V2.5h3V4h-3zm-2.874-.467a.75.75 0 00-.752-1.298A1.75 1.75 0 002 3.75v9.5c0 .966.784 1.75 1.75 1.75h8.5A1.75 1.75 0 0014 13.25v-9.5a1.75 1.75 0 00-.874-1.515.75.75 0 10-.752 1.298.25.25 0 01.126.217v9.5a.25.25 0 01-.25.25h-8.5a.25.25 0 01-.25-.25v-9.5a.25.25 0 01.126-.217z" />
  </symbol>

  <symbol id="icon-fold" viewBox="0 0 16 16">
    <path d="M10.896 2H8.75V.75a.75.75 0 0 0-1.5 0V2H5.104a.25.25 0 0 0-.177.427l2.896 2.896a.25.25 0 0 0 .354 0l2.896-2.896A.25.25 0 0 0 10.896 2ZM8.75 15.25a.75.75 0 0 1-1.5 0V14H5.104a.25.25 0 0 1-.177-.427l2.896-2.896a.25.25 0 0 1 .354 0l2.896 2.896a.25.25 0 0 1-.177.427H8.75v1.25Zm-6.5-6.5a.75.75 0 0 0 0-1.5h-.5a.75.75 0 0 0 0 1.5h.5ZM6 8a.75.75 0 0 1-.75.75h-.5a.75.75 0 0 1 0-1.5h.5A.75.75 0 0 1 6 8Zm2.25.75a.75.75 0 0 0 0-1.5h-.5a.75.75 0 0 0 0 1.5h.5ZM12 8a.75.75 0 0 1-.75.75h-.5a.75.75 0 0 1 0-1.5h.5A.75.75 0 0 1 12 8Zm2.25.75a.75.75 0 0 0 0-1.5h-.5a.75.75 0 0 0 0 1.5h.5Z" />
  </symbol>

  <symbol id="icon-unfold" viewBox="0 0 16 16">
    <path d="m8.177.677 2.896 2.896a.25.25 0 0 1-.177.427H8.75v1.25a.75.75 0 0 1-1.5 0V4H5.104a.25.25 0 0 1-.177-.427L7.823.677a.25.25 0 0 1 .354 0ZM7.25 10.75a.75.75 0 0 1 1.5 0V12h2.146a.25.25 0 0 1 .177.427l-2.896 2.896a.25.25 0 0 1-.354 0l-2.896-2.896A.25.25 0 0 1 5.104 12H7.25v-1.25Zm-5-2a.75.75 0 0 0 0-1.5h-.5a.75.75 0 0 0 0 1.5h.5ZM6 8a.75.75 0 0 1-.75.75h-.5a.75.75 0 0 1 0-1.5h.5A.75.75 0 0 1 6 8Zm2.25.75a.75.75 0 0 0 0-1.5h-.5a.75.75 0 0 0 0 1.5h.5ZM12 8a.75.75 0 0 1-.75.75h-.5a.75.75 0 0 1 0-1.5h.5A.75.75 0 0 1 12 8Zm2.25.75a.75.75 0 0 0 0-1.5h-.5a.75.75 0 0 0 0 1.5h.5Z" />
  </symbol>

  <use href="#icon-clippy" width="16" height="16" x="0" y="0" />
  <view id="view-clippy" viewBox="0 0 16 16" />

  <use href="#icon-fold" width="16" height="16" x="0" y="16" />
  <view id="view-fold" viewBox="0 16 16 16" />

  <use href="#icon-unfold" width="16" height="16" x="0" y="32" />
  <view id="view-unfold" viewBox="0 32 16 16" />
</svg>
