<svg width="20" height="20" viewBox="0 0 20 20" fill="none" xmlns="http://www.w3.org/2000/svg">
<path fill-rule="evenodd" clip-rule="evenodd" d="M2.00003 3.5C2.00003 2.67157 2.6716 2 3.50003 2C4.32846 2 5.00003 2.67157 5.00003 3.5C5.00003 4.32843 4.32846 5 3.50003 5C2.6716 5 2.00003 4.32843 2.00003 3.5ZM3.50003 0C1.56703 0 2.92063e-05 1.567 2.92063e-05 3.5C2.92063e-05 5.433 1.56703 7 3.50003 7C5.08839 7 6.42964 5.94195 6.8574 4.49219H15.7501C16.9927 4.49219 18.0001 5.49955 18.0001 6.74219C18.0001 7.98483 16.9927 8.99219 15.7501 8.99219H13.0001C12.9511 8.99219 12.9029 8.99571 12.8558 9.00251C12.4264 7.55547 11.0865 6.5 9.50003 6.5C7.91738 6.5 6.58007 7.55046 6.1473 8.99219H4.25098C1.90323 8.99219 0 10.8954 0 13.2432C0 15.5899 1.90167 17.4927 4.24842 17.4941L13.1447 17.4995C13.5746 18.9458 14.9141 20.0006 16.5 20.0006C18.433 20.0006 20 18.4336 20 16.5006C20 14.5676 18.433 13.0006 16.5 13.0006C14.9149 13.0006 13.5759 14.0543 13.1453 15.4995L4.24962 15.4941C3.00697 15.4934 2 14.4858 2 13.2432C2 12 3.0078 10.9922 4.25098 10.9922H6.14265C6.57042 12.4419 7.91166 13.5 9.50003 13.5C11.0919 13.5 12.4356 12.4372 12.8602 10.9825C12.9059 10.9889 12.9526 10.9922 13.0001 10.9922H15.7501C18.0973 10.9922 20.0001 9.0894 20.0001 6.74219C20.0001 4.39498 18.0973 2.49219 15.7501 2.49219H6.85275C6.41999 1.05046 5.08268 0 3.50003 0ZM15 16.5006C15 17.329 15.6716 18.0006 16.5 18.0006C17.3285 18.0006 18 17.329 18 16.5006C18 15.6721 17.3285 15.0006 16.5 15.0006C15.6716 15.0006 15 15.6721 15 16.5006ZM9.50003 8.5C8.6716 8.5 8.00003 9.17157 8.00003 10C8.00003 10.8284 8.6716 11.5 9.50003 11.5C10.3285 11.5 11 10.8284 11 10C11 9.17157 10.3285 8.5 9.50003 8.5Z" fill="#161616"/>
</svg>
