<svg width="21" height="20" viewBox="0 0 21 20" fill="none" xmlns="http://www.w3.org/2000/svg">
<path fill-rule="evenodd" clip-rule="evenodd" d="M2.29883 0C1.4704 0 0.798828 0.671573 0.798828 1.5C0.798828 2.32843 1.4704 3 2.29883 3C10.8592 3 17.7988 9.93959 17.7988 18.5C17.7988 19.3284 18.4704 20 19.2988 20C20.1273 20 20.7988 19.3284 20.7988 18.5C20.7988 8.28273 12.5161 0 2.29883 0ZM0.798828 7.5C0.798828 6.67157 1.4704 6 2.29883 6C9.20239 6 14.7988 11.5964 14.7988 18.5C14.7988 19.3284 14.1273 20 13.2988 20C12.4704 20 11.7988 19.3284 11.7988 18.5C11.7988 13.2533 7.54553 9 2.29883 9C1.4704 9 0.798828 8.32843 0.798828 7.5ZM7.29883 16.5C7.29883 18.1569 5.95568 19.5 4.29883 19.5C2.64197 19.5 1.29883 18.1569 1.29883 16.5C1.29883 14.8431 2.64197 13.5 4.29883 13.5C5.95568 13.5 7.29883 14.8431 7.29883 16.5Z" fill="#161616"/>
</svg>
