<!DOCTYPE svg PUBLIC "-//W3C//DTD SVG 20010904//EN"
 "http://www.w3.org/TR/2001/REC-SVG-20010904/DTD/svg10.dtd">
<svg version="1.0" xmlns="http://www.w3.org/2000/svg"
 width="1801.000000pt" height="1801.000000pt" viewBox="0 0 1801.000000 1801.000000"
 preserveAspectRatio="xMidYMid meet">
<metadata>
Created by potrace 1.11, written by Peter Selinger 2001-2013
</metadata>
<g transform="translate(0.000000,1801.000000) scale(0.100000,-0.100000)"
fill="#000000" stroke="none">
<path d="M8529 17906 c-2 -2 -71 -7 -154 -10 -82 -4 -161 -9 -175 -10 -14 -2
-65 -7 -115 -10 -90 -7 -131 -11 -215 -22 -25 -3 -61 -7 -80 -9 -19 -2 -73 -8
-120 -15 -47 -6 -103 -14 -125 -17 -33 -4 -394 -68 -498 -88 -383 -74 -990
-254 -1412 -420 -315 -123 -771 -335 -1015 -471 -80 -44 -251 -142 -346 -198
-210 -122 -592 -383 -824 -563 -165 -127 -418 -337 -516 -428 -6 -5 -56 -50
-110 -100 -189 -174 -423 -413 -649 -665 -228 -255 -540 -665 -756 -995 -93
-141 -259 -412 -259 -421 0 -3 -8 -18 -19 -32 -23 -34 -103 -180 -213 -392
-40 -76 -201 -420 -233 -495 -7 -16 -19 -46 -28 -65 -8 -19 -27 -64 -41 -100
-15 -36 -31 -74 -36 -85 -5 -11 -36 -92 -68 -180 -95 -254 -174 -504 -281
-892 -14 -52 -10 -174 8 -229 47 -140 171 -253 310 -283 37 -8 570 -11 1894
-11 2000 0 1889 -3 1996 55 93 51 134 104 235 305 82 164 135 262 166 310 5 8
17 29 26 45 51 92 280 419 363 517 283 338 510 557 821 794 188 144 380 267
615 394 28 15 61 33 75 41 14 7 27 14 30 14 3 1 55 25 115 54 373 180 905 340
1280 387 22 3 49 7 60 9 11 2 49 7 85 10 36 4 76 8 90 11 59 9 279 18 455 19
219 0 398 -10 555 -31 86 -11 105 -14 155 -20 28 -3 52 -7 55 -9 3 -2 26 -6
50 -10 75 -10 278 -55 411 -91 291 -78 569 -185 854 -328 471 -237 842 -504
1210 -871 143 -143 216 -224 394 -440 38 -47 173 -237 223 -315 125 -194 185
-300 275 -485 35 -71 68 -138 74 -147 5 -10 9 -25 9 -33 0 -8 5 -15 10 -15 6
0 10 -6 10 -14 0 -8 13 -43 28 -78 53 -117 158 -435 207 -623 17 -65 65 -287
70 -320 1 -11 5 -36 9 -55 14 -78 20 -123 41 -305 26 -231 26 -739 0 -945 -3
-19 -7 -60 -10 -90 -6 -57 -12 -97 -20 -140 -3 -14 -7 -41 -10 -60 -3 -19 -7
-46 -10 -60 -3 -14 -7 -41 -10 -60 -17 -104 -79 -346 -130 -510 -195 -627
-554 -1254 -990 -1730 -58 -64 -283 -289 -341 -341 -153 -138 -352 -292 -539
-416 -60 -40 -115 -76 -121 -80 -5 -4 -19 -13 -30 -19 -10 -6 -63 -37 -117
-68 -146 -84 -423 -221 -487 -241 -14 -4 -29 -11 -35 -15 -32 -24 -410 -153
-574 -196 -119 -31 -107 -29 -221 -54 -102 -23 -113 -26 -175 -35 -22 -3 -78
-12 -125 -20 -47 -8 -112 -17 -145 -20 -33 -3 -73 -7 -90 -9 -151 -20 -584
-27 -770 -12 -55 4 -118 9 -140 11 -49 3 -151 15 -185 20 -92 14 -222 37 -260
45 -25 5 -56 12 -70 14 -14 2 -43 9 -65 14 -22 6 -51 13 -65 16 -130 25 -439
124 -645 206 -296 118 -662 317 -938 511 -73 51 -134 95 -137 99 -3 3 -36 30
-75 60 -38 30 -72 57 -75 60 -3 3 -23 20 -45 38 -235 196 -516 493 -693 730
-31 42 -59 79 -63 82 -10 10 -115 166 -181 270 -99 158 -143 238 -239 430 -65
129 -100 187 -134 221 -42 43 -135 101 -187 117 -13 4 -867 8 -1898 9 -1806 2
-1877 1 -1933 -17 -169 -54 -289 -211 -296 -386 -2 -64 12 -132 80 -369 67
-234 209 -654 264 -780 7 -16 38 -91 68 -165 31 -74 70 -166 87 -205 18 -38
41 -90 52 -115 80 -180 258 -518 400 -763 231 -397 596 -916 854 -1214 11 -11
33 -38 51 -60 17 -21 40 -47 50 -58 10 -11 50 -56 88 -100 187 -212 501 -526
710 -710 37 -33 73 -64 79 -70 140 -126 497 -411 636 -507 14 -10 48 -34 75
-54 159 -115 757 -494 779 -494 2 0 52 -27 112 -61 140 -78 650 -329 669 -329
2 0 32 -13 67 -29 212 -96 851 -328 985 -356 10 -2 63 -17 118 -33 97 -29 408
-109 463 -118 15 -3 47 -10 72 -15 25 -6 56 -13 70 -15 14 -2 36 -7 50 -10 14
-3 35 -8 48 -10 12 -2 34 -6 50 -9 51 -10 137 -26 165 -31 71 -11 298 -44 342
-50 22 -2 56 -7 75 -9 19 -3 62 -8 95 -10 33 -3 71 -8 85 -10 14 -2 61 -6 105
-10 44 -3 100 -8 125 -10 300 -27 947 -27 1335 0 56 4 190 16 225 20 19 2 58
6 85 9 137 14 162 17 185 21 14 2 45 7 70 10 53 7 224 34 260 41 14 2 43 7 65
10 22 4 114 22 205 40 221 46 207 43 275 60 33 8 71 17 85 20 14 3 43 10 65
16 22 5 47 12 55 13 8 2 74 20 145 40 72 20 138 38 147 40 10 2 138 44 285 94
427 143 787 292 1168 483 77 39 165 84 195 101 30 16 84 46 120 65 188 102
465 272 655 401 61 41 130 88 155 105 109 73 600 452 630 485 3 3 37 33 75 66
162 138 268 238 480 450 264 264 445 465 640 710 44 55 82 102 85 105 13 12
214 285 287 390 172 248 378 579 488 785 26 50 51 95 56 100 23 31 230 456
296 609 19 44 40 94 47 110 8 17 28 67 46 111 18 44 39 94 45 110 134 322 360
1066 411 1355 3 14 9 41 14 60 5 19 11 51 14 70 3 19 14 78 25 130 10 52 25
131 31 175 7 44 14 89 16 100 2 11 6 36 9 55 2 19 6 51 9 70 24 164 36 270 51
445 3 39 8 90 10 115 14 144 19 349 19 695 0 338 -4 482 -18 660 -2 22 -7 80
-11 129 -4 49 -8 96 -10 105 -1 9 -6 52 -9 96 -4 44 -9 87 -11 95 -2 8 -7 40
-10 70 -4 30 -16 111 -26 180 -11 69 -21 136 -23 150 -5 40 -35 199 -51 270
-8 36 -17 81 -20 100 -11 63 -76 330 -114 470 -57 210 -173 584 -201 645 -5
11 -16 42 -25 69 -39 120 -186 477 -290 701 -352 762 -864 1542 -1430 2174
-152 170 -499 521 -643 651 -46 41 -94 84 -105 96 -12 11 -51 45 -87 75 -36
30 -67 57 -70 60 -3 3 -86 71 -185 150 -634 507 -1329 923 -2070 1239 -88 37
-171 71 -185 75 -14 4 -29 11 -35 15 -13 10 -348 132 -485 177 -374 122 -935
262 -1234 309 -21 3 -48 7 -59 10 -12 2 -39 6 -62 9 -22 3 -65 10 -95 15 -112
18 -330 46 -440 55 -41 4 -86 8 -101 10 -14 2 -72 6 -130 10 -57 4 -122 9
-144 11 -54 6 -851 14 -856 10z"/>
<path d="M8748 11125 c-2 -1 -34 -5 -73 -8 -72 -7 -132 -14 -175 -22 -14 -3
-41 -8 -60 -11 -192 -29 -531 -168 -730 -299 -158 -104 -330 -255 -460 -406
-57 -67 -180 -234 -180 -246 0 -3 -6 -14 -14 -22 -35 -40 -149 -281 -191 -401
-1 -3 -4 -12 -8 -20 -11 -28 -46 -155 -58 -205 -18 -81 -18 -84 -34 -180 -23
-140 -23 -469 0 -600 3 -16 7 -43 10 -60 34 -203 115 -442 207 -615 147 -274
291 -452 548 -675 73 -62 284 -196 405 -255 460 -224 979 -274 1480 -143 492
128 927 442 1222 880 64 97 203 365 203 394 0 8 4 19 9 25 5 5 20 47 34 94 35
114 56 189 56 195 0 3 4 29 10 58 25 128 35 240 35 397 0 112 -9 265 -18 316
-6 32 -18 103 -18 109 0 2 -9 37 -20 77 -10 40 -24 90 -29 112 -14 55 -65 189
-105 274 -19 40 -34 75 -34 77 0 3 -29 53 -65 112 -84 138 -89 147 -95 153 -3
3 -25 32 -50 65 -77 103 -229 262 -320 335 -24 19 -49 41 -56 47 -7 7 -63 47
-126 89 -238 160 -553 287 -818 329 -25 4 -52 9 -60 10 -76 14 -411 29 -422
20z"/>
</g>
</svg>
