<svg width="20" height="19" viewBox="0 0 20 19" fill="none" xmlns="http://www.w3.org/2000/svg">
<path fill-rule="evenodd" clip-rule="evenodd" d="M1.5 0C0.671573 0 0 0.671573 0 1.5V3.5C0 4.32843 0.671574 5 1.5 5H18.5C19.3284 5 20 4.32843 20 3.5V1.5C20 0.671572 19.3284 0 18.5 0H1.5ZM2 3V2H5V3H2ZM7 3H18V2H7V3Z" fill="#161616"/>
<path fill-rule="evenodd" clip-rule="evenodd" d="M18.5 19C19.3284 19 20 18.3284 20 17.5V15.5C20 14.6716 19.3284 14 18.5 14L1.5 14C0.671574 14 0 14.6716 0 15.5V17.5C0 18.3284 0.671574 19 1.5 19L18.5 19ZM18 16V17L7 17V16L18 16ZM5 16V17H2V16H5Z" fill="#161616"/>
<path fill-rule="evenodd" clip-rule="evenodd" d="M0 8.5C0 7.67157 0.671573 7 1.5 7H18.5C19.3284 7 20 7.67157 20 8.5V10.5C20 11.3284 19.3284 12 18.5 12H1.5C0.671574 12 0 11.3284 0 10.5V8.5ZM2 9V10H5V9H2ZM18 10H7V9H18V10Z" fill="#161616"/>
</svg>
