<svg width="20" height="21" viewBox="0 0 20 21" fill="none" xmlns="http://www.w3.org/2000/svg">
<path fill-rule="evenodd" clip-rule="evenodd" d="M9.63862 13.6471C10.8363 15.16 11.4053 17.2782 11.646 18.4376L11.7732 18.4278C12.4084 18.3303 12.8302 17.7426 12.7024 17.0879C12.4483 15.9027 11.9857 13.8713 11.3427 12.7218C10.6912 11.6114 11.5638 10.3224 12.7 10.3224H17.7728C17.8058 10.3224 17.8657 10.3061 17.9247 10.2471C17.9838 10.188 18 10.1281 18 10.0951C18 10.0621 17.9838 10.0022 17.9247 9.94312C17.8657 9.88408 17.8058 9.86783 17.7728 9.86783H16.9546C16.4023 9.86783 15.9546 9.42011 15.9546 8.86783C15.9546 8.31554 16.4023 7.86783 16.9546 7.86783C16.9876 7.86783 17.0475 7.85158 17.1066 7.79254C17.1656 7.7335 17.1819 7.67358 17.1819 7.64056C17.1819 7.60753 17.1656 7.54761 17.1066 7.48857C17.0475 7.42953 16.9876 7.41328 16.9546 7.41328H16.1364C15.5841 7.41328 15.1364 6.96557 15.1364 6.41328C15.1364 5.861 15.5841 5.41328 16.1364 5.41328C16.1694 5.41328 16.2293 5.39704 16.2884 5.33799C16.3474 5.27895 16.3637 5.21904 16.3637 5.18601C16.3637 5.15299 16.3474 5.09307 16.2884 5.03403C16.2293 4.97499 16.1694 4.95874 16.1364 4.95874H15.3182C14.7659 4.95874 14.3182 4.51102 14.3182 3.95874C14.3182 3.40645 14.7659 2.95874 15.3182 2.95874C15.3512 2.95874 15.4112 2.94249 15.4702 2.88345C15.5292 2.82441 15.5455 2.76449 15.5455 2.73146C15.5455 2.69844 15.5292 2.63852 15.4702 2.57948C15.4112 2.52044 15.3512 2.50419 15.3182 2.50419H9.50912C8.2295 2.50419 7.29059 2.85794 6.68113 3.19653C6.42899 3.33661 6.23214 3.4748 6.09094 3.58549V10.2792L6.16104 10.338C6.42917 10.5632 6.79898 10.8783 7.20579 11.2381C8.00432 11.9445 8.99866 12.8697 9.62651 13.6321L9.63862 13.6471ZM19.1819 7.64056C19.1819 7.87013 19.1449 8.09296 19.0768 8.3033C19.6321 8.71298 20 9.37044 20 10.0951C20 11.3019 18.9796 12.3224 17.7728 12.3224H13.3766C14.0315 13.7748 14.4529 15.7111 14.6597 16.6765L14.6624 16.6899C15.0203 18.4794 13.8184 20.173 12.014 20.4136C11.9956 20.4161 11.9771 20.418 11.9585 20.4194L11.3703 20.4647C10.5717 20.5261 9.89376 19.959 9.75919 19.2124C9.58536 18.248 9.0994 16.1937 8.07643 14.896C7.55796 14.2684 6.67438 13.4383 5.88064 12.7361C5.83197 12.6931 5.78384 12.6507 5.73636 12.609C5.46121 12.9341 5.05016 13.1405 4.59091 13.1405H1.5C0.671572 13.1405 0 12.4689 0 11.6405V2.00414C0 1.17571 0.671571 0.504139 1.5 0.504139H4.59091C5.177 0.504139 5.68459 0.840279 5.93139 1.33029C6.785 0.895279 7.98048 0.504192 9.50912 0.504192H15.3182C16.525 0.504192 17.5455 1.52463 17.5455 2.73146C17.5455 2.96104 17.5086 3.18387 17.4404 3.39421C17.9957 3.80389 18.3637 4.46135 18.3637 5.18601C18.3637 5.41559 18.3267 5.63841 18.2586 5.84876C18.8139 6.25843 19.1819 6.91589 19.1819 7.64056ZM2 2.50414V11.1405H4.09091V2.50414H2Z" fill="#161616"/>
</svg>
