<svg width="20" height="21" viewBox="0 0 20 21" fill="none" xmlns="http://www.w3.org/2000/svg">
<path fill-rule="evenodd" clip-rule="evenodd" d="M9.63862 7.36117C10.8363 5.84833 11.4053 3.73015 11.646 2.57074L11.7732 2.58052C12.4084 2.678 12.8302 3.26569 12.7024 3.92042C12.4483 5.10558 11.9857 7.13696 11.3427 8.28651C10.6912 9.39694 11.5638 10.6859 12.7 10.6859H17.7728C17.8058 10.6859 17.8657 10.7022 17.9247 10.7612C17.9838 10.8203 18 10.8802 18 10.9132C18 10.9462 17.9838 11.0061 17.9247 11.0652C17.8657 11.1242 17.8058 11.1405 17.7728 11.1405H16.9546C16.4023 11.1405 15.9546 11.5882 15.9546 12.1405C15.9546 12.6928 16.4023 13.1405 16.9546 13.1405C16.9876 13.1405 17.0475 13.1567 17.1066 13.2158C17.1656 13.2748 17.1819 13.3347 17.1819 13.3677C17.1819 13.4008 17.1656 13.4607 17.1066 13.5197C17.0475 13.5788 16.9876 13.595 16.9546 13.595H16.1364C15.5841 13.595 15.1364 14.0427 15.1364 14.595C15.1364 15.1473 15.5841 15.595 16.1364 15.595C16.1694 15.595 16.2293 15.6113 16.2884 15.6703C16.3474 15.7293 16.3637 15.7893 16.3637 15.8223C16.3637 15.8553 16.3474 15.9152 16.2884 15.9743C16.2293 16.0333 16.1694 16.0496 16.1364 16.0496H15.3182C14.7659 16.0496 14.3182 16.4973 14.3182 17.0496C14.3182 17.6018 14.7659 18.0496 15.3182 18.0496C15.3512 18.0496 15.4112 18.0658 15.4702 18.1249C15.5292 18.1839 15.5455 18.2438 15.5455 18.2768C15.5455 18.3099 15.5292 18.3698 15.4702 18.4288C15.4112 18.4879 15.3512 18.5041 15.3182 18.5041H9.50912C8.2295 18.5041 7.29059 18.1504 6.68113 17.8118C6.42899 17.6717 6.23214 17.5335 6.09094 17.4228V10.7291L6.16104 10.6703C6.42917 10.4451 6.79898 10.13 7.20579 9.77015C8.00432 9.06376 8.99866 8.13856 9.62651 7.37618L9.63862 7.36117ZM19.1819 13.3677C19.1819 13.1382 19.1449 12.9153 19.0768 12.705C19.6321 12.2953 20 11.6379 20 10.9132C20 9.70637 18.9796 8.68593 17.7728 8.68593H13.3766C14.0315 7.23352 14.4529 5.29722 14.6597 4.33184L14.6624 4.31841C15.0203 2.52894 13.8184 0.835283 12.014 0.594698C11.9956 0.592241 11.9771 0.590298 11.9585 0.588872L11.3703 0.543619C10.5717 0.48219 9.89376 1.04928 9.75919 1.7959C9.58536 2.76034 9.0994 4.81461 8.07643 6.1123C7.55796 6.73994 6.67438 7.57 5.88064 8.27216C5.83197 8.31521 5.78384 8.35761 5.73636 8.39928C5.46121 8.07419 5.05016 7.8678 4.59091 7.8678H1.5C0.671572 7.8678 0 8.53937 0 9.3678V19.0042C0 19.8326 0.671571 20.5042 1.5 20.5042H4.59091C5.177 20.5042 5.68459 20.168 5.93139 19.678C6.785 20.113 7.98048 20.5041 9.50912 20.5041H15.3182C16.525 20.5041 17.5455 19.4837 17.5455 18.2768C17.5455 18.0473 17.5086 17.8244 17.4404 17.6141C17.9957 17.2044 18.3637 16.547 18.3637 15.8223C18.3637 15.5927 18.3267 15.3699 18.2586 15.1595C18.8139 14.7499 19.1819 14.0924 19.1819 13.3677ZM2 18.5042V9.8678H4.09091V18.5042H2Z" fill="#161616"/>
</svg>
