<svg width="20" height="20" viewBox="0 0 20 20" fill="none" xmlns="http://www.w3.org/2000/svg">
<path fill-rule="evenodd" clip-rule="evenodd" d="M10.96 1C10.96 0.447715 10.5123 0 9.96002 0C9.40774 0 8.96002 0.447715 8.96002 1V2.43C8.96002 2.98228 9.40774 3.43 9.96002 3.43C10.5123 3.43 10.96 2.98228 10.96 2.43V1ZM14.2868 12.5118C14.275 12.5291 14.2572 12.5555 14.2341 12.5901C14.1879 12.6594 14.121 12.761 14.0402 12.8876C13.8781 13.1416 13.6633 13.4913 13.4499 13.8768C13.2349 14.2652 13.0306 14.6735 12.8826 15.0473C12.7255 15.444 12.67 15.7085 12.67 15.84C12.67 16.1072 12.5631 16.3633 12.373 16.5512C12.183 16.739 11.9257 16.843 11.6585 16.8399L8.18849 16.7999C7.64074 16.7936 7.20002 16.3478 7.20002 15.8C7.20002 15.6639 7.14607 15.4037 6.99681 15.022C6.85554 14.6607 6.66041 14.2684 6.45469 13.896C6.25052 13.5264 6.04494 13.1925 5.88981 12.9503C5.81255 12.8297 5.74853 12.7329 5.70443 12.6672C5.68239 12.6344 5.66538 12.6093 5.65423 12.593L5.5823 12.4792C5.21932 11.8143 5.01216 11.0756 4.97645 10.319C4.94074 9.56233 5.07742 8.80744 5.37617 8.11134C5.67492 7.41523 6.12793 6.79611 6.70099 6.30072C7.27405 5.80533 7.95218 5.44662 8.68418 5.25168C9.41617 5.05674 10.1829 5.03067 10.9264 5.17544C11.67 5.3202 12.3709 5.63202 12.9763 6.08734C13.5817 6.54266 14.0757 7.12958 14.421 7.80378C14.7664 8.47799 14.954 9.22184 14.9698 9.97918L14.97 9.99435C14.9733 10.577 14.8716 11.1555 14.6697 11.7021C14.584 11.9411 14.4802 12.1732 14.3592 12.3965L14.2868 12.5118ZM7.22998 19C7.22998 18.4477 7.6777 18 8.22998 18H11.69C12.2423 18 12.69 18.4477 12.69 19C12.69 19.5523 12.2423 20 11.69 20H8.22998C7.6777 20 7.22998 19.5523 7.22998 19ZM17.0071 2.9129C17.3976 3.30342 17.3976 3.93658 17.0071 4.32711L15.9971 5.33711C15.6066 5.72763 14.9734 5.72763 14.5829 5.33711C14.1923 4.94659 14.1923 4.31342 14.5829 3.9229L15.5929 2.9129C15.9834 2.52237 16.6166 2.52237 17.0071 2.9129ZM17.5 8.96C16.9477 8.96 16.5 9.40771 16.5 9.96C16.5 10.5123 16.9477 10.96 17.5 10.96H18.92C19.4723 10.96 19.92 10.5123 19.92 9.96C19.92 9.40771 19.4723 8.96 18.92 8.96H17.5ZM2.91289 2.9129C3.30341 2.52237 3.93658 2.52237 4.3271 2.9129L5.3371 3.9229C5.72763 4.31342 5.72763 4.94659 5.3371 5.33711C4.94658 5.72763 4.31341 5.72763 3.92289 5.33711L2.91289 4.32711C2.52236 3.93659 2.52236 3.30342 2.91289 2.9129ZM1 8.96C0.447715 8.96 0 9.40771 0 9.96C0 10.5123 0.447715 10.96 1 10.96H2.43C2.98228 10.96 3.43 10.5123 3.43 9.96C3.43 9.40771 2.98228 8.96 2.43 8.96H1Z" fill="#697387"/>
</svg>
