<svg width="24" height="24" viewBox="0 0 24 24" fill="none" xmlns="http://www.w3.org/2000/svg">
<path fill-rule="evenodd" clip-rule="evenodd" d="M16.3498 10.2985C15.9624 10.6921 15.9674 11.3252 16.361 11.7127C16.7546 12.1001 17.3877 12.0951 17.7752 11.7015L21.7127 7.70152C22.0958 7.31231 22.0958 6.68769 21.7127 6.29848L17.7752 2.29848C17.3877 1.9049 16.7546 1.89991 16.361 2.28735C15.9674 2.67479 15.9624 3.30793 16.3498 3.70152L18.6124 6L5 6C3.34315 6 2 7.34314 2 9V11C2 11.5523 2.44772 12 3 12C3.55228 12 4 11.5523 4 11L4 9C4 8.44771 4.44772 8 5 8L18.6124 8L16.3498 10.2985ZM7.65015 13.7015C8.03759 13.3079 8.0326 12.6748 7.63902 12.2873C7.24543 11.8999 6.61229 11.9049 6.22485 12.2985L2.28735 16.2985C1.90422 16.6877 1.90422 17.3123 2.28735 17.7015L6.22485 21.7015C6.61229 22.0951 7.24543 22.1001 7.63902 21.7127C8.0326 21.3252 8.03759 20.6921 7.65015 20.2985L5.38758 18H19C20.6569 18 22 16.6569 22 15V13C22 12.4477 21.5523 12 21 12C20.4477 12 20 12.4477 20 13V15C20 15.5523 19.5523 16 19 16H5.38758L7.65015 13.7015Z" fill="#161616"/>
</svg>
