<?xml version="1.0" encoding="utf-8"?>
<svg width="48" height="48" viewBox="0 0 48 48" fill="none" xmlns="http://www.w3.org/2000/svg">
    <path fill-rule="evenodd" clip-rule="evenodd" d="M36 4L36.2974 4.01103C38.3599 4.16446 40 5.9 40 8V40C40 42.2 38.2 44 36 44H12C9.8 44 8 42.2 8 40V8C8 5.8 9.8 4 12 4H36ZM35.1429 7H12.8571C11.84 7 11 7.85431 11 8.88889V39.1111C11 40.1457 11.84 41 12.8571 41H35.1429C36.16 41 37 40.1457 37 39.1111V8.88889C37 7.85431 36.16 7 35.1429 7ZM24 12C24 10.8954 23.1046 10 22 10H16C14.8954 10 14 10.8954 14 12V26L19 23L24 26V12Z" fill="black"/>
</svg>
