<svg width="32" height="40" viewBox="0 0 32 40" fill="none" xmlns="http://www.w3.org/2000/svg">
<path fill-rule="evenodd" clip-rule="evenodd" d="M28 0L28.2974 0.0110255C30.3599 0.164463 32 1.9 32 4V36C32 38.2 30.2 40 28 40H4C1.8 40 0 38.2 0 36V4C0 1.8 1.8 0 4 0H28ZM27.1429 3H4.85714C3.83996 3 3 3.85431 3 4.88889V35.1111C3 36.1457 3.83996 37 4.85714 37H27.1429C28.16 37 29 36.1457 29 35.1111V4.88889C29 3.85431 28.16 3 27.1429 3ZM16 8C16 6.89543 15.1046 6 14 6H8C6.89543 6 6 6.89543 6 8V22L11 19L16 22V8Z" fill="black"/>
</svg>
