<?xml version="1.0" encoding="utf-8"?>
<svg width="16" height="16" viewBox="0 0 16 16" fill="none" xmlns="http://www.w3.org/2000/svg">
    <path fill-rule="evenodd" clip-rule="evenodd" d="M8 0.5C3.86 0.5 0.5 3.86 0.5 8C0.5 12.14 3.86 15.5 8 15.5C12.14 15.5 15.5 12.14 15.5 8C15.5 3.86 12.14 0.5 8 0.5ZM6.5 9.93934L4.78033 8.21967C4.48744 7.92678 4.01256 7.92678 3.71967 8.21967C3.42678 8.51256 3.42678 8.98744 3.71967 9.28033L5.96967 11.5303C6.26256 11.8232 6.73744 11.8232 7.03033 11.5303L12.2803 6.28033C12.5732 5.98744 12.5732 5.51256 12.2803 5.21967C11.9874 4.92678 11.5126 4.92678 11.2197 5.21967L6.5 9.93934Z" fill="#343434"/>
</svg>
