<svg width="40" height="40" viewBox="0 0 40 40" fill="none" xmlns="http://www.w3.org/2000/svg">
<path fill-rule="evenodd" clip-rule="evenodd" d="M3.37113 15.8514C5.23342 8.66127 11.8531 3.3418 19.7483 3.3418C29.0754 3.3418 36.6497 10.786 36.6497 19.97C36.6497 29.154 29.0832 36.5981 19.7483 36.5981C11.8531 36.5981 5.23342 31.2787 3.37113 24.0885C3.35548 24.0346 3.34766 23.9808 3.34766 23.9269C3.34766 23.4881 3.70759 23.1339 4.1536 23.1339H10.9689C11.2898 23.1339 11.5714 23.3264 11.6966 23.5958C13.0894 26.5905 16.1646 28.6767 19.7405 28.6767C24.6231 28.6767 28.5902 24.7814 28.5902 19.97C28.5902 15.1663 24.6309 11.2633 19.7405 11.2633C16.1724 11.2633 13.0973 13.3495 11.6966 16.3441C11.5714 16.6135 11.2898 16.806 10.9689 16.806H4.1536C3.70759 16.806 3.34766 16.4519 3.34766 16.0131C3.34766 15.9592 3.35548 15.9053 3.37113 15.8514ZM19.7405 16.0131C17.5182 16.0131 15.7185 17.7837 15.7185 19.97C15.7185 22.1563 17.5182 23.9269 19.7405 23.9269C21.9627 23.9269 23.7624 22.1563 23.7624 19.97C23.7624 17.7837 21.9627 16.0131 19.7405 16.0131Z" fill="#161616"/>
</svg>
