<?xml version="1.0" encoding="utf-8"?>
<svg aria-label="Copy" height="18px" width="18px" viewBox="0 0 75 75" role="img" fill='#343434' xmlns='http://www.w3.org/2000/svg'>
    <path fill-rule="evenodd" clip-rule="evenodd" d="M34.375 12.5C32.6491 12.5 31.25 13.8991 31.25 15.625V46.875C31.25 48.6009 32.6491 50 34.375 50H53.125C54.8509 50 56.25 48.6009 56.25 46.875V31.25H46.875C43.4232 31.25 40.625 28.4518 40.625 25V12.5H34.375ZM46.875 17.1875V25H54.3155L46.875 17.1875ZM25 15.625C25 10.4473 29.1973 6.25 34.375 6.25H41.0714C43.6371 6.25 46.0908 7.30155 47.8602 9.15948L59.9138 21.8157C61.574 23.5589 62.5 25.874 62.5 28.2813V46.875C62.5 52.0527 58.3027 56.25 53.125 56.25H50V59.375C50 64.5527 45.8027 68.75 40.625 68.75H21.875C16.6973 68.75 12.5 64.5527 12.5 59.375V28.125C12.5 22.9473 16.6973 18.75 21.875 18.75H25V15.625ZM34.375 56.25H43.75V59.375C43.75 61.1009 42.3509 62.5 40.625 62.5H21.875C20.1491 62.5 18.75 61.1009 18.75 59.375V28.125C18.75 26.3991 20.1491 25 21.875 25H25V46.875C25 52.0527 29.1973 56.25 34.375 56.25Z"/>
</svg>
