<svg width="48" height="48" viewBox="0 0 24 24" fill="none" xmlns="http://www.w3.org/2000/svg">
<path fill-rule="evenodd" clip-rule="evenodd" d="M14.5032 10.498C14.1616 10.6018 13.8804 10.6912 13.594 10.7822L13.594 10.7822C13.366 10.8547 13.1348 10.9281 12.8672 11.0108L12.8511 11.0159C12.7203 11.058 12.7066 11.0624 12.5849 10.8942C12.4388 10.6961 12.3317 10.5679 12.1272 10.4514C11.5137 10.0901 10.9197 10.195 10.3647 10.6262C9.7025 11.1389 9.36168 11.8965 9.37141 12.8405C9.38115 13.7728 9.91673 14.542 10.686 14.6702C11.3482 14.7751 11.9032 14.4954 12.3414 13.901C12.4064 13.806 12.4659 13.7046 12.5321 13.5921L12.5321 13.592C12.5552 13.5527 12.5791 13.512 12.6043 13.4698H10.725C10.5205 13.4698 10.4718 13.3183 10.5399 13.1202C10.6665 12.7589 10.9002 12.1529 11.0366 11.8499C11.0658 11.7799 11.1339 11.6634 11.28 11.6634H14.4137C14.5545 11.1297 14.7828 10.6255 15.0874 10.1484C15.7983 9.02957 16.6552 8.44686 17.814 8.20212C18.8072 7.99236 19.7421 8.10887 20.5892 8.79647C21.3585 9.42582 21.8356 10.2766 21.9622 11.3953C22.1278 12.9687 21.748 14.2506 20.8424 15.3461C20.1997 16.1269 19.411 16.6164 18.5054 16.8378C18.3326 16.8761 18.1598 16.8943 17.9897 16.9122C17.9011 16.9215 17.8131 16.9307 17.7264 16.9427C16.8402 16.9194 16.032 16.6164 15.3504 15.9172C14.8709 15.4212 14.5407 14.8116 14.3766 14.102C14.2627 14.3772 14.1266 14.6408 13.9676 14.8916C13.2665 15.9987 12.3511 16.6863 11.1924 16.8728C10.2381 17.0243 9.35194 16.8029 8.57294 16.1036C7.85235 15.451 7.44335 14.5886 7.33624 13.5164C7.20965 12.2461 7.52126 11.104 8.16394 10.1017C8.85532 9.01792 9.77068 8.33032 10.8905 8.08557C11.8059 7.88746 12.6822 8.01566 13.471 8.65662C13.9871 9.06453 14.3571 9.62393 14.6006 10.2999C14.659 10.4047 14.62 10.463 14.5032 10.498ZM3.50934 10.7078C3.47039 10.7078 3.46065 10.6844 3.48013 10.6495L3.68462 10.3348C3.70409 10.2999 3.75278 10.2766 3.79173 10.2766H7.26809C7.30703 10.2766 7.31676 10.3115 7.29729 10.3465L7.13176 10.6495C7.11229 10.6844 7.06359 10.7194 7.03438 10.7194L3.50934 10.7078ZM2.03895 11.7799C2 11.7799 1.99026 11.7566 2.00974 11.7217L2.21423 11.407C2.2337 11.372 2.28239 11.3487 2.32134 11.3487H6.76173C6.80067 11.3487 6.82015 11.3837 6.81041 11.4186L6.7325 11.6983C6.72276 11.745 6.68382 11.7683 6.64488 11.7683L2.03895 11.7799ZM4.36625 12.7822C4.34677 12.8172 4.35651 12.8521 4.39546 12.8521L6.51829 12.8638C6.54749 12.8638 6.58644 12.8288 6.58644 12.7822L6.60591 12.5025C6.60591 12.4559 6.58644 12.4209 6.54749 12.4209H4.59995C4.561 12.4209 4.52205 12.4559 4.50258 12.4908L4.36625 12.7822ZM20.0371 12.1098C20.0391 12.1489 20.0411 12.1902 20.0439 12.2344C19.9952 13.2367 19.5765 13.9826 18.8072 14.4604C18.2911 14.7751 17.7556 14.81 17.22 14.5303C16.5189 14.1574 16.1489 13.2367 16.3241 12.3277C16.5384 11.2322 17.1226 10.5446 18.0282 10.2999C18.9533 10.0435 19.8394 10.6961 20.0147 11.8498C20.0285 11.9324 20.0325 12.0149 20.0371 12.1098Z" fill="#161616"/>
</svg>
