<svg width="40" height="40" viewBox="0 0 40 40" fill="none" xmlns="http://www.w3.org/2000/svg">
<path fill-rule="evenodd" clip-rule="evenodd" d="M28.3333 19.9993C28.3333 21.8403 29.8257 23.3327 31.6667 23.3327C33.5076 23.3327 35 21.8403 35 19.9993C35 18.1584 33.5076 16.666 31.6667 16.666C29.8257 16.666 28.3333 18.1584 28.3333 19.9993ZM16.6667 19.9993C16.6667 21.8403 18.159 23.3327 20 23.3327C21.8409 23.3327 23.3333 21.8403 23.3333 19.9993C23.3333 18.1584 21.8409 16.666 20 16.666C18.159 16.666 16.6667 18.1584 16.6667 19.9993ZM8.33333 23.3327C6.49238 23.3327 5 21.8403 5 19.9993C5 18.1584 6.49238 16.666 8.33333 16.666C10.1743 16.666 11.6667 18.1584 11.6667 19.9993C11.6667 21.8403 10.1743 23.3327 8.33333 23.3327Z" fill="#161616"/>
</svg>
