<svg width="38" height="18" viewBox="0 0 38 18" fill="none" xmlns="http://www.w3.org/2000/svg">
<path d="M0 9C0 4.02944 4.02944 0 9 0H29C33.9706 0 38 4.02944 38 9C38 13.9706 33.9706 18 29 18H9C4.02944 18 0 13.9706 0 9Z" fill="#04AA51"/>
<path d="M14.5982 12H13.1334L10.2818 7.32227V12H8.81699V4.89062H10.2818L13.1383 9.57812V4.89062H14.5982V12ZM20.2549 8.91895H17.4424V10.8232H20.7432V12H15.9775V4.89062H20.7334V6.07715H17.4424V7.77148H20.2549V8.91895ZM27.2396 9.94922L28.1967 4.89062H29.6566L28.0795 12H26.6049L25.4477 7.24414L24.2904 12H22.8158L21.2387 4.89062H22.6986L23.6605 9.93945L24.8324 4.89062H26.0727L27.2396 9.94922Z" fill="white"/>
</svg>
