<?xml version="1.0" encoding="utf-8"?>
<svg fill="none" height="48" viewBox="0 0 48 48" width="48" xmlns="http://www.w3.org/2000/svg">
    <path clip-rule="evenodd" d="m22.1909 43.5961c.4773.257.9913.4039 1.542.4039s1.1015-.1469 1.542-.3671l14.6489-8.481c.9546-.5507 1.542-1.5787 1.542-2.6801v-16.9252c0-1.1014-.5874-2.1294-1.542-2.6801l-14.6489-8.481c-.9178-.514-2.1661-.514-3.084 0l-14.64891 8.4443c-.95457.5507-1.54199 1.5787-1.54199 2.6801v16.9252c0 1.1014.58742 2.1294 1.61542 2.7168l3.85498 2.2029c1.8724.9178 2.5332.9178 3.3777.9178 2.7535 0 4.3323-1.6888 4.3323-4.5892v-16.705c0-.257-.2203-.4405-.4406-.4405h-1.8724c-.257 0-.4406.2203-.4406.4405v16.705c0 1.285-1.3584 2.57-3.5246 1.4685l-4.00179-2.313c-.14685-.0734-.22028-.257-.22028-.4038v-16.9252c0-.1469.07343-.3305.22028-.4039l14.64899-8.44423c.1101-.07343.2937-.07343.4405 0l14.5755 8.44423c.1468.0734.2203.2203.2203.4039v16.9619c0 .1836-.0735.3304-.2203.4038l-14.6489 8.481c-.1101.0734-.2937.0734-.4406 0l-3.7448-2.2396c-.1102-.0734-.257-.1101-.3672-.0367-1.028.5875-1.2115.6609-2.2028.9913-.2203.0734-.5875.2203.1468.6241zm-1.6521-16.6682c0 2.4966 1.3217 5.4337 7.7467 5.4337 4.6259 0 7.3061-1.8357 7.3061-5.0298 0-3.1574-2.1294-4.0019-6.6453-4.5893-4.5525-.5874-5.0298-.9178-5.0298-1.9825 0-.8812.4038-2.056 3.7815-2.056 3.0106 0 4.1487.6608 4.5893 2.6801.0367.1836.2203.3304.4039.3304h1.9091c.1101 0 .2203-.0734.2937-.1468.0734-.1102.1101-.2203.1101-.3304-.2937-3.5246-2.6067-5.14-7.3061-5.14-4.1854 0-6.682 1.7623-6.682 4.7361 0 3.1941 2.4599 4.0752 6.5352 4.4424 4.8095.4773 5.1767 1.1748 5.1767 2.1294 0 1.6522-1.3217 2.3497-4.4057 2.3497-3.8917 0-4.7362-.9545-5.0299-2.9004 0-.2203-.1835-.3671-.4038-.3671h-1.9092c-.257 0-.4405.2202-.4405.4405z" fill="#161616" fill-rule="evenodd"/>
</svg>