<?xml version="1.0" encoding="utf-8"?>
<svg width="48" height="48" viewBox="0 0 48 48" fill="none" xmlns="http://www.w3.org/2000/svg">
    <path fill-rule="evenodd" clip-rule="evenodd" d="M23.6923 13.0036V14.2072H23.2057C21.9644 14.2072 20.7231 14.2068 19.4817 14.2063C16.561 14.2053 13.6403 14.2042 10.7195 14.209C7.74713 14.214 5.55279 15.8862 4.74544 18.7402C3.87794 21.8068 3.73791 24.8915 4.48232 28.0066C4.77013 29.2113 5.07892 30.4011 5.78541 31.4442C6.63049 32.6919 7.77412 33.4596 9.2986 33.544C9.97391 33.5813 10.6513 33.5803 11.3288 33.5792C11.6232 33.5787 11.9175 33.5782 12.2117 33.5809C12.3767 33.5824 12.5417 33.5821 12.7206 33.5816C12.8083 33.5814 12.8994 33.5812 12.9954 33.5812V33.109C12.9954 32.7685 12.9949 32.428 12.9943 32.0876C12.9929 31.2059 12.9915 30.3241 12.9996 29.4425C13.0031 29.0498 13.0164 28.6503 13.09 28.2663C13.6541 25.3228 16.1218 23.2896 19.1211 23.2861C20.543 23.2845 21.9648 23.285 23.3867 23.2855C25.0372 23.2862 26.6877 23.2868 28.3382 23.2839C31.1224 23.2791 33.2059 21.2294 33.2235 18.4474C33.2365 16.3731 33.2335 14.2986 33.2305 12.2242C33.2291 11.2629 33.2277 10.3016 33.2279 9.3403C33.2281 8.28768 32.8845 7.35475 32.2312 6.5394C31.2947 5.37041 30.0554 4.69561 28.6005 4.43256C26.0927 3.97912 23.5603 3.88174 21.0301 4.14248C19.745 4.2749 18.4534 4.50127 17.2101 4.84806C15.1543 5.42166 14.2993 6.57791 14.2195 8.71162C14.1842 9.65664 14.1869 10.6031 14.1896 11.5495C14.1907 11.9438 14.1919 12.3381 14.1902 12.7323C14.1901 12.7816 14.1994 12.831 14.211 12.8928C14.2172 12.9256 14.2241 12.962 14.2305 13.0036H23.6923ZM16.5735 8.77546C16.5677 7.76041 17.3449 6.95233 18.3336 6.94545C19.3247 6.93866 20.1269 7.73745 20.1354 8.73955C20.1439 9.74169 19.3521 10.5644 18.3698 10.574C17.3833 10.5836 16.5793 9.77867 16.5735 8.77546ZM23.7401 34.7856V33.5812H24.2694C25.5546 33.5812 26.8397 33.5804 28.1249 33.5796C31.3691 33.5776 34.6134 33.5755 37.8577 33.5862C39.534 33.5918 40.8111 32.9228 41.6142 31.4482C42.6623 29.5236 43.2963 27.4651 43.4552 25.2718C43.5903 23.407 43.3422 21.5769 42.9329 19.7622C42.6666 18.581 42.353 17.4184 41.7243 16.3669C40.8632 14.9269 39.6056 14.1909 37.9187 14.2063C37.4313 14.2107 36.9438 14.2096 36.4564 14.2084C36.2348 14.2078 36.0133 14.2073 35.7918 14.2072H34.4171V14.6697C34.4171 14.9976 34.4174 15.3255 34.4177 15.6534C34.4184 16.5213 34.4192 17.3892 34.4146 18.2571C34.4127 18.5981 34.4078 18.9426 34.3589 19.279C33.9343 22.2032 31.3188 24.5515 28.2403 24.4995C25.881 24.4596 23.5208 24.4708 21.1606 24.4819C20.4747 24.4852 19.7887 24.4884 19.1028 24.4904C16.3629 24.4984 14.2354 26.5537 14.1993 29.2955C14.17 31.5127 14.1772 33.7303 14.1844 35.9479C14.187 36.7791 14.1897 37.6102 14.1905 38.4413C14.1917 39.6237 14.6223 40.6494 15.5147 41.4036C16.1379 41.9301 16.834 42.4257 17.5793 42.7423C20.7148 44.0748 23.963 44.3436 27.2897 43.572C28.7148 43.2416 30.1045 42.824 31.3148 41.9599C32.2935 41.2613 32.9672 40.3575 33.1758 39.1472C33.1767 39.142 33.1783 39.1368 33.1799 39.1317C33.1822 39.124 33.1845 39.1164 33.1845 39.1088C33.1849 37.6888 33.1849 36.2687 33.1849 34.8088V34.7856H23.7401ZM27.2906 39.0009C27.2989 37.9909 28.0909 37.2093 29.0961 37.2192C30.0893 37.2289 30.8634 38.0368 30.8527 39.0525C30.8422 40.0508 30.0226 40.8651 29.045 40.8488C28.0645 40.8324 27.2822 40.0084 27.2906 39.0009Z" fill="#161616"/>
</svg>
