<?xml version="1.0" encoding="utf-8"?>
<svg width="40" height="40" viewBox="0 0 40 40" fill="none" xmlns="http://www.w3.org/2000/svg">
    <path fill-rule="evenodd" clip-rule="evenodd" d="M19.6923 9.00362V10.2072H19.2057C17.9644 10.2072 16.7231 10.2068 15.4817 10.2063C12.561 10.2053 9.64031 10.2042 6.71954 10.209C3.74713 10.214 1.55279 11.8862 0.745445 14.7402C-0.122056 17.8068 -0.262091 20.8915 0.482319 24.0066C0.770133 25.2113 1.07892 26.4011 1.78541 27.4442C2.63049 28.6919 3.77412 29.4596 5.2986 29.544C5.97391 29.5813 6.65135 29.5803 7.3288 29.5792C7.62317 29.5787 7.91754 29.5782 8.21175 29.5809C8.3767 29.5824 8.5417 29.5821 8.72063 29.5816C8.80834 29.5814 8.89939 29.5812 8.99543 29.5812V29.109C8.99543 28.7685 8.99488 28.428 8.99434 28.0876C8.99293 27.2059 8.99153 26.3241 8.99956 25.4425C9.00309 25.0498 9.01637 24.6503 9.08997 24.2663C9.65411 21.3228 12.1218 19.2896 15.1211 19.2861C16.543 19.2845 17.9648 19.285 19.3867 19.2855C21.0372 19.2862 22.6877 19.2868 24.3382 19.2839C27.1224 19.2791 29.2059 17.2294 29.2235 14.4474C29.2365 12.3731 29.2335 10.2986 29.2305 8.22418C29.2291 7.26288 29.2277 6.30159 29.2279 5.3403C29.2281 4.28768 28.8845 3.35475 28.2312 2.5394C27.2947 1.37041 26.0554 0.695606 24.6005 0.432558C22.0927 -0.0208789 19.5603 -0.118263 17.0301 0.142481C15.745 0.2749 14.4534 0.501268 13.2101 0.848064C11.1543 1.42166 10.2993 2.57791 10.2195 4.71162C10.1842 5.65664 10.1869 6.60309 10.1896 7.54953C10.1907 7.94382 10.1919 8.33809 10.1902 8.73227C10.1901 8.78161 10.1994 8.83101 10.211 8.89279C10.2172 8.92562 10.2241 8.96195 10.2305 9.00362H19.6923ZM12.5735 4.77546C12.5677 3.76041 13.3449 2.95233 14.3336 2.94545C15.3247 2.93866 16.1269 3.73745 16.1354 4.73955C16.1439 5.74169 15.3521 6.56444 14.3698 6.57402C13.3833 6.58365 12.5793 5.77867 12.5735 4.77546ZM19.7401 30.7856V29.5812H20.2694C21.5546 29.5812 22.8397 29.5804 24.1249 29.5796C27.3691 29.5776 30.6134 29.5755 33.8577 29.5862C35.534 29.5918 36.8111 28.9228 37.6142 27.4482C38.6623 25.5236 39.2963 23.4651 39.4552 21.2718C39.5903 19.407 39.3422 17.5769 38.9329 15.7622C38.6666 14.581 38.353 13.4184 37.7243 12.3669C36.8632 10.9269 35.6056 10.1909 33.9187 10.2063C33.4313 10.2107 32.9438 10.2096 32.4564 10.2084C32.2348 10.2078 32.0133 10.2073 31.7918 10.2072H30.4171V10.6697C30.4171 10.9976 30.4174 11.3255 30.4177 11.6534C30.4184 12.5213 30.4192 13.3892 30.4146 14.2571C30.4127 14.5981 30.4078 14.9426 30.3589 15.279C29.9343 18.2032 27.3188 20.5515 24.2403 20.4995C21.881 20.4596 19.5208 20.4708 17.1606 20.4819C16.4747 20.4852 15.7887 20.4884 15.1028 20.4904C12.3629 20.4984 10.2354 22.5537 10.1993 25.2955C10.17 27.5127 10.1772 29.7303 10.1844 31.9479C10.187 32.7791 10.1897 33.6102 10.1905 34.4413C10.1917 35.6237 10.6223 36.6494 11.5147 37.4036C12.1379 37.9301 12.834 38.4257 13.5793 38.7423C16.7148 40.0748 19.963 40.3436 23.2897 39.572C24.7148 39.2416 26.1045 38.824 27.3148 37.9599C28.2935 37.2613 28.9672 36.3575 29.1758 35.1472C29.1767 35.142 29.1783 35.1368 29.1799 35.1317C29.1822 35.124 29.1845 35.1164 29.1845 35.1088C29.1849 33.6888 29.1849 32.2687 29.1849 30.8088V30.7856H19.7401ZM23.2906 35.0009C23.2989 33.9909 24.0909 33.2093 25.0961 33.2192C26.0893 33.2289 26.8634 34.0368 26.8527 35.0525C26.8422 36.0508 26.0226 36.8651 25.045 36.8488C24.0645 36.8324 23.2822 36.0084 23.2906 35.0009Z" fill="#161616"/>
</svg>
