<svg width="24" height="24" viewBox="0 0 24 24" fill="none" xmlns="http://www.w3.org/2000/svg">
<path fill-rule="evenodd" clip-rule="evenodd" d="M19.5175 4.87281C19.5175 3.2902 18.2273 2 16.6447 2C15.0621 2 13.7719 3.2902 13.7719 4.87281C13.7719 6.0424 14.4773 7.05117 15.4825 7.49708V8.96637L12.2515 12.1974L9.0424 8.9883V7.49708C10.0439 7.04751 10.7456 6.0424 10.7456 4.87646C10.7456 3.29386 9.45541 2.00365 7.87281 2.00365C6.2902 2.00365 5 3.2902 5 4.87281C5 6.0424 5.70541 7.05117 6.71053 7.49708V9.91667H6.74708L6.71053 9.95322L11.0965 14.3392V16.5029C10.0877 16.9488 9.38596 17.9576 9.38596 19.1272C9.38596 20.7098 10.6762 22 12.2588 22C13.8414 22 15.1316 20.7098 15.1316 19.1272C15.1316 17.9613 14.4298 16.9525 13.4284 16.5066V14.3173L17.7924 9.95322L17.7558 9.91667H17.8143V7.49342C18.8158 7.04386 19.5175 6.03874 19.5175 4.87281ZM7.87281 3.42544C8.66959 3.42544 9.32018 4.07602 9.32018 4.87281C9.32018 5.66959 8.66959 6.32018 7.87281 6.32018C7.07602 6.32018 6.42544 5.66959 6.42544 4.87281C6.42544 4.07602 7.07602 3.42544 7.87281 3.42544ZM12.2588 20.5746C11.462 20.5746 10.8114 19.924 10.8114 19.1272C10.8114 18.3304 11.462 17.6798 12.2588 17.6798C13.0556 17.6798 13.7061 18.3304 13.7061 19.1272C13.7061 19.924 13.0556 20.5746 12.2588 20.5746ZM16.6447 6.32018C15.848 6.32018 15.1974 5.66959 15.1974 4.87281C15.1974 4.07602 15.848 3.42544 16.6447 3.42544C17.4415 3.42544 18.0921 4.07602 18.0921 4.87281C18.0921 5.66959 17.4415 6.32018 16.6447 6.32018Z" fill="#161616"/>
</svg>
