<svg xmlns="http://www.w3.org/2000/svg" xmlns:xlink="http://www.w3.org/1999/xlink" id="Layer_1" x="0" y="0" enable-background="new 0 0 60 60" version="1.1" viewBox="0 0 60 60" xml:space="preserve"><g><g><circle cx="30" cy="30" r="29.5" fill="none" stroke="#259A47" stroke-dasharray="3.985 1.992" stroke-miterlimit="10" stroke-width=".983"/></g><path fill="#DEDEDD" d="M44.9,29.1c0-0.3-0.1-0.5-0.3-0.7c-0.2-0.2-0.4-0.3-0.7-0.4l-2.1-0.3c-0.6-0.1-1-0.4-1.2-1l-0.8-1.9 c-0.3-0.5-0.2-1.1,0.1-1.6l1.3-1.6c0.4-0.5,0.3-1-0.1-1.5l-1.4-1.3c-0.4-0.4-0.9-0.4-1.4-0.1l-1.6,1.2c-0.5,0.4-1,0.4-1.6,0.2 l-1.9-0.8c-0.2-0.1-0.5-0.2-0.7-0.5c-0.2-0.3-0.3-0.5-0.3-0.7l-0.3-2.1c0-0.2-0.2-0.5-0.4-0.7c-0.2-0.2-0.5-0.3-0.7-0.3 C30.7,15,30.4,15,30,15l-0.9,0.1c-0.3,0-0.5,0.1-0.7,0.3c-0.2,0.2-0.3,0.4-0.4,0.7l-0.3,2.1c-0.1,0.6-0.4,1-1,1.2l-1.9,0.8 c-0.5,0.3-1.1,0.2-1.6-0.2l-1.6-1.2c-0.5-0.4-1-0.3-1.5,0.1l-1.3,1.3c-0.4,0.5-0.4,1-0.1,1.5l1.2,1.6c0.4,0.5,0.4,1,0.2,1.6 l-0.8,1.9c-0.1,0.2-0.2,0.5-0.5,0.7c-0.3,0.2-0.5,0.3-0.7,0.3l-2.1,0.3c-0.2,0-0.5,0.2-0.7,0.4c-0.2,0.2-0.3,0.5-0.3,0.7 c0,0.2-0.1,0.5-0.1,0.9l0.1,0.9c0,0.3,0.1,0.5,0.3,0.7c0.2,0.2,0.4,0.3,0.7,0.4l2.1,0.3c0.2,0,0.5,0.1,0.7,0.3 c0.3,0.2,0.4,0.4,0.5,0.7l0.8,1.9c0.3,0.5,0.2,1.1-0.2,1.6l-1.2,1.6c-0.4,0.5-0.4,0.9-0.1,1.2c0,0,0.1,0.1,0.1,0.2 c0.1,0.1,0.1,0.2,0.2,0.3c0.1,0.1,0.2,0.2,0.2,0.3c0.1,0.1,0.2,0.2,0.2,0.2c0.1,0.1,0.2,0.2,0.2,0.2c0.1,0.1,0.2,0.1,0.2,0.2 c0.2,0.2,0.4,0.3,0.8,0.4c0.4,0.1,0.7,0.1,0.9-0.1l1.6-1.2c0.5-0.4,1-0.4,1.6-0.2l1.9,0.8c0.2,0.1,0.5,0.2,0.7,0.5 c0.2,0.3,0.3,0.5,0.3,0.7l0.3,2.1c0,0.2,0.2,0.5,0.4,0.7c0.2,0.2,0.5,0.3,0.7,0.3c0.2,0,0.5,0.1,0.9,0.1l0.9-0.1 c0.3,0,0.5-0.1,0.7-0.3c0.2-0.2,0.3-0.4,0.4-0.7l0.3-2.1c0-0.2,0.1-0.5,0.3-0.7c0.2-0.3,0.4-0.4,0.7-0.5l1.9-0.8 c0.5-0.3,1.1-0.2,1.6,0.2l1.6,1.2c0.5,0.4,1,0.3,1.5-0.1l1.3-1.3c0.4-0.5,0.4-1,0.1-1.5L40,36.8c-0.4-0.5-0.4-1-0.1-1.6l0.8-1.9 c0.2-0.6,0.6-0.9,1.2-1l2.1-0.3c0.2,0,0.5-0.2,0.7-0.4c0.2-0.2,0.3-0.5,0.3-0.7c0-0.2,0.1-0.5,0.1-0.9L44.9,29.1z M30,36.4 c-3.6,0-6.4-2.9-6.4-6.4s2.9-6.4,6.4-6.4s6.4,2.9,6.4,6.4S33.6,36.4,30,36.4z"/></g></svg>