<svg xmlns="http://www.w3.org/2000/svg" xmlns:xlink="http://www.w3.org/1999/xlink" id="Layer_1" x="0" y="0" enable-background="new 0 0 60 60" version="1.1" viewBox="0 0 60 60" xml:space="preserve"><g><g><circle cx="30" cy="30" r="29.5" fill="none" stroke="#259A47" stroke-dasharray="3.985 1.992" stroke-miterlimit="10" stroke-width=".983"/></g><g><path fill="#DEDEDD" d="M27.1,31.6c0-4.5,5.5-5.1,5.5-7.7c0-1.2-0.9-2.2-3-2.2c-1.9,0-3.5,1-4.7,2.4l-3.1-3.5 c2-2.4,5.1-3.7,8.3-3.7c4.9,0,7.9,2.5,7.9,6c0,5.5-6.3,6-6.3,9.2c0,0.6,0.3,1.3,0.7,1.6l-4.1,1.2C27.5,34,27.1,32.9,27.1,31.6z M27.1,40c0-1.7,1.4-3.1,3.1-3.1s3.1,1.4,3.1,3.1c0,1.7-1.4,3.1-3.1,3.1S27.1,41.7,27.1,40z"/></g></g></svg>