<?xml version="1.0" encoding="utf-8"?>
<!-- Generator: Adobe Illustrator 18.1.1, SVG Export Plug-In . SVG Version: 6.00 Build 0)  -->
<svg version="1.1" id="Layer_1" xmlns="http://www.w3.org/2000/svg" xmlns:xlink="http://www.w3.org/1999/xlink" x="0px" y="0px"
	 viewBox="0 0 60 60" enable-background="new 0 0 60 60" xml:space="preserve">
<g>
	<g>
		
			<circle fill="none" stroke="#259A47" stroke-width="0.9833" stroke-miterlimit="10" stroke-dasharray="3.9851,1.9925" cx="30" cy="30" r="29.5"/>
	</g>
	<g>
		<path fill="#DEDEDD" d="M27.1,31.6c0-4.5,5.5-5.1,5.5-7.7c0-1.2-0.9-2.2-3-2.2c-1.9,0-3.5,1-4.7,2.4l-3.1-3.5
			c2-2.4,5.1-3.7,8.3-3.7c4.9,0,7.9,2.5,7.9,6c0,5.5-6.3,6-6.3,9.2c0,0.6,0.3,1.3,0.7,1.6l-4.1,1.2C27.5,34,27.1,32.9,27.1,31.6z
			 M27.1,40c0-1.7,1.4-3.1,3.1-3.1s3.1,1.4,3.1,3.1c0,1.7-1.4,3.1-3.1,3.1S27.1,41.7,27.1,40z"/>
	</g>
</g>
<g>
</g>
<g>
</g>
<g>
</g>
<g>
</g>
<g>
</g>
<g>
</g>
</svg>
