<svg xmlns="http://www.w3.org/2000/svg" xmlns:xlink="http://www.w3.org/1999/xlink" id="Layer_1" x="0" y="0" enable-background="new 0 0 60 60" version="1.1" viewBox="0 0 60 60" xml:space="preserve"><g><circle cx="30" cy="30" r="29.5" fill="none" stroke="#259A47" stroke-dasharray="3.985 1.992" stroke-miterlimit="10" stroke-width=".983"/></g><g><path fill="#DEDEDD" d="M23.8,43c-2.4,0-4.6-1.8-4.6-4.8v-5.2c0-1.1-0.5-2-1.6-2v-2.2c1,0,1.6-0.9,1.6-2v-5.1c0-3,2.2-4.8,4.6-4.8 h1.8v2.5h-1.8c-1,0-1.9,0.9-1.9,2.2v5.5c0,1.3-0.4,2.3-1.4,2.7c1,0.4,1.4,1.4,1.4,2.7v5.5c0,1.3,0.8,2.2,1.9,2.2h1.8V43H23.8z"/><path fill="#DEDEDD" d="M34.3,40.5h1.8c1,0,1.9-0.9,1.9-2.2v-5.5c0-1.3,0.4-2.3,1.4-2.7c-1-0.4-1.4-1.4-1.4-2.7v-5.5 c0-1.3-0.9-2.2-1.9-2.2h-1.8V17h1.8c2.4,0,4.6,1.8,4.6,4.8v5.1c0,1.1,0.5,2,1.6,2v2.2c-1,0-1.6,0.9-1.6,2v5.2c0,3-2.2,4.8-4.6,4.8 h-1.8V40.5z"/></g></svg>