<svg xmlns="http://www.w3.org/2000/svg" xmlns:xlink="http://www.w3.org/1999/xlink" id="Layer_1" x="0" y="0" enable-background="new 0 0 60 60" version="1.1" viewBox="0 0 60 60" xml:space="preserve"><g><g><circle cx="30" cy="30" r="29.5" fill="none" stroke="#259A47" stroke-dasharray="3.985 1.992" stroke-miterlimit="10" stroke-width=".983"/></g><g><path fill="#DEDEDD" d="M30,16.9c3.5,2.4,9.1,3.6,11.4,4c0.1,0.8,0.1,1.7,0.1,2.5c0,8.3-4.4,15.9-11.6,20 c-7.2-4.1-11.6-11.7-11.6-20c0-0.8,0-1.6,0.1-2.5C21,20.5,26.6,19.4,30,16.9 M30,15c-3.5,3.5-12.7,4.6-12.7,4.6 c-0.2,1.2-0.3,2.5-0.3,3.7c0,9.4,5.3,17.6,13.1,21.7c7.8-4.1,13.1-12.3,13.1-21.7c0-1.3-0.1-2.5-0.3-3.7 C42.8,19.6,33.8,18.4,30,15L30,15z"/><path fill="#DEDEDD" d="M21.2,22.8c-0.1,0.8-0.2,1.7-0.2,2.6c0,6.5,3.7,12.1,9,15c5.4-2.8,9-8.5,9-15c0-0.9-0.1-1.7-0.2-2.6 c0,0-6.2-0.8-8.8-3.2C27.5,22.1,21.2,22.8,21.2,22.8z"/></g></g></svg>