<svg xmlns="http://www.w3.org/2000/svg" xmlns:xlink="http://www.w3.org/1999/xlink" id="Layer_1" x="0" y="0" enable-background="new 0 0 60 60" version="1.1" viewBox="0 0 60 60" xml:space="preserve"><g><g><circle cx="30" cy="30" r="29.5" fill="none" stroke="#259A47" stroke-dasharray="3.985 1.992" stroke-miterlimit="10" stroke-width=".983"/></g><path fill="#DEDEDD" d="M36.2,20.7c0-2.6-1.6-4.8-3.8-5.7v4.6c0,0.8-0.6,1.4-1.4,1.4h-1.8c-0.8,0-1.4-0.6-1.4-1.4V15 c-2.2,0.9-3.8,3.1-3.8,5.7c0,2.3,1.2,4.2,3,5.3v15.9c0,1.7,1.4,3.1,3.1,3.1c1.7,0,3.1-1.4,3.1-3.1c0,0,0,0,0,0V26 C34.9,24.9,36.2,22.9,36.2,20.7z M30,43.6c-1,0-1.8-0.8-1.8-1.8c0-1,0.8-1.8,1.8-1.8c1,0,1.8,0.8,1.8,1.8 C31.8,42.8,31,43.6,30,43.6z"/></g></svg>