<svg role="img" focusable="false" viewBox="0 0 24 24" aria-label="Bitbucket" fill="#fff" xmlns="http://www.w3.org/2000/svg" class="css-bleycz"><path d="M12.0000614,3 L12.0000614,3.00025488 L11.9999387,3 C7.8713004,3 4.5,4.15386084 4.5,5.58659586 C4.5,5.96399367 5.40041933,11.3750186 5.75757094,13.5207435 C5.91769452,14.4831652 8.30998505,15.8942326 11.9980996,15.8942326 L12.0019004,15.8827616 L12.0019004,15.8942326 C15.6900149,15.8942326 18.0824281,14.4831652 18.2425517,13.5207435 C18.5997033,11.3750186 19.5,5.96399367 19.5,5.58659586 C19.5,4.15386084 16.1286997,3 12.0000614,3 L12.0000614,3 Z M17.3905618,15.6715667 C17.2765381,15.6715667 17.185074,15.7554328 17.185074,15.7554328 C17.185074,15.7554328 15.3381354,17.2757303 12.0000614,17.2758577 C8.6618646,17.2757303 6.81492609,15.7554328 6.81492609,15.7554328 C6.81492609,15.7554328 6.7235845,15.6715667 6.60956086,15.6715667 C6.47334541,15.6715667 6.34424117,15.766649 6.34424117,15.9764418 C6.34424117,15.9986192 6.34632547,16.0207966 6.3502489,16.0424641 C6.63677939,17.6373234 6.84631321,18.7690069 6.88309503,18.9413277 C7.13333412,20.1145619 9.34110251,20.9998726 11.9998161,21 L12.0001839,21 C14.6590201,20.9998726 16.8667885,20.1145619 17.1170276,18.9413277 C17.1536868,18.7690069 17.3632206,17.6373234 17.6498737,16.0424641 C17.6536745,16.0207966 17.6558815,15.9986192 17.6558815,15.9764418 C17.6558815,15.766649 17.5266546,15.6715667 17.3905618,15.6715667 L17.3905618,15.6715667 Z M11.9987126,6.3861285 C9.34600669,6.38166756 7.19623109,5.90255976 7.19721192,5.31575148 C7.19807022,4.72881576 9.34943971,4.2568455 12.002023,4.26130644 C14.654729,4.26576738 16.804382,4.74487518 16.8035237,5.3318109 C16.8026655,5.91861918 14.6514186,6.390462 11.9987126,6.3861285 L11.9987126,6.3861285 Z M12.0000614,14.1558577 C10.6832716,14.1558577 9.61586277,13.0460966 9.61586277,11.6774721 C9.61586277,10.3084652 10.6832716,9.19895907 12.0000614,9.19895907 C13.3167284,9.19895907 14.3841372,10.3084652 14.3841372,11.6774721 C14.3841372,13.0460966 13.3167284,14.1558577 12.0000614,14.1558577 L12.0000614,14.1558577 Z M13.1925284,11.6767074 C13.1925284,12.362804 12.6575979,12.9187679 11.9977318,12.9187679 C11.3377431,12.9187679 10.8029352,12.362804 10.8029352,11.6767074 C10.8029352,10.9906108 11.3377431,10.4346468 11.9977318,10.4346468 C12.6575979,10.4346468 13.1925284,10.9906108 13.1925284,11.6767074 L13.1925284,11.6767074 Z"></path></svg>
