<svg xmlns="http://www.w3.org/2000/svg" width="48" height="48" viewBox="0 0 24 24" fill="#000">
<path d="M3.57767 4C3.49405 4.00042 3.41151 4.01866 3.33569 4.05348C3.25988 4.08829 3.19258 4.13885 3.13839 4.20171C3.08421 4.26456 3.04442 4.33822 3.02175 4.41765C2.99908 4.49708 2.99406 4.58041 3.00703 4.66193L5.47479 19.3529C5.50529 19.5323 5.59871 19.6953 5.7387 19.8136C5.87869 19.9319 6.05636 19.9979 6.24064 20H17.9887C18.1284 20 18.2633 19.9499 18.3683 19.859C18.4732 19.7681 18.5412 19.6427 18.5594 19.506L20.9921 4.66687C21.0059 4.58523 21.0016 4.50157 20.9792 4.42178C20.9569 4.34198 20.9172 4.26796 20.8628 4.20491C20.8084 4.14185 20.7408 4.09129 20.6645 4.05674C20.5883 4.0222 20.5053 4.00452 20.4214 4.00494L3.57767 4ZM13.9042 14.6156H10.135L9.13387 9.37944H14.8152L13.9042 14.6156Z" fill="#2684FF"/>
<path d="M20 9H14.7766L13.8979 14.4233H10.2628L6 19.8056C6.13469 19.9279 6.3054 19.9967 6.48276 20H17.8372C17.9719 20 18.102 19.9481 18.2033 19.8539C18.3045 19.7598 18.37 19.6299 18.3876 19.4884L20 9Z" fill="url(#paint0_linear_5777_13516)"/>
<defs>
<linearGradient id="paint0_linear_5777_13516" x1="21.2117" y1="10.5195" x2="12.1961" y2="17.1587" gradientUnits="userSpaceOnUse">
<stop offset="0.18" stop-color="#0052CC"/>
<stop offset="1" stop-color="#2684FF"/>
</linearGradient>
</defs>
</svg>
