<svg xmlns="http://www.w3.org/2000/svg" width="48" height="48" viewBox="0 0 24 24" fill="#000">
<path fill-rule="evenodd" clip-rule="evenodd" d="M12 2C14.7778 2 17.1389 2.99291 19.0833 4.97872C21.0278 6.96454 22 9.37589 22 12.2128C22 13.6312 21.7222 15.0142 21.1667 16.3617C20.6111 17.7092 19.8125 18.844 18.7708 19.766C17.7292 20.6879 16.5139 21.4326 15.125 22C14.7083 22 14.5 21.7872 14.5 21.3617C14.5 21.3617 14.5 21.0426 14.5 20.4043C14.5 19.766 14.5 19.1631 14.5 18.5957C14.5 17.7447 14.2917 17.1064 13.875 16.6809C16.9306 16.3972 18.4583 14.695 18.4583 11.5745C18.4583 10.5816 18.1111 9.7305 17.4167 9.02128C17.6944 8.17021 17.625 7.24823 17.2083 6.25532C16.6528 6.11348 15.75 6.46809 14.5 7.31915C13.6667 7.03546 12.8333 6.89362 12 6.89362C11.1667 6.89362 10.3333 7.03546 9.5 7.31915C8.94444 6.89362 8.42361 6.60993 7.9375 6.46809C7.45139 6.32624 7.13889 6.25532 7 6.25532H6.79167C6.375 7.24823 6.30556 8.17021 6.58333 9.02128C6.02778 9.7305 5.75 10.5816 5.75 11.5745C5.75 14.695 7.20833 16.3972 10.125 16.6809C9.84722 16.9645 9.63889 17.461 9.5 18.1702C8.25 18.7376 7.27778 18.4539 6.58333 17.3191C6.16667 16.6099 5.68056 16.2553 5.125 16.2553C4.70833 16.2553 4.53472 16.3262 4.60417 16.4681C4.67361 16.6099 4.84722 16.7518 5.125 16.8936C5.54167 17.1773 5.88889 17.6738 6.16667 18.383C6.58333 19.5177 7.69444 19.8723 9.5 19.4468C9.5 19.8723 9.5 20.2979 9.5 20.7234C9.5 21.1489 9.5 21.3617 9.5 21.3617C9.5 21.7872 9.29167 22 8.875 22C6.79167 21.2908 5.125 20.0496 3.875 18.2766C2.625 16.5035 2 14.4823 2 12.2128C2 9.37589 2.97222 6.96454 4.91667 4.97872C6.86111 2.99291 9.22222 2 12 2Z" fill="#161616"/>
</svg>
