<svg width="48" height="48" viewBox="0 0 24 24" fill="none" xmlns="http://www.w3.org/2000/svg">
<path d="M2.3329 9.99359L2.36102 9.92173L5.08317 2.81746C5.13856 2.67822 5.23663 2.5601 5.3633 2.48006C5.49006 2.40137 5.63791 2.36347 5.7869 2.37148C5.93588 2.37949 6.07881 2.43301 6.19641 2.52484C6.31269 2.61929 6.39705 2.74729 6.438 2.8914L8.27604 8.51483H15.7188L17.5568 2.8914C17.5966 2.7465 17.6812 2.61787 17.7984 2.52379C17.916 2.43197 18.0589 2.37844 18.2079 2.37044C18.3569 2.36243 18.5047 2.40033 18.6315 2.47901C18.7579 2.55939 18.8559 2.6774 18.9116 2.81642L21.639 9.91757L21.6661 9.98942C22.0579 11.0133 22.1063 12.1368 21.8039 13.1906C21.5015 14.2444 20.8646 15.1713 19.9894 15.8315L19.9801 15.8388L19.9551 15.8565L15.8083 18.9619L13.7568 20.5146L12.5071 21.4581C12.361 21.5691 12.1825 21.6292 11.999 21.6292C11.8154 21.6292 11.6369 21.5691 11.4908 21.4581L10.2411 20.5146L8.1896 18.9619L4.01785 15.8378L4.00743 15.8295C3.1342 15.1691 2.49887 14.2431 2.19691 13.1908C1.89495 12.1384 1.94267 11.0165 2.3329 9.99359Z" fill="#E24329"/>
<path d="M2.3329 9.99359L2.36102 9.92174C3.68743 10.194 4.93734 10.7558 6.02146 11.5671L12 16.0877C9.96411 17.6279 8.19168 18.9661 8.19168 18.9661L4.01993 15.842L4.00952 15.8336C3.13504 15.1733 2.49872 14.2467 2.19634 13.1935C1.89396 12.1402 1.94189 11.0173 2.3329 9.99359Z" fill="#FC6D26"/>
<path d="M15.8083 18.9661L13.7568 20.5188L12.5072 21.4623C12.361 21.5733 12.1825 21.6333 11.999 21.6333C11.8155 21.6333 11.637 21.5733 11.4908 21.4623L10.2411 20.5188L8.18964 18.9661C8.18964 18.9661 9.96414 17.6238 12 16.0877C14.0359 17.6238 15.8083 18.9661 15.8083 18.9661Z" fill="#FCA326"/>
<path d="M17.9796 11.5671C19.0628 10.7542 20.3125 10.1909 21.639 9.91757L21.6661 9.98943C22.0579 11.0133 22.1063 12.1368 21.8039 13.1906C21.5015 14.2444 20.8646 15.1713 19.9894 15.8315L19.9801 15.8388L19.9551 15.8565L15.8083 18.9619C15.8083 18.9619 14.038 17.6238 12 16.0836L17.9796 11.5671Z" fill="#FC6D26"/>
</svg>
