<svg width="24" height="24" viewBox="0 0 24 24" fill="none" xmlns="http://www.w3.org/2000/svg">
<path fill-rule="evenodd" clip-rule="evenodd" d="M17.9865 7.45711C18.3771 7.06658 18.3771 6.43342 17.9865 6.04289C17.596 5.65237 16.9628 5.65237 16.5723 6.04289L12.0294 10.5858L7.48653 6.04289C7.096 5.65237 6.46284 5.65237 6.07231 6.04289C5.68179 6.43342 5.68179 7.06658 6.07231 7.45711L10.6152 12L6.07231 16.5429C5.68179 16.9334 5.68179 17.5666 6.07231 17.9571C6.46284 18.3476 7.096 18.3476 7.48653 17.9571L12.0294 13.4142L16.5723 17.9571C16.9628 18.3476 17.596 18.3476 17.9865 17.9571C18.377 17.5666 18.377 16.9334 17.9865 16.5429L13.4436 12L17.9865 7.45711Z" fill="#161616"/>
</svg>
