<svg width="32" height="32" viewBox="0 0 32 32" fill="none" xmlns="http://www.w3.org/2000/svg">
<path d="M25.8809 1.75L26.1074 1.75879C28.428 1.91085 30.2996 3.85589 30.2998 6.20996V21.2754L30.2988 21.2988C30.2265 22.4411 29.7191 23.4683 28.9258 24.2383C27.335 25.8059 25.7277 27.6818 23.9238 29.2051C23.6806 29.4105 23.4453 29.5608 23.2705 29.6602C23.1826 29.7102 23.1084 29.7488 23.0537 29.7754C23.0264 29.7887 23.0034 29.7989 22.9863 29.8066C22.9779 29.8105 22.9705 29.8139 22.9648 29.8164C22.9623 29.8175 22.96 29.8185 22.958 29.8193C22.957 29.8198 22.955 29.8199 22.9541 29.8203C22.3713 30.1025 21.6925 30.25 21.04 30.25H6.17969L6.15918 30.249L5.79004 30.2285L5.76953 30.2275L5.74902 30.2256C3.53826 29.9858 1.81018 28.132 1.75 25.8896V11.0078C1.75 10.8877 1.74849 10.6839 1.77734 10.4824C1.90243 9.42139 2.40504 8.47709 3.1416 7.7627L8.12207 2.8252L8.14551 2.80176L8.1709 2.78125C8.46173 2.53953 8.78699 2.33524 9.125 2.17871L9.12891 2.17676C9.67186 1.92953 10.2826 1.77188 10.9258 1.75977H10.9404C11.0824 1.75976 14.8106 1.75737 18.5059 1.75488C20.355 1.75364 22.1957 1.75289 23.5742 1.75195C24.2635 1.75149 24.8379 1.75027 25.2393 1.75H25.8809Z" fill="#161F2E" stroke="#FFF500" stroke-width="1.5"/>
<path d="M20.45 9.96997H6.86004C5.85488 9.96997 5.04004 10.7848 5.04004 11.79V25.38C5.04004 26.3851 5.85488 27.2 6.86004 27.2H20.45C21.4552 27.2 22.27 26.3851 22.27 25.38V11.79C22.27 10.7848 21.4552 9.96997 20.45 9.96997Z" fill="#FFF500"/>
<path d="M19.1399 18.17C19.7433 18.17 20.2393 18.6326 20.2942 19.2218C20.2981 19.2607 20.3 19.3001 20.3 19.34C20.3 20.37 19.8004 21.1808 19.3704 21.6808C19.1292 21.969 18.8347 22.2349 18.5325 22.4572C18.323 22.6133 18.1081 22.7485 17.8997 22.8507L17.5999 22.9904C17.1086 23.1968 16.5462 23.3249 15.9202 23.3829C15.9137 23.3836 15.9072 23.3843 15.9006 23.3849C15.6535 23.4071 15.3966 23.42 15.1301 23.42H12.05C11.7832 23.42 11.526 23.4072 11.2786 23.3849C11.272 23.3843 11.2655 23.3836 11.259 23.3829C10.6334 23.3249 10.0713 23.1967 9.58032 22.9904L9.28052 22.8507C9.08957 22.7571 8.89316 22.6357 8.70044 22.4962C8.37953 22.2666 8.06512 21.9859 7.80981 21.6808C7.37981 21.1808 6.88013 20.37 6.88013 19.34C6.88014 19.3001 6.88203 19.2607 6.88599 19.2218C6.94086 18.6326 7.43691 18.17 8.04028 18.17C8.68008 18.1701 9.21976 18.7002 9.21997 19.34C9.21997 19.6 9.34986 19.8906 9.59985 20.1906C9.86969 20.5104 10.1896 20.7203 10.3098 20.7804C10.7498 21.0004 11.33 21.1104 12.0598 21.1105H15.1204C15.8503 21.1105 16.4304 21.0004 16.8704 20.7804C16.9905 20.7203 17.3105 20.5104 17.5803 20.1906C17.8303 19.8906 17.9602 19.6 17.9602 19.34C17.9604 18.7002 18.5001 18.1702 19.1399 18.17Z" fill="#161F2E"/>
<path d="M11.1601 17.45C11.9701 17.45 12.6301 16.79 12.6301 15.98C12.6301 15.17 11.9701 14.51 11.1601 14.51C10.3501 14.51 9.69006 15.17 9.69006 15.98C9.69006 16.79 10.3501 17.45 11.1601 17.45Z" fill="#161F2E"/>
<path d="M16.0401 17.45C16.8501 17.45 17.5101 16.79 17.5101 15.98C17.5101 15.17 16.8501 14.51 16.0401 14.51C15.2301 14.51 14.5701 15.17 14.5701 15.98C14.5701 16.79 15.2301 17.45 16.0401 17.45Z" fill="#161F2E"/>
<path d="M26.04 5.96997C25.04 6.96997 24.29 7.71997 24.04 7.96997" stroke="#FFF500" stroke-width="1.5" stroke-linecap="round"/>
</svg>
