<svg width="24" height="24" viewBox="0 0 24 24" fill="none" xmlns="http://www.w3.org/2000/svg">
<path d="M18.168 2.81934L18.4531 2.83594C19.8572 2.99152 20.9675 4.19952 20.9678 5.6377V15.0703L20.9668 15.0869C20.9185 15.8101 20.603 16.4629 20.0967 16.9473L20.0977 16.9482C19.07 17.964 18.0409 19.0315 16.9883 20.042L16.9658 20.0635L16.9414 20.0811L16.8213 20.1719C16.6776 20.2794 16.5173 20.3782 16.3506 20.4551L16.3496 20.4541C15.9775 20.6368 15.546 20.7304 15.1299 20.7305H11.2363L8.18945 20.7373C7.70976 20.7367 7.25892 20.7351 6.85938 20.7324L5.83691 20.7207H5.58984L5.56348 20.7178C4.16179 20.5717 3.06872 19.3949 3.03223 17.9746V8.65625C3.03222 8.5801 3.03143 8.46326 3.04492 8.3418C3.11868 7.65843 3.43741 7.05137 3.91895 6.59473C4.30456 6.2147 4.68561 5.82934 5.06934 5.44141C5.45454 5.05198 5.84306 4.65991 6.23633 4.27246L6.23828 4.27051L7.0293 3.50098L7.04688 3.4834L7.06641 3.46875C7.2343 3.3347 7.43174 3.19571 7.66602 3.0918V3.09277C8.00012 2.94345 8.39093 2.8291 8.81055 2.8291H14.1406L14.1309 2.81934H18.168Z" fill="#0D1423" stroke="#FFF500"/>
<path d="M14.709 7.94727C15.3394 7.94727 15.8504 8.45677 15.8506 9.08594V17.5723C15.8504 18.2014 15.3394 18.7109 14.709 18.7109H6.20605C5.57577 18.7107 5.06462 18.2013 5.06445 17.5723V9.08594C5.0646 8.45689 5.57576 7.94746 6.20605 7.94727H14.709ZM13.918 13.1748C13.5174 13.1748 13.1865 13.5045 13.1865 13.9043C13.1865 14.0642 13.1064 14.2538 12.9463 14.4336C12.7763 14.6332 12.5764 14.7636 12.4961 14.8037C12.2257 14.9436 11.8549 15.0039 11.4043 15.0039H9.48145C9.03077 15.0039 8.6598 14.9336 8.39941 14.8037C8.30923 14.7637 8.11939 14.6334 7.94922 14.4336C7.79904 14.2537 7.70903 14.0642 7.70898 13.9043C7.70898 13.5045 7.37809 13.1749 6.97754 13.1748C6.57694 13.1748 6.24609 13.5045 6.24609 13.9043C6.24614 14.5438 6.56679 15.0534 6.82715 15.3633C7.08744 15.663 7.41791 15.9428 7.73828 16.0928C8.20888 16.3226 8.78989 16.4433 9.4707 16.4434H11.3945C11.9852 16.4433 12.506 16.3527 12.9365 16.1729L13.127 16.083C13.4473 15.9231 13.7876 15.6534 14.0479 15.3438C14.3082 15.0339 14.6289 14.5235 14.6289 13.8838C14.6287 13.4842 14.2979 13.1543 13.8975 13.1543L13.918 13.1748ZM8.94043 10.8652C8.42977 10.8652 8.01873 11.2753 8.01855 11.7852C8.01855 12.2952 8.42966 12.7051 8.94043 12.7051C9.45119 12.7051 9.86133 12.2951 9.86133 11.7852C9.86116 11.2753 9.45108 10.8652 8.94043 10.8652ZM11.9951 10.8652C11.4845 10.8652 11.0734 11.2753 11.0732 11.7852C11.0732 12.2952 11.4844 12.7051 11.9951 12.7051C12.5058 12.705 12.916 12.2951 12.916 11.7852C12.9158 11.2753 12.5057 10.8653 11.9951 10.8652Z" fill="#FFF500"/>
<path d="M18.8984 4.898L18.8913 4.89093C18.6488 4.64887 18.2134 4.69092 17.9189 4.98486L16.7233 6.17806C16.4287 6.47199 16.3866 6.90651 16.6292 7.14857L16.6362 7.15564C16.8788 7.3977 17.3142 7.35565 17.6087 7.06172L18.8043 5.86852C19.0988 5.57458 19.141 5.14007 18.8984 4.898Z" fill="#FFF500"/>
</svg>
