<svg width="24" height="24" viewBox="0 0 24 24" fill="none" xmlns="http://www.w3.org/2000/svg">
<path d="M14 2C14.5523 2 15 2.44772 15 3H19.875C20.4963 3 21 3.44772 21 4C21 4.55228 20.4963 5 19.875 5H20V19C20 20.6569 18.6569 22 17 22H7C5.34315 22 4 20.6569 4 19V5H4.125C3.50368 5 3 4.55228 3 4C3 3.44772 3.50368 3 4.125 3H9C9 2.44772 9.44772 2 10 2H14ZM6 19C6 19.5523 6.44772 20 7 20H17C17.5523 20 18 19.5523 18 19V5H6V19ZM10.5 8C10.7761 8 11 8.22386 11 8.5V16.5C11 16.7761 10.7761 17 10.5 17H9.5C9.22386 17 9 16.7761 9 16.5V8.5C9 8.22386 9.22386 8 9.5 8H10.5ZM14.5 8C14.7761 8 15 8.22386 15 8.5V16.5C15 16.7761 14.7761 17 14.5 17H13.5C13.2239 17 13 16.7761 13 16.5V8.5C13 8.22386 13.2239 8 13.5 8H14.5Z" fill="#161F2E"/>
</svg>
