<svg width="24" height="24" viewBox="0 0 24 24" fill="none" xmlns="http://www.w3.org/2000/svg">
<path fill-rule="evenodd" clip-rule="evenodd" d="M18.2635 2.29289C17.8729 1.90237 17.2398 1.90237 16.8493 2.29289L14.7279 4.41421C14.3374 4.80474 14.3374 5.4379 14.7279 5.82843L18.2635 9.36396C18.654 9.75449 19.2872 9.75449 19.6777 9.36396L21.799 7.24264C22.1895 6.85212 22.1895 6.21895 21.799 5.82843L18.2635 2.29289ZM13.3136 7.24266C12.9231 6.85214 12.29 6.85214 11.8994 7.24266L3.12155 16.0205C2.93816 16.2039 2.8332 16.4514 2.8288 16.7107L2.76784 20.3072C2.76325 20.5782 2.8689 20.8396 3.06059 21.0312C3.25229 21.2229 3.51359 21.3286 3.78465 21.324L7.38114 21.263C7.64045 21.2586 7.88791 21.1537 8.0713 20.9703L16.8492 12.1924C17.2397 11.8019 17.2397 11.1687 16.8492 10.7782L13.3136 7.24266Z" fill="#161616"/>
</svg>
