<svg width="75" height="15" viewBox="0 0 75 15" fill="none" xmlns="http://www.w3.org/2000/svg">
<rect width="75" height="15" rx="7.5" fill="#D6BDF5"/>
<path d="M13.9206 6.07812C13.8708 5.9053 13.801 5.7526 13.711 5.62003C13.6211 5.48509 13.511 5.37145 13.3808 5.27912C13.2529 5.18442 13.1062 5.11222 12.9404 5.0625C12.7771 5.01278 12.596 4.98793 12.3971 4.98793C12.0254 4.98793 11.6987 5.08026 11.417 5.26491C11.1377 5.44957 10.9199 5.71828 10.7636 6.07102C10.6074 6.4214 10.5292 6.84991 10.5292 7.35653C10.5292 7.86316 10.6062 8.29403 10.76 8.64915C10.9139 9.00426 11.1317 9.27533 11.4135 9.46236C11.6952 9.64702 12.0278 9.73935 12.4113 9.73935C12.7593 9.73935 13.0565 9.67779 13.3027 9.55469C13.5512 9.42921 13.7406 9.25284 13.8708 9.02557C14.0034 8.7983 14.0697 8.52959 14.0697 8.21946L14.3822 8.26562H12.5072V7.10795H15.5505V8.02415C15.5505 8.66335 15.4156 9.21259 15.1457 9.67188C14.8758 10.1288 14.5041 10.4815 14.0306 10.7301C13.5572 10.9763 13.015 11.0994 12.4042 11.0994C11.7224 11.0994 11.1234 10.9491 10.6074 10.6484C10.0913 10.3454 9.68879 9.91572 9.39996 9.35938C9.11351 8.80066 8.97028 8.13778 8.97028 7.37074C8.97028 6.78125 9.0555 6.25568 9.22596 5.79403C9.39878 5.33002 9.64026 4.93703 9.95039 4.61506C10.2605 4.29309 10.6216 4.04806 11.0335 3.87997C11.4454 3.71188 11.8917 3.62784 12.3723 3.62784C12.7842 3.62784 13.1677 3.68821 13.5228 3.80895C13.8779 3.92732 14.1928 4.09541 14.4674 4.31321C14.7444 4.53101 14.9705 4.79025 15.1457 5.09091C15.3209 5.3892 15.4333 5.71828 15.4831 6.07812H13.9206ZM17.1189 11V5.54545H18.6317V11H17.1189ZM17.8789 4.84233C17.654 4.84233 17.461 4.76776 17.3 4.61861C17.1414 4.46709 17.0621 4.28598 17.0621 4.07528C17.0621 3.86695 17.1414 3.68821 17.3 3.53906C17.461 3.38755 17.654 3.31179 17.8789 3.31179C18.1038 3.31179 18.2955 3.38755 18.4542 3.53906C18.6151 3.68821 18.6956 3.86695 18.6956 4.07528C18.6956 4.28598 18.6151 4.46709 18.4542 4.61861C18.2955 4.76776 18.1038 4.84233 17.8789 4.84233ZM22.8448 5.54545V6.68182H19.56V5.54545H22.8448ZM20.3058 4.23864H21.8185V9.32386C21.8185 9.46354 21.8398 9.57244 21.8825 9.65057C21.9251 9.72633 21.9843 9.77959 22.06 9.81037C22.1381 9.84115 22.2281 9.85653 22.3299 9.85653C22.4009 9.85653 22.4719 9.85062 22.543 9.83878C22.614 9.82457 22.6684 9.81392 22.7063 9.80682L22.9442 10.9325C22.8685 10.9562 22.762 10.9834 22.6246 11.0142C22.4873 11.0473 22.3204 11.0675 22.1239 11.0746C21.7594 11.0888 21.4397 11.0402 21.1651 10.929C20.8929 10.8177 20.681 10.6449 20.5295 10.4105C20.378 10.1761 20.3034 9.88021 20.3058 9.52273V4.23864ZM24.0759 11V3.72727H25.6135V6.72798H28.7349V3.72727H30.269V11H28.7349V7.99574H25.6135V11H24.0759ZM35.1062 8.67756V5.54545H36.619V11H35.1666V10.0092H35.1098C34.9867 10.3288 34.7819 10.5857 34.4955 10.7798C34.2114 10.974 33.8645 11.071 33.455 11.071C33.0904 11.071 32.7696 10.9882 32.4926 10.8224C32.2156 10.6567 31.999 10.4212 31.8428 10.1158C31.6889 9.81037 31.6107 9.4446 31.6084 9.01847V5.54545H33.1212V8.74858C33.1235 9.07055 33.2099 9.32505 33.3804 9.51207C33.5509 9.6991 33.7793 9.79261 34.0658 9.79261C34.2481 9.79261 34.4185 9.75118 34.5771 9.66832C34.7357 9.5831 34.8636 9.45762 34.9607 9.2919C35.0601 9.12618 35.1086 8.9214 35.1062 8.67756ZM37.9575 11V3.72727H39.4703V6.46165H39.5164C39.5827 6.31487 39.6786 6.16572 39.8041 6.0142C39.9319 5.86032 40.0976 5.73248 40.3012 5.63068C40.5072 5.52652 40.7629 5.47443 41.0683 5.47443C41.466 5.47443 41.833 5.5786 42.1691 5.78693C42.5053 5.9929 42.774 6.30421 42.9752 6.72088C43.1765 7.13518 43.2771 7.65483 43.2771 8.27983C43.2771 8.88826 43.1788 9.40199 42.9824 9.82102C42.7882 10.2377 42.5231 10.5537 42.1869 10.7692C41.8531 10.9822 41.479 11.0888 41.0647 11.0888C40.7712 11.0888 40.5214 11.0402 40.3154 10.9432C40.1118 10.8461 39.9449 10.7242 39.8147 10.5774C39.6845 10.4283 39.5851 10.2779 39.5164 10.1264H39.449V11H37.9575ZM39.4383 8.27273C39.4383 8.59706 39.4833 8.87997 39.5733 9.12145C39.6632 9.36293 39.7934 9.55114 39.9639 9.68608C40.1343 9.81866 40.3415 9.88494 40.5853 9.88494C40.8315 9.88494 41.0399 9.81747 41.2103 9.68253C41.3808 9.54522 41.5098 9.35582 41.5974 9.11435C41.6874 8.8705 41.7324 8.58996 41.7324 8.27273C41.7324 7.95786 41.6886 7.68087 41.601 7.44176C41.5134 7.20265 41.3843 7.01562 41.2139 6.88068C41.0434 6.74574 40.8339 6.67827 40.5853 6.67827C40.3391 6.67827 40.1308 6.74337 39.9603 6.87358C39.7922 7.00379 39.6632 7.18845 39.5733 7.42756C39.4833 7.66667 39.4383 7.94839 39.4383 8.27273ZM48.0829 11H46.4352L48.9458 3.72727H50.9274L53.4345 11H51.7868L49.965 5.3892H49.9082L48.0829 11ZM47.9799 8.14134H51.872V9.34162H47.9799V8.14134ZM54.3814 13.0455V5.54545H55.8729V6.46165H55.9404C56.0067 6.31487 56.1025 6.16572 56.228 6.0142C56.3559 5.86032 56.5216 5.73248 56.7252 5.63068C56.9311 5.52652 57.1868 5.47443 57.4922 5.47443C57.8899 5.47443 58.2569 5.5786 58.5931 5.78693C58.9292 5.9929 59.198 6.30421 59.3992 6.72088C59.6004 7.13518 59.701 7.65483 59.701 8.27983C59.701 8.88826 59.6028 9.40199 59.4063 9.82102C59.2122 10.2377 58.947 10.5537 58.6108 10.7692C58.277 10.9822 57.903 11.0888 57.4887 11.0888C57.1951 11.0888 56.9453 11.0402 56.7394 10.9432C56.5358 10.8461 56.3689 10.7242 56.2387 10.5774C56.1085 10.4283 56.009 10.2779 55.9404 10.1264H55.8942V13.0455H54.3814ZM55.8623 8.27273C55.8623 8.59706 55.9072 8.87997 55.9972 9.12145C56.0872 9.36293 56.2174 9.55114 56.3878 9.68608C56.5583 9.81866 56.7654 9.88494 57.0093 9.88494C57.2555 9.88494 57.4638 9.81747 57.6343 9.68253C57.8047 9.54522 57.9337 9.35582 58.0213 9.11435C58.1113 8.8705 58.1563 8.58996 58.1563 8.27273C58.1563 7.95786 58.1125 7.68087 58.0249 7.44176C57.9373 7.20265 57.8083 7.01562 57.6378 6.88068C57.4674 6.74574 57.2578 6.67827 57.0093 6.67827C56.7631 6.67827 56.5547 6.74337 56.3843 6.87358C56.2162 7.00379 56.0872 7.18845 55.9972 7.42756C55.9072 7.66667 55.8623 7.94839 55.8623 8.27273ZM60.8096 13.0455V5.54545H62.301V6.46165H62.3685C62.4348 6.31487 62.5307 6.16572 62.6561 6.0142C62.784 5.86032 62.9497 5.73248 63.1533 5.63068C63.3593 5.52652 63.615 5.47443 63.9203 5.47443C64.3181 5.47443 64.685 5.5786 65.0212 5.78693C65.3574 5.9929 65.6261 6.30421 65.8273 6.72088C66.0285 7.13518 66.1292 7.65483 66.1292 8.27983C66.1292 8.88826 66.0309 9.40199 65.8344 9.82102C65.6403 10.2377 65.3751 10.5537 65.039 10.7692C64.7052 10.9822 64.3311 11.0888 63.9168 11.0888C63.6232 11.0888 63.3735 11.0402 63.1675 10.9432C62.9639 10.8461 62.797 10.7242 62.6668 10.5774C62.5366 10.4283 62.4372 10.2779 62.3685 10.1264H62.3223V13.0455H60.8096ZM62.2904 8.27273C62.2904 8.59706 62.3354 8.87997 62.4253 9.12145C62.5153 9.36293 62.6455 9.55114 62.8159 9.68608C62.9864 9.81866 63.1935 9.88494 63.4374 9.88494C63.6836 9.88494 63.8919 9.81747 64.0624 9.68253C64.2328 9.54522 64.3619 9.35582 64.4495 9.11435C64.5394 8.8705 64.5844 8.58996 64.5844 8.27273C64.5844 7.95786 64.5406 7.68087 64.453 7.44176C64.3654 7.20265 64.2364 7.01562 64.0659 6.88068C63.8955 6.74574 63.686 6.67827 63.4374 6.67827C63.1912 6.67827 62.9828 6.74337 62.8124 6.87358C62.6443 7.00379 62.5153 7.18845 62.4253 7.42756C62.3354 7.66667 62.2904 7.94839 62.2904 8.27273Z" fill="#3D1F6E"/>
</svg>
