<svg width="86" height="15" viewBox="0 0 86 15" fill="none" xmlns="http://www.w3.org/2000/svg">
<rect width="86" height="15" rx="7.5" fill="#555555"/>
<path d="M13.7102 6.07812C13.6605 5.9053 13.5907 5.7526 13.5007 5.62003C13.4107 5.48509 13.3006 5.37145 13.1704 5.27912C13.0426 5.18442 12.8958 5.11222 12.7301 5.0625C12.5667 5.01278 12.3856 4.98793 12.1868 4.98793C11.8151 4.98793 11.4884 5.08026 11.2067 5.26491C10.9273 5.44957 10.7095 5.71828 10.5533 6.07102C10.397 6.4214 10.3189 6.84991 10.3189 7.35653C10.3189 7.86316 10.3958 8.29403 10.5497 8.64915C10.7036 9.00426 10.9214 9.27533 11.2031 9.46236C11.4848 9.64702 11.8175 9.73935 12.201 9.73935C12.549 9.73935 12.8461 9.67779 13.0923 9.55469C13.3409 9.42921 13.5303 9.25284 13.6605 9.02557C13.7931 8.7983 13.8594 8.52959 13.8594 8.21946L14.1719 8.26562H12.2969V7.10795H15.3402V8.02415C15.3402 8.66335 15.2052 9.21259 14.9354 9.67188C14.6655 10.1288 14.2938 10.4815 13.8203 10.7301C13.3468 10.9763 12.8047 11.0994 12.1939 11.0994C11.5121 11.0994 10.9131 10.9491 10.397 10.6484C9.8809 10.3454 9.47844 9.91572 9.18961 9.35938C8.90316 8.80066 8.75993 8.13778 8.75993 7.37074C8.75993 6.78125 8.84515 6.25568 9.01561 5.79403C9.18843 5.33002 9.42991 4.93703 9.74004 4.61506C10.0502 4.29309 10.4112 4.04806 10.8231 3.87997C11.2351 3.71188 11.6813 3.62784 12.1619 3.62784C12.5738 3.62784 12.9574 3.68821 13.3125 3.80895C13.6676 3.92732 13.9825 4.09541 14.2571 4.31321C14.5341 4.53101 14.7602 4.79025 14.9354 5.09091C15.1105 5.3892 15.223 5.71828 15.2727 6.07812H13.7102ZM16.9086 11V5.54545H18.4214V11H16.9086ZM17.6685 4.84233C17.4436 4.84233 17.2507 4.76776 17.0897 4.61861C16.9311 4.46709 16.8518 4.28598 16.8518 4.07528C16.8518 3.86695 16.9311 3.68821 17.0897 3.53906C17.2507 3.38755 17.4436 3.31179 17.6685 3.31179C17.8934 3.31179 18.0852 3.38755 18.2438 3.53906C18.4048 3.68821 18.4853 3.86695 18.4853 4.07528C18.4853 4.28598 18.4048 4.46709 18.2438 4.61861C18.0852 4.76776 17.8934 4.84233 17.6685 4.84233ZM22.6345 5.54545V6.68182H19.3497V5.54545H22.6345ZM20.0954 4.23864H21.6082V9.32386C21.6082 9.46354 21.6295 9.57244 21.6721 9.65057C21.7147 9.72633 21.7739 9.77959 21.8497 9.81037C21.9278 9.84115 22.0178 9.85653 22.1195 9.85653C22.1906 9.85653 22.2616 9.85062 22.3326 9.83878C22.4036 9.82457 22.4581 9.81392 22.496 9.80682L22.7339 10.9325C22.6581 10.9562 22.5516 10.9834 22.4143 11.0142C22.277 11.0473 22.1101 11.0675 21.9136 11.0746C21.549 11.0888 21.2294 11.0402 20.9548 10.929C20.6825 10.8177 20.4706 10.6449 20.3191 10.4105C20.1676 10.1761 20.093 9.88021 20.0954 9.52273V4.23864ZM23.8655 11V3.72727H25.4031V6.72798H28.5246V3.72727H30.0587V11H28.5246V7.99574H25.4031V11H23.8655ZM34.8959 8.67756V5.54545H36.4087V11H34.9563V10.0092H34.8995C34.7763 10.3288 34.5716 10.5857 34.2851 10.7798C34.001 10.974 33.6542 11.071 33.2446 11.071C32.88 11.071 32.5593 10.9882 32.2823 10.8224C32.0053 10.6567 31.7887 10.4212 31.6324 10.1158C31.4785 9.81037 31.4004 9.4446 31.398 9.01847V5.54545H32.9108V8.74858C32.9132 9.07055 32.9996 9.32505 33.17 9.51207C33.3405 9.6991 33.569 9.79261 33.8554 9.79261C34.0377 9.79261 34.2082 9.75118 34.3668 9.66832C34.5254 9.5831 34.6532 9.45762 34.7503 9.2919C34.8497 9.12618 34.8983 8.9214 34.8959 8.67756ZM37.7471 11V3.72727H39.2599V6.46165H39.3061C39.3724 6.31487 39.4683 6.16572 39.5937 6.0142C39.7216 5.86032 39.8873 5.73248 40.0909 5.63068C40.2969 5.52652 40.5525 5.47443 40.8579 5.47443C41.2557 5.47443 41.6226 5.5786 41.9588 5.78693C42.295 5.9929 42.5637 6.30421 42.7649 6.72088C42.9661 7.13518 43.0667 7.65483 43.0667 8.27983C43.0667 8.88826 42.9685 9.40199 42.772 9.82102C42.5779 10.2377 42.3127 10.5537 41.9765 10.7692C41.6427 10.9822 41.2687 11.0888 40.8544 11.0888C40.5608 11.0888 40.3111 11.0402 40.1051 10.9432C39.9015 10.8461 39.7346 10.7242 39.6044 10.5774C39.4742 10.4283 39.3747 10.2779 39.3061 10.1264H39.2386V11H37.7471ZM39.228 8.27273C39.228 8.59706 39.2729 8.87997 39.3629 9.12145C39.4529 9.36293 39.5831 9.55114 39.7535 9.68608C39.924 9.81866 40.1311 9.88494 40.375 9.88494C40.6212 9.88494 40.8295 9.81747 41 9.68253C41.1704 9.54522 41.2995 9.35582 41.3871 9.11435C41.477 8.8705 41.522 8.58996 41.522 8.27273C41.522 7.95786 41.4782 7.68087 41.3906 7.44176C41.303 7.20265 41.174 7.01562 41.0035 6.88068C40.8331 6.74574 40.6236 6.67827 40.375 6.67827C40.1288 6.67827 39.9204 6.74337 39.75 6.87358C39.5819 7.00379 39.4529 7.18845 39.3629 7.42756C39.2729 7.66667 39.228 7.94839 39.228 8.27273ZM53.3023 7.36364C53.3023 8.15672 53.1519 8.83144 52.8513 9.38778C52.553 9.94413 52.1458 10.3691 51.6297 10.6626C51.1159 10.9538 50.5383 11.0994 49.8967 11.0994C49.2504 11.0994 48.6704 10.9527 48.1567 10.6591C47.6429 10.3655 47.2369 9.94058 46.9386 9.38423C46.6403 8.82789 46.4912 8.15436 46.4912 7.36364C46.4912 6.57055 46.6403 5.89583 46.9386 5.33949C47.2369 4.78314 47.6429 4.35937 48.1567 4.06818C48.6704 3.77462 49.2504 3.62784 49.8967 3.62784C50.5383 3.62784 51.1159 3.77462 51.6297 4.06818C52.1458 4.35937 52.553 4.78314 52.8513 5.33949C53.1519 5.89583 53.3023 6.57055 53.3023 7.36364ZM51.7433 7.36364C51.7433 6.84991 51.6664 6.41667 51.5125 6.06392C51.361 5.71117 51.1467 5.44366 50.8697 5.26136C50.5927 5.07907 50.2684 4.98793 49.8967 4.98793C49.525 4.98793 49.2007 5.07907 48.9237 5.26136C48.6467 5.44366 48.4313 5.71117 48.2774 6.06392C48.1259 6.41667 48.0501 6.84991 48.0501 7.36364C48.0501 7.87737 48.1259 8.31061 48.2774 8.66335C48.4313 9.0161 48.6467 9.28362 48.9237 9.46591C49.2007 9.6482 49.525 9.73935 49.8967 9.73935C50.2684 9.73935 50.5927 9.6482 50.8697 9.46591C51.1467 9.28362 51.361 9.0161 51.5125 8.66335C51.6664 8.31061 51.7433 7.87737 51.7433 7.36364ZM55.3847 11H53.7369L56.2476 3.72727H58.2291L60.7362 11H59.0885L57.2668 5.3892H57.21L55.3847 11ZM55.2817 8.14134H59.1737V9.34162H55.2817V8.14134ZM65.1811 8.67756V5.54545H66.6938V11H65.2414V10.0092H65.1846C65.0615 10.3288 64.8567 10.5857 64.5703 10.7798C64.2862 10.974 63.9393 11.071 63.5298 11.071C63.1652 11.071 62.8444 10.9882 62.5674 10.8224C62.2904 10.6567 62.0738 10.4212 61.9176 10.1158C61.7637 9.81037 61.6856 9.4446 61.6832 9.01847V5.54545H63.196V8.74858C63.1983 9.07055 63.2848 9.32505 63.4552 9.51207C63.6257 9.6991 63.8541 9.79261 64.1406 9.79261C64.3229 9.79261 64.4933 9.75118 64.6519 9.66832C64.8106 9.5831 64.9384 9.45762 65.0355 9.2919C65.1349 9.12618 65.1834 8.9214 65.1811 8.67756ZM70.9052 5.54545V6.68182H67.6204V5.54545H70.9052ZM68.3661 4.23864H69.8789V9.32386C69.8789 9.46354 69.9002 9.57244 69.9428 9.65057C69.9854 9.72633 70.0446 9.77959 70.1204 9.81037C70.1985 9.84115 70.2885 9.85653 70.3903 9.85653C70.4613 9.85653 70.5323 9.85062 70.6033 9.83878C70.6743 9.82457 70.7288 9.81392 70.7667 9.80682L71.0046 10.9325C70.9288 10.9562 70.8223 10.9834 70.685 11.0142C70.5477 11.0473 70.3808 11.0675 70.1843 11.0746C69.8197 11.0888 69.5001 11.0402 69.2255 10.929C68.9532 10.8177 68.7413 10.6449 68.5898 10.4105C68.4383 10.1761 68.3637 9.88021 68.3661 9.52273V4.23864ZM73.6206 7.84659V11H72.1078V3.72727H73.578V6.50781H73.6419C73.765 6.18584 73.9639 5.93371 74.2385 5.75142C74.5131 5.56676 74.8576 5.47443 75.2719 5.47443C75.6506 5.47443 75.9809 5.55729 76.2626 5.72301C76.5467 5.88636 76.7669 6.12192 76.9231 6.42969C77.0818 6.73509 77.1599 7.10085 77.1575 7.52699V11H75.6447V7.79688C75.6471 7.4607 75.5619 7.1991 75.389 7.01207C75.2186 6.82505 74.9795 6.73153 74.6717 6.73153C74.4657 6.73153 74.2835 6.77533 74.1248 6.86293C73.9686 6.95052 73.8455 7.07836 73.7555 7.24645C73.6679 7.41217 73.6229 7.61222 73.6206 7.84659Z" fill="#FAFAFA"/>
</svg>
