<svg width="68" height="24" viewBox="0 0 68 24" fill="none" xmlns="http://www.w3.org/2000/svg">
<rect width="68" height="24" rx="12" fill="#FFC7BF"/>
<path d="M16.962 11.6364C16.962 12.5881 16.7816 13.3977 16.4208 14.0653C16.0629 14.733 15.5742 15.2429 14.9549 15.5952C14.3384 15.9446 13.6452 16.1193 12.8754 16.1193C12.0998 16.1193 11.4038 15.9432 10.7873 15.5909C10.1708 15.2386 9.68359 14.7287 9.32564 14.0611C8.96768 13.3935 8.78871 12.5852 8.78871 11.6364C8.78871 10.6847 8.96768 9.875 9.32564 9.20739C9.68359 8.53977 10.1708 8.03125 10.7873 7.68182C11.4038 7.32955 12.0998 7.15341 12.8754 7.15341C13.6452 7.15341 14.3384 7.32955 14.9549 7.68182C15.5742 8.03125 16.0629 8.53977 16.4208 9.20739C16.7816 9.875 16.962 10.6847 16.962 11.6364ZM15.0913 11.6364C15.0913 11.0199 14.9989 10.5 14.8143 10.0767C14.6325 9.65341 14.3754 9.33239 14.043 9.11364C13.7106 8.89489 13.3214 8.78551 12.8754 8.78551C12.4293 8.78551 12.0401 8.89489 11.7077 9.11364C11.3754 9.33239 11.1168 9.65341 10.9322 10.0767C10.7504 10.5 10.6594 11.0199 10.6594 11.6364C10.6594 12.2528 10.7504 12.7727 10.9322 13.196C11.1168 13.6193 11.3754 13.9403 11.7077 14.1591C12.0401 14.3778 12.4293 14.4872 12.8754 14.4872C13.3214 14.4872 13.7106 14.3778 14.043 14.1591C14.3754 13.9403 14.6325 13.6193 14.8143 13.196C14.9989 12.7727 15.0913 12.2528 15.0913 11.6364ZM24.0195 7.27273H25.8646V12.9403C25.8646 13.5767 25.7126 14.1335 25.4087 14.6108C25.1075 15.0881 24.6857 15.4602 24.143 15.7273C23.6004 15.9915 22.9683 16.1236 22.2467 16.1236C21.5223 16.1236 20.8888 15.9915 20.3462 15.7273C19.8036 15.4602 19.3817 15.0881 19.0805 14.6108C18.7794 14.1335 18.6288 13.5767 18.6288 12.9403V7.27273H20.474V12.7827C20.474 13.1151 20.5464 13.4105 20.6913 13.669C20.8391 13.9276 21.0464 14.1307 21.3135 14.2784C21.5805 14.4261 21.8916 14.5 22.2467 14.5C22.6047 14.5 22.9158 14.4261 23.18 14.2784C23.447 14.1307 23.653 13.9276 23.7979 13.669C23.9456 13.4105 24.0195 13.1151 24.0195 12.7827V7.27273ZM27.3504 8.79403V7.27273H34.518V8.79403H31.8461V16H30.0222V8.79403H27.3504ZM36.4362 16H34.4589L37.4717 7.27273H39.8496L42.8581 16H40.8808L38.6947 9.26705H38.6266L36.4362 16ZM36.3126 12.5696H40.9831V14.0099H36.3126V12.5696ZM49.5853 10.0938C49.5256 9.88636 49.4418 9.70312 49.3339 9.54403C49.2259 9.3821 49.0938 9.24574 48.9376 9.13494C48.7842 9.02131 48.608 8.93466 48.4092 8.875C48.2131 8.81534 47.9958 8.78551 47.7572 8.78551C47.3112 8.78551 46.9191 8.89631 46.581 9.1179C46.2458 9.33949 45.9844 9.66193 45.7969 10.0852C45.6094 10.5057 45.5157 11.0199 45.5157 11.6278C45.5157 12.2358 45.608 12.7528 45.7927 13.179C45.9773 13.6051 46.2387 13.9304 46.5768 14.1548C46.9148 14.3764 47.314 14.4872 47.7742 14.4872C48.1918 14.4872 48.5484 14.4134 48.8438 14.2656C49.1421 14.1151 49.3694 13.9034 49.5256 13.6307C49.6847 13.358 49.7643 13.0355 49.7643 12.6634L50.1393 12.7188H47.8893V11.3295H51.5413V12.429C51.5413 13.196 51.3793 13.8551 51.0555 14.4062C50.7316 14.9545 50.2856 15.3778 49.7174 15.6761C49.1492 15.9716 48.4987 16.1193 47.7657 16.1193C46.9475 16.1193 46.2288 15.9389 45.6094 15.5781C44.9901 15.2145 44.5072 14.6989 44.1606 14.0312C43.8168 13.3608 43.645 12.5653 43.645 11.6449C43.645 10.9375 43.7472 10.3068 43.9518 9.75284C44.1592 9.19602 44.4489 8.72443 44.8211 8.33807C45.1933 7.9517 45.6265 7.65767 46.1208 7.45597C46.6151 7.25426 47.1506 7.15341 47.7273 7.15341C48.2217 7.15341 48.6819 7.22585 49.108 7.37074C49.5342 7.51278 49.912 7.71449 50.2415 7.97585C50.5739 8.23722 50.8452 8.5483 51.0555 8.90909C51.2657 9.26705 51.4006 9.66193 51.4603 10.0938H49.5853ZM53.2273 16V7.27273H59.108V8.79403H55.0724V10.8736H58.8054V12.3949H55.0724V14.4787H59.125V16H53.2273Z" fill="#161616"/>
</svg>
