<svg width="24" height="24" viewBox="0 0 24 24" fill="none" xmlns="http://www.w3.org/2000/svg">
<path d="M21 2C21.5523 2 22 2.44772 22 3V9C22 9.55229 21.5523 10 21 10H15C14.4477 10 14 9.55229 14 9C14 8.44772 14.4477 8 15 8H18.6836C17.3199 5.60323 14.7737 4 11.8682 4C7.53652 4.00011 4 7.56785 4 12C4 16.4322 7.53652 19.9999 11.8682 20C15.0856 20 17.8627 18.0345 19.0811 15.2021C19.2993 14.6948 19.8882 14.4605 20.3955 14.6787C20.9025 14.897 21.1369 15.485 20.9189 15.9922C19.4015 19.52 15.926 22 11.8682 22C6.40427 21.9999 2 17.5088 2 12C2 6.49116 6.40427 2.00011 11.8682 2C15.2483 2 18.2233 3.72125 20 6.33496V3C20 2.44772 20.4477 2 21 2Z" fill="#161616"/>
</svg>
