<svg width="24" height="24" viewBox="0 0 24 24" fill="none" xmlns="http://www.w3.org/2000/svg">
<path fill-rule="evenodd" clip-rule="evenodd" d="M19.6826 11.32C19.7031 11.55 19.7134 11.77 19.7134 12C19.7134 12.23 19.7031 12.45 19.6723 12.68L21.5852 14.09C21.9966 14.4 22.1097 14.95 21.8526 15.39L19.9294 18.62C19.6723 19.06 19.1169 19.24 18.6438 19.04L16.4327 18.13C16.0521 18.39 15.651 18.62 15.2294 18.81L14.9311 21.12C14.8694 21.62 14.4272 22 13.9129 22H10.0768C9.56256 22 9.12032 21.62 9.05861 21.12L8.76036 18.81C8.33869 18.62 7.93759 18.39 7.55706 18.13L5.34588 19.04C4.87279 19.24 4.31742 19.06 4.06031 18.62L2.13709 15.39C1.87998 14.95 1.99311 14.39 2.40449 14.09L4.31742 12.68C4.29685 12.45 4.28657 12.23 4.28657 12C4.28657 11.77 4.29685 11.55 4.31742 11.33L2.40449 9.92C1.99311 9.61 1.87998 9.06 2.13709 8.62L4.06031 5.38C4.31742 4.94 4.87279 4.76 5.34588 4.96L7.55706 5.87C7.93759 5.61 8.33869 5.38 8.76036 5.19L9.05861 2.88C9.12032 2.38 9.56256 2 10.0871 2H13.9232C14.4374 2 14.8797 2.38 14.9414 2.88L15.2396 5.19C15.6613 5.38 16.0624 5.61 16.4429 5.87L18.6541 4.96C19.1272 4.76 19.6826 4.94 19.9397 5.38L21.8629 8.61C22.12 9.05 22.0069 9.61 21.5955 9.91L19.6826 11.32ZM12 15.3333C13.8409 15.3333 15.3333 13.8409 15.3333 12C15.3333 10.1591 13.8409 8.66667 12 8.66667C10.1591 8.66667 8.66667 10.1591 8.66667 12C8.66667 13.8409 10.1591 15.3333 12 15.3333Z" fill="#161616"/>
</svg>
