<svg width="24" height="24" viewBox="0 0 24 24" fill="none" xmlns="http://www.w3.org/2000/svg">
<path fill-rule="evenodd" clip-rule="evenodd" d="M21.7961 18.7493C21.9297 18.9776 22 19.2367 22 19.5006C22 20.3287 21.3215 21 20.4846 21H3.51564C3.24902 21 2.98712 20.9304 2.75638 20.7982C2.03208 20.3833 1.78485 19.466 2.20418 18.7493L10.6887 4.24842C10.8213 4.02168 11.0117 3.8333 11.2409 3.70203C11.9652 3.28712 12.8923 3.53174 13.3116 4.24842L21.7961 18.7493ZM12 18C12.5523 18 13 17.5523 13 17C13 16.4477 12.5523 16 12 16C11.4477 16 11 16.4477 11 17C11 17.5523 11.4477 18 12 18ZM11 13C11 13.5523 11.4477 14 12 14C12.5523 14 13 13.5523 13 13V8.9957C13 8.44341 12.5523 7.9957 12 7.9957C11.4477 7.9957 11 8.44341 11 8.9957V13Z" fill="#161616"/>
</svg>
